{
.appVersion = "3151";
.formatVersion = 3;
classes = (
{
automatic = 1;
code = "A Aacute Abreve Acircumflex Adieresis Adotbelow Agrave Amacron Aogonek Aring Aringacute Atilde AE AEacute B C Cacute Ccaron Ccedilla Ccedillaacute Ccircumflex Cdotaccent D Eth Dcaron Dcroat Ddotbelow Dmacronbelow E Eacute Ebreve Ecaron Ecedillabreve Ecircumflex Edieresis Edotaccent Edotbelow Egrave Emacron Emacronacute Emacrongrave Eogonek Etilde Schwa F G Gbreve Gcaron Gcircumflex Gcommaaccent Gdotaccent Gmacron H Hbar Hbrevebelow Hcircumflex Hdotbelow I IJ Iacute Ibreve Icircumflex Idieresis Idieresisacute Idotaccent Idotbelow Igrave Imacron Iogonek Itilde J Jacute Jcircumflex K Kcommaaccent Kmacronbelow L Lacute Lcaron Lcommaaccent Ldot Ldotbelow Lmacronbelow Lslash M Mdotbelow N Nacute Ncaron Ncommaaccent Ndotaccent Ndotbelow Nhookleft Nmacronbelow Ntilde Eng O Oacute Obreve Ocircumflex Odieresis Odotbelow Ograve Ohungarumlaut Omacron Omacronacute Omacrongrave Oogonek Oslash Oslashacute Otilde Otildeacute Otildedieresis OE P Thorn Q R Racute Rcaron Rcommaaccent Rdotbelow Rmacronbelow S Sacute Sacutedotaccent Scaron Scarondotaccent Scedilla Scircumflex Scommaaccent Sdotaccent Sdotbelow Sdotbelowdotaccent Germandbls T Tbar Tcaron Tcedilla Tcommaaccent Tdotbelow Tmacronbelow U Uacute Ubreve Ucircumflex Udieresis Udotbelow Ugrave Uhungarumlaut Umacron Umacrondieresis Uogonek Uring Utilde Utildeacute V W Wacute Wcircumflex Wdieresis Wgrave X Y Yacute Ycircumflex Ydieresis Ydotaccent Ygrave Ymacron Ytilde Z Zacute Zcaron Zdotaccent Zdotbelow Delta Omega";
name = Uppercase;
}
);
customParameters = (
{
name = fsType;
value = (
);
},
{
name = blueScale;
value = 0.037;
},
{
name = "Use Typo Metrics";
value = 1;
},
{
name = "gasp Table";
value = {
9 = 10;
21 = 7;
65535 = 15;
};
},
{
name = panose;
value = (
2,
11,
3,
4,
4,
4,
2,
0,
2,
3
);
},
{
name = unicodeRanges;
value = (
0,
1
);
},
{
name = codePageRanges;
value = (
"1252"
);
},
{
name = "Use Extension Kerning";
value = 1;
}
);

glyphs = (
{
glyphname = A;
kernLeft = A;
kernRight = A;
lastChange = "2023-09-12 03:35:01 +0000";
layers = (
{
anchors = (
{
name = bottom;
pos = (294,0);
},
{
name = ogonek;
pos = (541,11);
},
{
name = top;
pos = (288,695);
}
);
layerId = "C5490108-C233-4ADF-8B6D-CFE8E3B23812";
shapes = (
{
closed = 1;
nodes = (
(562,29,o),
(559,46,o),
(551,58,c),
(548,75,o),
(541,89,o),
(534,101,c),
(529,116,o),
(522,129,o),
(516,143,c),
(517,156,o),
(511,162,o),
(510,172,c),
(501,182,o),
(492,191,o),
(488,205,cs),
(487,210,o),
(489,215,o),
(486,222,cs),
(483,229,o),
(479,235,o),
(478,244,c),
(471,252,o),
(467,264,o),
(461,273,c),
(457,290,o),
(450,303,o),
(442,317,c),
(433,340,o),
(422,361,o),
(414,386,cs),
(412,392,o),
(409,397,o),
(408,403,c),
(405,409,o),
(400,412,o),
(400,421,c),
(393,430,o),
(389,444,o),
(382,454,c),
(382,467,o),
(376,474,o),
(371,482,cs),
(369,486,o),
(367,491,o),
(363,493,c),
(361,498,o),
(355,512,o),
(356,519,c),
(353,533,o),
(346,544,o),
(337,552,c),
(339,554,o),
(338,561,o),
(338,566,c),
(333,574,o),
(330,584,o),
(326,593,cs),
(325,596,o),
(323,599,o),
(324,604,c),
(313,621,o),
(307,644,o),
(302,667,c),
(294,673,o),
(297,691,o),
(283,692,c),
(270,687,o),
(269,670,o),
(266,657,cs),
(262,644,o),
(256,630,o),
(255,616,c),
(251,613,o),
(229,552,o),
(225,547,c),
(225,539,o),
(220,536,o),
(220,528,c),
(206,510,o),
(185,459,o),
(183,449,cs),
(180,439,o),
(162,383,o),
(155,377,c),
(154,369,o),
(151,356,o),
(149,353,cs),
(147,350,o),
(141,351,o),
(141,345,c),
(140,344,o),
(143,335,o),
(140,331,cs),
(136,324,o),
(126,301,o),
(122,298,c),
(123,290,o),
(110,264,o),
(106,255,c),
(103,239,o),
(92,230,o),
(91,211,c),
(82,202,o),
(81,186,o),
(72,176,c),
(69,160,o),
(64,146,o),
(58,134,c),
(55,132,o),
(56,126,o),
(56,121,c),
(40,106,o),
(38,77,o),
(25,58,c),
(24,47,o),
(22,36,o),
(20,25,c),
(26,15,o),
(41,7,o),
(58,13,c),
(68,40,o),
(78,66,o),
(91,91,c),
(90,97,o),
(91,103,o),
(92,107,cs),
(98,122,o),
(108,133,o),
(111,151,c),
(118,166,o),
(123,182,o),
(125,200,c),
(133,207,o),
(135,218,o),
(138,228,c),
(144,231,o),
(150,234,o),
(157,236,c),
(178,227,o),
(208,236,o),
(231,228,c),
(286,231,o),
(350,228,o),
(403,230,cs),
(410,230,o),
(411,234,o),
(419,233,c),
(423,230,o),
(429,229,o),
(433,225,c),
(435,216,o),
(439,208,o),
(439,197,c),
(449,189,o),
(453,175,o),
(456,161,c),
(461,156,o),
(464,150,o),
(467,143,cs),
(474,122,o),
(480,99,o),
(491,82,c),
(493,67,o),
(501,59,o),
(502,44,c),
(512,34,o),
(514,16,o),
(523,5,c),
(527,5,o),
(530,0,o),
(535,-2,c),
(548,-4,o),
(567,1,o),
(568,13,cs),
(568,16,l)
);
},
{
closed = 1;
nodes = (
(413,289,o),
(404,277,c),
(398,277,o),
(393,277,o),
(389,279,c),
(367,267,o),
(331,279,o),
(305,271,c),
(270,272,o),
(225,270,o),
(190,269,c),
(181,273,o),
(165,271,o),
(157,276,c),
(155,289,o),
(161,294,o),
(165,303,c),
(164,312,o),
(179,348,o),
(187,353,c),
(187,360,o),
(190,364,o),
(192,370,c),
(193,378,o),
(209,411,o),
(212,418,c),
(211,426,o),
(216,430,o),
(215,438,c),
(216,444,o),
(222,444,o),
(222,451,c),
(224,455,o),
(225,460,o),
(228,463,c),
(228,468,o),
(234,483,o),
(236,487,c),
(237,494,o),
(241,498,o),
(244,501,c),
(240,521,o),
(259,550,o),
(261,553,c),
(262,556,o),
(274,577,o),
(273,583,cs),
(272,589,o),
(279,590,o),
(281,596,c),
(294,591,o),
(296,576,o),
(299,561,c),
(301,556,o),
(307,555,o),
(310,550,c),
(311,536,o),
(314,524,o),
(319,514,cs),
(321,508,o),
(326,491,o),
(327,482,c),
(332,472,o),
(337,461,o),
(343,452,c),
(343,437,o),
(352,430,o),
(354,416,c),
(363,402,o),
(367,383,o),
(378,370,c),
(376,366,o),
(379,365,o),
(379,361,c),
(388,345,o),
(392,327,o),
(400,309,cs),
(403,301,o)
);
}
);
width = 588;
},
{
associatedMasterId = "C5490108-C233-4ADF-8B6D-CFE8E3B23812";
layerId = "0AF14CB2-A4CD-497C-852C-6D6CF83A4751";
name = "5 sept. 23 à 05:23";
shapes = (
{
closed = 1;
nodes = (
(556,29,o),
(553,46,o),
(545,58,c),
(542,75,o),
(535,89,o),
(528,101,c),
(523,116,o),
(516,129,o),
(510,143,c),
(511,156,o),
(505,162,o),
(504,172,c),
(495,182,o),
(486,191,o),
(482,205,c),
(481,210,o),
(483,215,o),
(480,222,cs),
(477,229,o),
(473,235,o),
(472,244,c),
(465,252,o),
(461,264,o),
(455,273,c),
(451,290,o),
(444,303,o),
(436,317,c),
(427,340,o),
(416,361,o),
(408,386,cs),
(406,392,o),
(403,397,o),
(402,403,c),
(399,409,o),
(394,412,o),
(394,421,c),
(387,430,o),
(383,444,o),
(376,454,c),
(376,467,o),
(370,474,o),
(365,482,c),
(363,486,o),
(361,491,o),
(357,493,c),
(355,498,o),
(349,512,o),
(350,519,c),
(347,533,o),
(340,544,o),
(331,552,c),
(333,554,o),
(332,561,o),
(332,566,c),
(327,574,o),
(324,584,o),
(320,593,c),
(319,596,o),
(317,599,o),
(318,604,c),
(307,621,o),
(301,644,o),
(296,667,c),
(288,673,o),
(291,691,o),
(277,692,c),
(264,687,o),
(263,670,o),
(260,657,c),
(256,644,o),
(250,630,o),
(249,616,c),
(245,613,o),
(223,552,o),
(219,547,c),
(219,539,o),
(214,536,o),
(214,528,c),
(200,510,o),
(179,459,o),
(177,449,c),
(174,439,o),
(156,383,o),
(149,377,c),
(148,369,o),
(145,356,o),
(143,353,cs),
(141,350,o),
(135,351,o),
(135,345,c),
(134,344,o),
(137,335,o),
(134,331,c),
(130,324,o),
(120,301,o),
(116,298,c),
(117,290,o),
(104,264,o),
(100,255,c),
(97,239,o),
(86,230,o),
(85,211,c),
(76,202,o),
(75,186,o),
(66,176,c),
(63,160,o),
(58,146,o),
(52,134,c),
(49,132,o),
(50,126,o),
(50,121,c),
(34,106,o),
(32,77,o),
(19,58,c),
(18,47,o),
(16,36,o),
(14,25,c),
(20,15,o),
(35,7,o),
(52,13,c),
(62,40,o),
(72,66,o),
(85,91,c),
(84,97,o),
(85,103,o),
(86,107,c),
(92,122,o),
(102,133,o),
(105,151,c),
(112,166,o),
(117,182,o),
(119,200,c),
(127,207,o),
(129,218,o),
(132,228,c),
(138,231,o),
(144,234,o),
(151,236,c),
(172,227,o),
(202,236,o),
(225,228,c),
(280,231,o),
(344,228,o),
(397,230,c),
(404,230,o),
(405,234,o),
(413,233,c),
(417,230,o),
(423,229,o),
(427,225,c),
(429,216,o),
(433,208,o),
(433,197,c),
(443,189,o),
(447,175,o),
(450,161,c),
(455,156,o),
(458,150,o),
(461,143,c),
(468,122,o),
(474,99,o),
(485,82,c),
(487,67,o),
(495,59,o),
(496,44,c),
(506,34,o),
(508,16,o),
(517,5,c),
(521,5,o),
(524,0,o),
(529,-2,c),
(542,-4,o),
(561,1,o),
(562,13,c),
(562,16,l)
);
},
{
closed = 1;
nodes = (
(407,289,o),
(398,277,c),
(392,277,o),
(387,277,o),
(383,279,c),
(361,267,o),
(325,279,o),
(299,271,c),
(264,272,o),
(219,270,o),
(184,269,c),
(175,273,o),
(159,271,o),
(151,276,c),
(149,289,o),
(155,294,o),
(159,303,c),
(158,312,o),
(173,348,o),
(181,353,c),
(181,360,o),
(184,364,o),
(186,370,c),
(187,378,o),
(203,411,o),
(206,418,c),
(205,426,o),
(210,430,o),
(209,438,c),
(210,444,o),
(216,444,o),
(216,451,c),
(218,455,o),
(219,460,o),
(222,463,c),
(222,468,o),
(228,483,o),
(230,487,c),
(231,494,o),
(235,498,o),
(238,501,c),
(234,521,o),
(253,550,o),
(255,553,c),
(256,556,o),
(268,577,o),
(267,583,cs),
(266,589,o),
(273,590,o),
(275,596,c),
(288,591,o),
(290,576,o),
(293,561,c),
(295,556,o),
(301,555,o),
(304,550,c),
(305,536,o),
(308,524,o),
(313,514,c),
(315,508,o),
(320,491,o),
(321,482,c),
(326,472,o),
(331,461,o),
(337,452,c),
(337,437,o),
(346,430,o),
(348,416,c),
(357,402,o),
(361,383,o),
(372,370,c),
(370,366,o),
(373,365,o),
(373,361,c),
(382,345,o),
(386,327,o),
(394,309,c),
(397,301,o)
);
}
);
width = 628;
},
{
associatedMasterId = "C5490108-C233-4ADF-8B6D-CFE8E3B23812";
layerId = "D1580C2B-5BB6-46B1-91BF-F93DAAA5DE86";
width = 13600;
}
);
unicode = 65;
},
{
glyphname = Adieresis;
kernLeft = A;
kernRight = A;
lastChange = "2023-09-12 03:35:01 +0000";
layers = (
{
anchors = (
{
name = top;
pos = (286.5,892);
}
);
layerId = "C5490108-C233-4ADF-8B6D-CFE8E3B23812";
shapes = (
{
closed = 1;
nodes = (
(462,652,o),
(453,666,o),
(450,681,c),
(444,685,o),
(441,692,o),
(433,695,c),
(417,697,o),
(409,692,o),
(402,687,c),
(397,685,o),
(393,684,o),
(389,681,c),
(391,667,o),
(384,660,o),
(384,648,c),
(388,640,o),
(391,633,o),
(397,627,c),
(414,618,o),
(446,620,o),
(457,634,c)
);
},
{
closed = 1;
nodes = (
(125,631,o),
(135,627,o),
(142,621,c),
(150,622,o),
(157,620,o),
(164,620,c),
(178,628,o),
(190,638,o),
(194,657,c),
(184,663,o),
(187,681,o),
(178,687,c),
(161,693,o),
(137,691,o),
(128,679,c),
(127,663,o),
(116,655,o),
(120,638,c)
);
},
{
ref = A;
}
);
width = 588;
},
{
associatedMasterId = "C5490108-C233-4ADF-8B6D-CFE8E3B23812";
layerId = "1AE7C219-FB1A-4B77-8CC6-69F0DE3D8D08";
name = "5 sept. 23 à 05:37";
shapes = (
{
ref = A;
},
{
pos = (-12,195);
ref = dieresiscomb;
}
);
width = 588;
},
{
associatedMasterId = "C5490108-C233-4ADF-8B6D-CFE8E3B23812";
layerId = "D1580C2B-5BB6-46B1-91BF-F93DAAA5DE86";
width = 13600;
}
);
unicode = 196;
},
{
glyphname = AE;
kernLeft = A;
kernRight = E;
lastChange = "2023-09-12 03:35:01 +0000";
layers = (
{
anchors = (
{
name = bottom;
pos = (439,0);
},
{
name = top;
pos = (439,695);
}
);
layerId = "C5490108-C233-4ADF-8B6D-CFE8E3B23812";
shapes = (
{
closed = 1;
nodes = (
(876,39,o),
(871,49,o),
(868,62,c),
(860,66,o),
(852,70,o),
(843,73,c),
(817,67,o),
(775,73,o),
(748,65,c),
(728,66,o),
(713,66,o),
(690,66,cs),
(684,66,o),
(682,62,o),
(676,63,cs),
(655,65,o),
(640,63,o),
(622,66,c),
(617,64,o),
(608,66,o),
(603,63,c),
(594,68,o),
(585,66,o),
(575,63,c),
(567,68,o),
(563,76,o),
(561,87,c),
(554,93,o),
(553,105,o),
(550,114,c),
(546,119,o),
(543,124,o),
(540,129,c),
(531,162,o),
(517,189,o),
(502,216,c),
(500,235,o),
(493,248,o),
(485,260,c),
(478,278,o),
(473,296,o),
(463,311,c),
(459,332,o),
(447,345,o),
(444,366,c),
(460,371,o),
(476,362,o),
(493,361,cs),
(502,361,o),
(512,363,o),
(521,363,cs),
(530,363,o),
(539,360,o),
(548,363,c),
(554,361,o),
(559,359,o),
(565,358,c),
(598,360,o),
(633,364,o),
(666,358,c),
(677,361,o),
(692,359,o),
(702,363,c),
(716,363,o),
(730,364,o),
(734,374,c),
(734,383,o),
(728,391,o),
(724,397,cs),
(720,405,o),
(717,413,o),
(710,418,c),
(702,420,o),
(693,418,o),
(685,418,cs),
(680,418,o),
(675,420,o),
(669,420,cs),
(658,420,o),
(647,416,o),
(636,416,cs),
(631,416,o),
(626,418,o),
(620,418,cs),
(610,418,o),
(598,415,o),
(587,415,cs),
(582,415,o),
(576,416,o),
(570,416,cs),
(552,416,o),
(533,411,o),
(515,412,cs),
(510,412,o),
(505,413,o),
(501,413,cs),
(488,413,o),
(476,409,o),
(464,412,c),
(454,407,o),
(437,408,o),
(425,410,c),
(416,421,o),
(413,439,o),
(406,453,cs),
(400,467,o),
(394,481,o),
(390,498,c),
(384,504,o),
(381,513,o),
(378,520,cs),
(367,545,o),
(356,572,o),
(348,599,c),
(343,605,o),
(339,613,o),
(337,621,cs),
(336,630,o),
(325,637,o),
(330,647,c),
(336,650,o),
(342,645,o),
(348,645,cs),
(351,645,o),
(354,647,o),
(357,647,cs),
(361,646,o),
(365,645,o),
(368,645,cs),
(381,643,o),
(394,639,o),
(408,639,cs),
(416,638,o),
(423,640,o),
(431,640,cs),
(449,640,o),
(467,636,o),
(485,640,c),
(501,635,o),
(518,641,o),
(535,637,c),
(542,641,o),
(553,640,o),
(564,640,cs),
(572,640,o),
(575,633,o),
(584,634,cs),
(599,637,o),
(613,640,o),
(617,654,c),
(615,664,o),
(611,672,o),
(609,681,c),
(603,687,o),
(597,693,o),
(587,695,c),
(553,693,o),
(514,685,o),
(483,692,c),
(461,692,o),
(439,691,o),
(420,688,c),
(391,692,o),
(356,690,o),
(323,691,c),
(314,694,o),
(299,696,o),
(291,691,cs),
(282,684,o),
(281,669,o),
(277,658,cs),
(272,647,o),
(268,635,o),
(266,621,c),
(259,616,o),
(258,605,o),
(252,599,c),
(250,577,o),
(238,565,o),
(234,546,c),
(227,529,o),
(221,511,o),
(212,495,c),
(213,489,o),
(209,486,o),
(211,479,c),
(207,474,o),
(203,469,o),
(200,464,c),
(197,444,o),
(185,433,o),
(182,413,c),
(175,398,o),
(167,383,o),
(163,364,c),
(158,358,o),
(156,350,o),
(151,344,c),
(147,321,o),
(135,301,o),
(127,281,cs),
(123,271,o),
(120,260,o),
(116,249,cs),
(112,239,o),
(105,229,o),
(103,218,c),
(97,210,o),
(94,199,o),
(91,188,c),
(86,177,o),
(79,170,o),
(78,156,c),
(70,148,o),
(70,135,o),
(66,125,cs),
(61,115,o),
(53,105,o),
(53,93,c),
(44,82,o),
(36,70,o),
(36,51,c),
(31,46,o),
(29,40,o),
(26,33,c),
(26,25,o),
(18,23,o),
(20,13,c),
(25,3,o),
(34,-2,o),
(48,-3,c),
(62,0,o),
(70,7,o),
(78,14,c),
(82,21,o),
(84,29,o),
(89,33,c),
(90,41,o),
(86,42,o),
(89,48,c),
(96,52,o),
(96,63,o),
(103,66,c),
(104,77,o),
(112,81,o),
(114,90,c),
(118,91,o),
(115,99,o),
(116,103,c),
(121,108,o),
(123,115,o),
(129,120,c),
(128,128,o),
(131,132,o),
(133,136,c),
(139,137,o),
(135,148,o),
(138,152,cs),
(140,156,o),
(145,157,o),
(148,161,c),
(146,165,o),
(145,169,o),
(146,175,c),
(153,189,o),
(154,209,o),
(163,221,c),
(171,224,o),
(180,226,o),
(187,230,c),
(208,231,o),
(225,239,o),
(245,232,c),
(253,239,o),
(264,234,o),
(278,235,c),
(286,233,o),
(291,229,o),
(302,230,cs),
(312,230,o),
(317,235,o),
(326,237,c),
(356,236,o),
(381,240,o),
(409,241,c),
(418,237,o),
(427,234,o),
(438,232,c),
(447,215,o),
(455,197,o),
(463,178,c),
(463,163,o),
(470,155,o),
(471,141,c),
(478,132,o),
(487,125,o),
(491,114,cs),
(495,106,o),
(496,96,o),
(499,87,cs),
(504,73,o),
(513,61,o),
(515,46,c),
(522,34,o),
(530,24,o),
(535,10,c),
(545,5,o),
(554,-1,o),
(562,-8,c),
(570,-5,o),
(576,3,o),
(587,5,cs),
(599,7,o),
(611,5,o),
(622,3,c),
(639,3,o),
(660,6,o),
(680,7,cs),
(689,7,o),
(698,7,o),
(706,5,c),
(719,9,o),
(741,7,o),
(756,7,cs),
(766,6,o),
(776,9,o),
(786,10,c),
(804,1,o),
(824,5,o),
(844,2,c),
(852,3,o),
(857,8,o),
(865,10,c),
(871,13,o),
(881,14,o),
(882,22,cs),
(882,29,l)
);
},
{
closed = 1;
nodes = (
(408,280,o),
(376,294,o),
(356,286,c),
(349,286,o),
(344,288,o),
(338,289,c),
(324,288,o),
(310,287,o),
(296,287,cs),
(283,287,o),
(272,290,o),
(259,290,cs),
(251,290,o),
(242,287,o),
(233,287,cs),
(229,287,o),
(227,289,o),
(223,289,cs),
(218,289,o),
(210,285,o),
(203,289,c),
(192,289,o),
(185,285,o),
(179,292,c),
(179,297,o),
(181,301,o),
(184,306,cs),
(192,321,o),
(199,342,o),
(212,355,c),
(213,365,o),
(219,369,o),
(218,380,c),
(226,392,o),
(233,403,o),
(236,420,c),
(245,431,o),
(250,446,o),
(252,465,c),
(257,471,o),
(258,481,o),
(261,489,c),
(262,495,o),
(267,497,o),
(271,500,c),
(271,508,o),
(275,512,o),
(278,517,c),
(278,530,l),
(284,534,o),
(282,546,o),
(288,550,c),
(288,564,o),
(291,575,o),
(302,577,c),
(311,570,o),
(315,557,o),
(318,544,c),
(320,539,o),
(324,534,o),
(327,530,c),
(327,518,o),
(332,513,o),
(337,506,c),
(336,500,o),
(338,496,o),
(338,490,c),
(346,475,o),
(359,465,o),
(359,442,c),
(361,435,o),
(367,432,o),
(370,426,c),
(372,407,o),
(385,399,o),
(386,379,c),
(394,371,o),
(395,354,o),
(404,347,c),
(410,330,o),
(418,314,o),
(425,298,c),
(425,296,o),
(426,295,o),
(427,293,c),
(427,290,l)
);
}
);
width = 902;
},
{
associatedMasterId = "C5490108-C233-4ADF-8B6D-CFE8E3B23812";
layerId = "D1580C2B-5BB6-46B1-91BF-F93DAAA5DE86";
width = 20260;
}
);
unicode = 198;
},
{
glyphname = B;
kernLeft = H;
kernRight = B;
lastChange = "2023-09-12 03:35:01 +0000";
layers = (
{
layerId = "C5490108-C233-4ADF-8B6D-CFE8E3B23812";
shapes = (
{
closed = 1;
nodes = (
(349,14,l),
(362,15,o),
(368,23,o),
(382,24,c),
(387,28,o),
(389,36,o),
(396,39,c),
(400,46,o),
(410,46,o),
(412,55,c),
(422,65,o),
(430,78,o),
(440,88,c),
(443,105,o),
(453,114,o),
(459,128,cs),
(466,145,o),
(466,169,o),
(468,191,c),
(464,211,o),
(460,232,o),
(457,254,c),
(453,259,o),
(450,265,o),
(449,274,c),
(444,280,o),
(440,286,o),
(437,293,cs),
(427,315,o),
(407,325,o),
(393,342,c),
(375,348,o),
(365,360,o),
(344,362,c),
(340,367,o),
(329,364,o),
(326,370,c),
(328,379,o),
(337,379,o),
(342,383,cs),
(347,388,o),
(354,391,o),
(360,396,c),
(378,424,ls),
(384,435,o),
(389,446,o),
(396,455,c),
(397,466,o),
(399,476,o),
(402,484,c),
(400,506,o),
(399,525,o),
(396,542,cs),
(390,569,l),
(380,586,l),
(372,605,l),
(367,609,o),
(364,615,o),
(361,621,c),
(345,634,o),
(331,649,o),
(315,662,c),
(303,665,o),
(295,672,o),
(282,675,cs),
(266,678,o),
(252,684,o),
(232,684,cs),
(219,684,ls),
(210,684,o),
(200,686,o),
(191,686,cs),
(179,686,o),
(168,682,o),
(156,682,cs),
(127,682,o),
(97,689,o),
(71,679,c),
(67,669,o),
(62,658,o),
(68,646,c),
(66,641,o),
(64,636,o),
(65,629,cs),
(71,595,o),
(66,555,o),
(68,525,cs),
(68,522,o),
(66,520,o),
(66,519,cs),
(67,511,o),
(71,503,o),
(71,495,cs),
(72,483,o),
(67,470,o),
(71,459,c),
(68,447,o),
(69,435,o),
(70,426,cs),
(71,395,o),
(70,368,o),
(70,339,cs),
(70,333,o),
(71,326,o),
(71,320,cs),
(71,282,o),
(68,238,o),
(74,206,c),
(72,178,o),
(74,142,o),
(71,112,c),
(76,90,o),
(70,76,o),
(73,54,c),
(70,42,o),
(68,24,o),
(70,13,c),
(77,-6,o),
(107,1,o),
(126,-3,c),
(153,4,o),
(185,-4,o),
(215,0,c),
(223,0,o),
(228,-5,o),
(238,-3,cs),
(256,0,o),
(277,0,o),
(293,5,c),
(315,5,l)
);
},
{
closed = 1;
nodes = (
(112,462,o),
(114,471,o),
(114,479,cs),
(113,494,o),
(108,511,o),
(114,528,c),
(114,582,ls),
(114,591,o),
(113,600,o),
(114,610,cs),
(114,618,o),
(112,628,o),
(117,635,c),
(126,639,o),
(140,636,o),
(147,632,c),
(162,634,o),
(180,632,o),
(196,637,c),
(220,633,o),
(249,634,o),
(271,629,c),
(280,624,o),
(287,618,o),
(296,615,c),
(300,607,o),
(308,605,o),
(314,599,cs),
(318,595,o),
(320,589,o),
(323,585,cs),
(327,580,o),
(332,578,o),
(334,574,cs),
(338,568,o),
(340,560,o),
(342,553,cs),
(345,547,o),
(346,540,o),
(350,534,c),
(350,526,o),
(351,519,o),
(353,512,c),
(349,473,l),
(344,465,o),
(340,458,o),
(339,448,c),
(330,440,o),
(325,427,o),
(319,416,c),
(309,407,o),
(297,401,o),
(287,392,c),
(275,390,o),
(263,386,o),
(254,380,c),
(236,378,o),
(224,377,o),
(208,377,c),
(195,391,o),
(188,377,o),
(175,377,cs),
(154,376,o),
(134,377,o),
(117,380,c),
(111,391,o),
(114,404,o),
(114,419,cs),
(114,420,o),
(112,422,o),
(112,424,cs),
(112,454,ls)
);
},
{
closed = 1;
nodes = (
(317,331,o),
(330,322,o),
(347,318,c),
(352,312,o),
(362,309,o),
(367,303,c),
(386,287,l),
(394,274,o),
(401,262,o),
(410,251,c),
(410,240,o),
(415,233,o),
(418,225,c),
(417,217,o),
(418,211,o),
(421,206,c),
(421,164,l),
(419,155,o),
(414,149,o),
(410,140,cs),
(406,132,o),
(405,122,o),
(401,115,cs),
(396,108,o),
(388,103,o),
(385,96,c),
(377,92,o),
(374,85,o),
(366,82,c),
(362,75,o),
(353,73,o),
(345,69,c),
(342,62,o),
(331,62,o),
(325,57,c),
(299,53,o),
(278,54,o),
(252,49,c),
(246,52,o),
(233,48,o),
(227,52,c),
(202,46,o),
(172,54,o),
(147,47,c),
(137,50,o),
(131,50,o),
(120,49,c),
(112,63,o),
(117,80,o),
(117,96,cs),
(117,102,o),
(115,106,o),
(115,112,cs),
(116,135,o),
(119,158,o),
(114,178,c),
(116,191,o),
(113,205,o),
(114,219,cs),
(114,247,o),
(121,278,o),
(114,299,c),
(116,307,o),
(115,317,o),
(115,326,c),
(128,333,o),
(154,335,o),
(170,329,c),
(298,333,l)
);
}
);
width = 488;
},
{
associatedMasterId = "C5490108-C233-4ADF-8B6D-CFE8E3B23812";
layerId = "D1580C2B-5BB6-46B1-91BF-F93DAAA5DE86";
width = 10000;
}
);
unicode = 66;
},
{
glyphname = C;
kernLeft = O;
kernRight = C;
lastChange = "2023-09-12 03:35:01 +0000";
layers = (
{
anchors = (
{
name = bottom;
pos = (402,0);
},
{
name = top;
pos = (402,695);
}
);
layerId = "C5490108-C233-4ADF-8B6D-CFE8E3B23812";
shapes = (
{
closed = 1;
nodes = (
(175,619,o),
(165,605,o),
(152,591,cs),
(144,582,o),
(135,574,o),
(126,566,c),
(119,554,o),
(112,544,o),
(105,533,c),
(96,524,o),
(93,510,o),
(85,500,c),
(81,483,o),
(73,471,o),
(69,455,c),
(66,448,o),
(67,440,o),
(66,432,cs),
(64,425,o),
(60,419,o),
(59,411,cs),
(57,396,o),
(61,380,o),
(55,366,c),
(53,350,o),
(55,332,o),
(50,320,c),
(58,314,o),
(51,302,o),
(55,292,c),
(57,282,o),
(56,269,o),
(61,262,c),
(62,238,o),
(74,225,o),
(77,203,c),
(81,196,o),
(87,192,o),
(91,184,c),
(92,174,o),
(95,164,o),
(99,156,cs),
(102,150,o),
(109,146,o),
(114,142,c),
(116,133,o),
(127,133,o),
(130,126,c),
(131,121,o),
(129,113,o),
(132,110,c),
(135,105,o),
(143,104,o),
(143,96,c),
(153,93,o),
(158,84,o),
(168,80,c),
(174,75,o),
(177,67,o),
(185,63,c),
(188,58,o),
(197,59,o),
(201,55,c),
(207,51,o),
(210,44,o),
(219,42,c),
(224,38,o),
(231,34,o),
(239,31,c),
(252,24,o),
(269,19,o),
(280,9,c),
(298,8,o),
(314,-2,o),
(330,-5,cs),
(336,-6,o),
(343,-4,o),
(349,-5,cs),
(358,-6,o),
(365,-9,o),
(373,-10,cs),
(407,-12,o),
(443,-4,o),
(479,-5,c),
(486,-3,o),
(491,1,o),
(501,0,c),
(516,9,o),
(537,14,o),
(556,20,c),
(569,31,o),
(584,39,o),
(598,47,cs),
(609,54,ls),
(611,55,o),
(613,54,o),
(616,55,c),
(620,60,l),
(628,64,o),
(634,69,o),
(641,74,c),
(646,85,o),
(653,95,o),
(652,112,c),
(645,120,o),
(651,143,o),
(639,147,c),
(621,143,o),
(617,125,o),
(605,115,c),
(588,113,o),
(585,97,o),
(565,98,c),
(558,90,o),
(547,85,o),
(540,77,c),
(530,72,o),
(524,62,o),
(512,58,c),
(500,60,o),
(487,58,o),
(479,58,cs),
(475,58,o),
(472,60,o),
(469,60,cs),
(467,60,o),
(464,57,o),
(461,57,cs),
(457,56,o),
(454,57,o),
(450,57,cs),
(438,55,o),
(425,51,o),
(412,50,cs),
(395,49,o),
(377,55,o),
(359,52,c),
(347,58,o),
(333,62,o),
(315,61,c),
(303,68,o),
(289,73,o),
(274,77,c),
(264,87,o),
(250,92,o),
(237,99,cs),
(225,107,o),
(215,116,o),
(201,123,c),
(188,144,o),
(170,160,o),
(155,180,c),
(155,195,l),
(150,198,o),
(146,202,o),
(143,208,cs),
(140,214,o),
(134,217,o),
(132,224,cs),
(129,242,o),
(117,252,o),
(113,269,cs),
(110,285,o),
(107,300,o),
(105,317,cs),
(103,336,o),
(107,349,o),
(105,366,c),
(109,387,o),
(115,405,o),
(118,427,c),
(126,441,o),
(131,459,o),
(137,473,cs),
(141,482,o),
(146,490,o),
(149,500,c),
(155,503,o),
(158,511,o),
(162,515,c),
(163,517,o),
(165,518,o),
(167,520,cs),
(172,527,o),
(177,535,o),
(181,544,c),
(187,551,o),
(197,554,o),
(200,564,c),
(207,570,o),
(212,578,o),
(220,583,cs),
(252,601,o),
(282,622,o),
(316,637,c),
(340,640,o),
(363,644,o),
(384,649,c),
(402,650,o),
(423,648,o),
(439,651,c),
(444,646,o),
(453,646,o),
(458,641,c),
(469,643,o),
(475,638,o),
(485,638,c),
(494,633,o),
(505,629,o),
(518,627,c),
(532,621,o),
(543,612,o),
(559,608,c),
(566,603,o),
(571,597,o),
(581,596,c),
(589,586,o),
(599,579,o),
(606,569,c),
(620,566,o),
(623,552,o),
(641,553,c),
(649,560,o),
(648,573,o),
(646,585,cs),
(644,596,o),
(639,609,o),
(638,618,c),
(634,623,o),
(630,627,o),
(625,630,cs),
(619,633,o),
(616,639,o),
(608,640,c),
(599,649,o),
(587,654,o),
(578,664,c),
(569,667,o),
(560,671,o),
(553,676,c),
(529,680,o),
(510,689,o),
(488,695,c),
(473,694,o),
(467,701,o),
(453,701,c),
(441,704,o),
(428,705,o),
(416,706,c),
(388,702,o),
(355,702,o),
(329,697,c),
(323,693,o),
(316,690,o),
(308,687,c),
(289,688,o),
(281,677,o),
(261,678,c),
(254,672,o),
(246,666,o),
(239,662,cs),
(232,658,o),
(223,654,o),
(219,651,cs),
(210,646,o),
(204,643,o),
(198,638,cs),
(190,632,ls)
);
}
);
width = 697;
},
{
associatedMasterId = "C5490108-C233-4ADF-8B6D-CFE8E3B23812";
layerId = "D1580C2B-5BB6-46B1-91BF-F93DAAA5DE86";
width = 13040;
}
);
unicode = 67;
},
{
glyphname = D;
kernLeft = H;
kernRight = O;
lastChange = "2023-09-12 03:35:01 +0000";
layers = (
{
anchors = (
{
name = bottom;
pos = (264,0);
},
{
name = center;
pos = (304,348);
},
{
name = top;
pos = (264,695);
}
);
layerId = "C5490108-C233-4ADF-8B6D-CFE8E3B23812";
shapes = (
{
closed = 1;
nodes = (
(541,239,o),
(544,240,o),
(545,243,c),
(545,245,o),
(546,248,o),
(546,251,cs),
(547,255,o),
(549,257,o),
(549,258,cs),
(552,269,o),
(555,282,o),
(556,293,cs),
(556,305,o),
(553,329,o),
(559,334,cs),
(560,335,o),
(557,336,o),
(557,336,c),
(559,356,o),
(556,375,o),
(559,396,cs),
(559,398,o),
(557,398,o),
(557,400,cs),
(556,404,o),
(554,407,o),
(552,410,c),
(553,442,o),
(540,460,o),
(535,487,c),
(518,508,o),
(511,540,o),
(489,556,c),
(478,583,o),
(453,596,o),
(436,618,c),
(427,621,o),
(421,628,o),
(414,632,c),
(404,635,o),
(400,642,o),
(392,646,cs),
(376,655,o),
(359,662,o),
(343,670,c),
(331,671,o),
(321,676,o),
(310,679,cs),
(299,683,o),
(286,683,o),
(277,689,c),
(265,687,o),
(253,689,o),
(243,690,cs),
(227,692,o),
(204,689,o),
(184,694,c),
(165,690,o),
(139,689,o),
(117,690,cs),
(104,691,o),
(93,695,o),
(83,690,cs),
(77,686,o),
(71,682,o),
(67,676,c),
(63,662,o),
(70,648,o),
(70,632,cs),
(70,622,o),
(67,612,o),
(67,602,cs),
(67,590,o),
(69,578,o),
(68,566,cs),
(68,555,o),
(68,543,o),
(70,533,c),
(65,513,o),
(68,492,o),
(68,471,cs),
(69,453,o),
(67,435,o),
(68,418,cs),
(69,390,o),
(68,354,o),
(70,325,cs),
(71,317,o),
(66,314,o),
(65,307,c),
(73,281,o),
(70,252,o),
(70,224,cs),
(70,217,o),
(72,210,o),
(72,203,cs),
(72,194,o),
(70,186,o),
(70,176,cs),
(70,147,o),
(73,116,o),
(73,87,cs),
(74,62,o),
(69,38,o),
(72,14,c),
(81,3,o),
(108,10,o),
(124,6,c),
(143,12,o),
(164,7,o),
(187,8,cs),
(196,8,o),
(207,11,o),
(217,11,cs),
(253,12,o),
(285,12,o),
(314,17,c),
(335,24,o),
(355,31,o),
(371,39,cs),
(383,45,o),
(393,50,o),
(404,54,c),
(409,59,o),
(416,63,o),
(422,68,cs),
(427,73,o),
(432,80,o),
(441,82,c),
(444,89,o),
(453,90,o),
(458,96,c),
(461,104,o),
(468,108,o),
(475,112,c),
(479,124,o),
(486,134,o),
(494,142,c),
(499,153,o),
(507,161,o),
(515,170,c),
(520,190,o),
(530,208,o),
(538,228,c),
(540,236,ls)
);
},
{
closed = 1;
nodes = (
(117,203,o),
(116,223,o),
(116,243,cs),
(116,253,o),
(117,264,o),
(117,274,cs),
(118,284,o),
(117,295,o),
(121,304,c),
(115,321,o),
(117,337,o),
(117,356,cs),
(117,363,o),
(116,369,o),
(116,375,cs),
(116,400,o),
(117,425,o),
(116,451,cs),
(115,463,o),
(116,475,o),
(116,487,cs),
(114,537,o),
(113,588,o),
(114,635,c),
(133,646,o),
(162,641,o),
(191,641,cs),
(203,642,o),
(214,645,o),
(225,645,cs),
(246,645,o),
(265,638,o),
(284,638,c),
(305,631,o),
(326,624,o),
(347,618,c),
(357,611,o),
(369,605,o),
(379,599,cs),
(387,595,o),
(392,589,o),
(398,583,c),
(406,580,o),
(411,573,o),
(418,569,c),
(430,558,o),
(442,547,o),
(452,534,cs),
(462,522,o),
(471,508,o),
(478,493,c),
(489,482,o),
(494,464,o),
(502,449,c),
(505,435,o),
(507,422,o),
(511,410,cs),
(519,377,o),
(524,338,o),
(516,303,cs),
(509,281,o),
(504,256,o),
(494,236,c),
(487,215,o),
(473,200,o),
(464,180,c),
(451,167,o),
(440,153,o),
(428,140,cs),
(411,125,o),
(395,108,o),
(373,98,c),
(366,96,o),
(361,94,o),
(357,90,c),
(346,86,o),
(336,80,o),
(327,74,c),
(313,70,o),
(297,67,o),
(280,63,cs),
(246,56,o),
(199,56,o),
(158,58,cs),
(147,59,o),
(133,53,o),
(121,60,c),
(116,69,o),
(119,80,o),
(119,90,cs),
(119,95,o),
(117,100,o),
(117,106,cs),
(117,119,o),
(117,136,o),
(117,153,cs),
(117,183,ls)
);
}
);
width = 594;
},
{
associatedMasterId = "C5490108-C233-4ADF-8B6D-CFE8E3B23812";
layerId = "D1580C2B-5BB6-46B1-91BF-F93DAAA5DE86";
width = 12960;
}
);
unicode = 68;
},
{
glyphname = Eth;
kernLeft = H;
kernRight = O;
lastChange = "2023-09-12 03:35:01 +0000";
layers = (
{
layerId = "C5490108-C233-4ADF-8B6D-CFE8E3B23812";
shapes = (
{
closed = 1;
nodes = (
(526,239,o),
(529,240,o),
(530,243,c),
(530,245,o),
(531,248,o),
(531,251,cs),
(532,255,o),
(534,257,o),
(534,258,cs),
(537,269,o),
(540,282,o),
(541,293,cs),
(541,305,o),
(538,329,o),
(544,334,cs),
(545,335,o),
(542,336,o),
(542,336,c),
(544,356,o),
(541,375,o),
(544,396,cs),
(544,398,o),
(542,398,o),
(542,400,cs),
(541,404,o),
(539,407,o),
(537,410,c),
(538,442,o),
(525,460,o),
(520,487,c),
(503,508,o),
(496,540,o),
(474,556,c),
(463,583,o),
(438,596,o),
(421,618,c),
(412,621,o),
(406,628,o),
(399,632,c),
(389,635,o),
(385,642,o),
(377,646,cs),
(361,655,o),
(344,662,o),
(328,670,c),
(316,671,o),
(306,676,o),
(295,679,cs),
(284,683,o),
(271,683,o),
(262,689,c),
(250,687,o),
(238,689,o),
(228,690,cs),
(212,692,o),
(189,689,o),
(169,694,c),
(150,690,o),
(124,689,o),
(102,690,cs),
(89,691,o),
(78,695,o),
(68,690,cs),
(62,686,o),
(56,682,o),
(52,676,c),
(48,662,o),
(55,648,o),
(55,632,cs),
(55,622,o),
(52,612,o),
(52,602,cs),
(52,590,o),
(54,578,o),
(53,566,cs),
(53,555,o),
(53,543,o),
(55,533,c),
(50,513,o),
(53,492,o),
(53,471,cs),
(54,453,o),
(52,435,o),
(53,418,cs),
(53,361,l),
(39,361,o),
(26,360,o),
(13,360,c),
(-1,354,o),
(-1,332,o),
(5,326,cs),
(12,321,o),
(22,317,o),
(31,316,cs),
(38,315,o),
(46,316,o),
(54,317,c),
(52,314,o),
(50,311,o),
(50,307,c),
(58,281,o),
(55,252,o),
(55,224,cs),
(55,217,o),
(57,210,o),
(57,203,cs),
(57,194,o),
(55,186,o),
(55,176,cs),
(55,147,o),
(58,116,o),
(58,87,cs),
(59,62,o),
(54,38,o),
(57,14,c),
(66,3,o),
(93,10,o),
(109,6,c),
(128,12,o),
(149,7,o),
(172,8,cs),
(181,8,o),
(192,11,o),
(202,11,cs),
(238,12,o),
(270,12,o),
(299,17,c),
(320,24,o),
(340,31,o),
(356,39,cs),
(368,45,o),
(378,50,o),
(389,54,c),
(394,59,o),
(401,63,o),
(407,68,cs),
(412,73,o),
(417,80,o),
(426,82,c),
(429,89,o),
(438,90,o),
(443,96,c),
(446,104,o),
(453,108,o),
(460,112,c),
(464,124,o),
(471,134,o),
(479,142,c),
(484,153,o),
(492,161,o),
(500,170,c),
(505,190,o),
(515,208,o),
(523,228,c),
(525,236,ls)
);
},
{
closed = 1;
nodes = (
(102,203,o),
(101,223,o),
(101,243,cs),
(101,253,o),
(102,264,o),
(102,274,cs),
(103,284,o),
(102,295,o),
(106,304,c),
(104,309,o),
(102,315,o),
(102,320,c),
(103,320,o),
(104,321,o),
(105,321,cs),
(116,322,o),
(127,318,o),
(138,318,cs),
(156,318,o),
(180,318,o),
(196,325,c),
(207,337,o),
(200,342,o),
(199,350,c),
(196,354,o),
(193,359,o),
(185,361,c),
(170,362,o),
(155,360,o),
(139,361,cs),
(119,361,ls),
(113,361,o),
(107,360,o),
(102,360,c),
(101,365,o),
(101,370,o),
(101,375,cs),
(101,400,o),
(102,425,o),
(101,451,cs),
(100,463,o),
(101,475,o),
(101,487,cs),
(99,537,o),
(98,588,o),
(99,635,c),
(118,646,o),
(147,641,o),
(176,641,cs),
(188,642,o),
(199,645,o),
(210,645,cs),
(231,645,o),
(250,638,o),
(269,638,c),
(290,631,o),
(311,624,o),
(332,618,c),
(342,611,o),
(354,605,o),
(364,599,cs),
(372,595,o),
(377,589,o),
(383,583,c),
(391,580,o),
(396,573,o),
(403,569,c),
(415,558,o),
(427,547,o),
(437,534,cs),
(447,522,o),
(456,508,o),
(463,493,c),
(474,482,o),
(479,464,o),
(487,449,c),
(490,435,o),
(492,422,o),
(496,410,cs),
(504,377,o),
(509,338,o),
(501,303,cs),
(494,281,o),
(489,256,o),
(479,236,c),
(472,215,o),
(458,200,o),
(449,180,c),
(436,167,o),
(425,153,o),
(413,140,cs),
(396,125,o),
(380,108,o),
(358,98,c),
(351,96,o),
(346,94,o),
(342,90,c),
(331,86,o),
(321,80,o),
(312,74,c),
(298,70,o),
(282,67,o),
(265,63,cs),
(231,56,o),
(184,56,o),
(143,58,cs),
(132,59,o),
(118,53,o),
(106,60,c),
(101,69,o),
(104,80,o),
(104,90,cs),
(104,95,o),
(102,100,o),
(102,106,cs),
(102,119,o),
(103,136,o),
(102,153,cs),
(102,183,ls)
);
}
);
width = 614;
},
{
associatedMasterId = "C5490108-C233-4ADF-8B6D-CFE8E3B23812";
layerId = "D1580C2B-5BB6-46B1-91BF-F93DAAA5DE86";
width = 14120;
}
);
unicode = 208;
},
{
glyphname = E;
kernLeft = H;
kernRight = E;
lastChange = "2023-09-12 03:35:01 +0000";
layers = (
{
anchors = (
{
name = bottom;
pos = (245,0);
},
{
name = ogonek;
pos = (344,10);
},
{
name = top;
pos = (225,695);
},
{
name = topleft;
pos = (22,695);
}
);
layerId = "C5490108-C233-4ADF-8B6D-CFE8E3B23812";
shapes = (
{
closed = 1;
nodes = (
(121,226,o),
(119,251,o),
(120,276,cs),
(120,286,o),
(122,295,o),
(121,306,c),
(117,322,o),
(118,341,o),
(121,358,c),
(138,365,o),
(161,356,o),
(179,361,c),
(213,354,o),
(258,360,o),
(290,355,c),
(321,359,o),
(351,356,o),
(378,359,c),
(394,370,l),
(400,381,o),
(400,399,o),
(394,410,c),
(366,430,o),
(321,418,o),
(283,421,c),
(273,416,o),
(257,418,o),
(242,418,c),
(225,423,o),
(204,419,o),
(189,415,c),
(169,423,o),
(136,411,o),
(121,421,c),
(116,432,o),
(124,444,o),
(124,455,c),
(126,465,o),
(117,465,o),
(118,474,cs),
(122,491,o),
(118,507,o),
(118,523,cs),
(118,531,o),
(120,539,o),
(120,547,cs),
(119,555,o),
(118,562,o),
(118,569,cs),
(118,579,o),
(123,588,o),
(123,597,cs),
(123,608,o),
(118,618,o),
(120,629,c),
(123,633,o),
(130,635,o),
(135,637,c),
(142,638,o),
(146,642,o),
(154,641,cs),
(164,641,o),
(171,638,o),
(179,637,c),
(189,641,o),
(204,639,o),
(214,643,c),
(243,643,o),
(273,642,o),
(296,645,c),
(300,641,o),
(308,642,o),
(313,640,c),
(332,646,o),
(350,641,o),
(372,641,c),
(380,647,o),
(391,648,o),
(395,659,cs),
(400,670,o),
(394,681,o),
(391,694,c),
(383,695,o),
(379,701,o),
(369,700,cs),
(338,698,o),
(307,699,o),
(276,698,cs),
(259,698,o),
(243,701,o),
(227,700,cs),
(210,699,o),
(194,696,o),
(178,697,cs),
(160,698,o),
(142,701,o),
(124,701,c),
(110,694,o),
(87,704,o),
(74,697,c),
(70,693,o),
(71,689,o),
(71,684,cs),
(68,662,o),
(69,637,o),
(69,618,cs),
(69,612,o),
(68,606,o),
(67,601,c),
(67,588,o),
(69,575,o),
(69,563,cs),
(69,541,o),
(66,519,o),
(69,501,c),
(63,482,o),
(68,453,o),
(67,435,cs),
(67,430,o),
(66,426,o),
(66,421,cs),
(66,413,o),
(68,405,o),
(69,397,cs),
(70,382,o),
(69,368,o),
(69,356,cs),
(69,349,o),
(71,343,o),
(71,336,cs),
(70,323,o),
(69,310,o),
(69,298,cs),
(70,278,o),
(73,258,o),
(67,244,c),
(67,232,o),
(75,211,o),
(67,197,c),
(73,187,o),
(68,175,o),
(69,161,c),
(68,153,o),
(74,150,o),
(72,142,c),
(70,100,o),
(62,60,o),
(66,20,c),
(73,7,o),
(93,7,o),
(108,2,c),
(119,3,o),
(131,7,o),
(142,8,cs),
(158,9,o),
(177,6,o),
(195,6,cs),
(217,7,o),
(238,8,o),
(260,5,c),
(303,12,o),
(351,1,o),
(391,14,c),
(397,20,o),
(402,30,o),
(402,41,cs),
(401,53,o),
(395,64,o),
(387,69,c),
(378,71,o),
(369,69,o),
(359,69,cs),
(350,70,o),
(340,72,o),
(331,72,cs),
(322,72,o),
(313,71,o),
(304,71,cs),
(297,71,o),
(291,74,o),
(283,74,cs),
(276,74,o),
(267,72,o),
(260,72,cs),
(241,73,o),
(226,75,o),
(211,71,c),
(187,81,o),
(164,62,o),
(142,72,c),
(134,73,o),
(126,68,o),
(121,74,c),
(121,202,ls)
);
}
);
width = 452;
},
{
associatedMasterId = "C5490108-C233-4ADF-8B6D-CFE8E3B23812";
layerId = "D1580C2B-5BB6-46B1-91BF-F93DAAA5DE86";
width = 9900;
}
);
unicode = 69;
},
{
glyphname = Schwa;
kernLeft = O;
kernRight = O;
lastChange = "2023-09-12 03:35:01 +0000";
layers = (
{
layerId = "C5490108-C233-4ADF-8B6D-CFE8E3B23812";
shapes = (
{
closed = 1;
nodes = (
(409,703,ls),
(390,705,o),
(367,707,o),
(343,705,c),
(331,702,o),
(317,701,o),
(305,698,cs),
(293,696,o),
(285,690,o),
(270,690,c),
(259,684,o),
(249,676,o),
(232,675,c),
(227,668,o),
(215,668,o),
(210,660,c),
(202,657,o),
(196,652,o),
(187,649,c),
(172,637,o),
(158,625,o),
(141,615,c),
(135,604,o),
(126,595,o),
(116,588,c),
(112,580,o),
(107,572,o),
(102,564,cs),
(94,554,o),
(82,549,o),
(80,534,c),
(88,523,o),
(98,514,o),
(117,514,c),
(132,518,o),
(137,532,o),
(147,541,cs),
(162,555,l),
(163,563,o),
(173,562,o),
(174,571,c),
(180,574,o),
(187,577,o),
(192,582,cs),
(196,586,o),
(199,592,o),
(206,594,cs),
(213,596,o),
(215,603,o),
(221,605,cs),
(228,608,o),
(232,612,o),
(237,616,c),
(260,623,o),
(279,633,o),
(299,643,c),
(316,646,o),
(334,646,o),
(348,653,c),
(363,654,o),
(379,653,o),
(393,656,c),
(411,651,ls),
(415,650,o),
(421,647,o),
(426,646,cs),
(434,645,o),
(442,646,o),
(450,645,cs),
(458,643,o),
(464,639,o),
(471,637,cs),
(478,634,o),
(484,633,o),
(491,630,c),
(499,631,o),
(498,623,o),
(505,623,cs),
(511,622,o),
(514,618,o),
(521,618,c),
(527,611,o),
(534,608,o),
(543,602,c),
(546,599,l),
(551,597,ls),
(553,596,o),
(555,592,o),
(557,591,cs),
(560,589,o),
(564,590,o),
(567,588,c),
(573,582,ls),
(576,579,o),
(579,579,o),
(581,577,cs),
(586,572,o),
(590,565,o),
(593,558,c),
(600,554,o),
(603,547,o),
(608,542,c),
(620,534,o),
(625,518,o),
(636,509,c),
(643,494,o),
(650,480,o),
(660,468,c),
(662,464,o),
(661,457,o),
(661,451,c),
(671,444,o),
(672,428,o),
(679,418,c),
(680,404,o),
(680,389,o),
(685,378,c),
(684,365,o),
(687,348,o),
(683,337,c),
(686,322,o),
(681,316,o),
(682,299,c),
(681,289,o),
(674,284,o),
(675,271,c),
(673,262,o),
(668,255,o),
(668,244,c),
(647,210,l),
(645,202,o),
(639,198,o),
(636,192,cs),
(634,185,o),
(630,180,o),
(625,176,c),
(620,163,o),
(607,157,o),
(600,147,cs),
(591,137,o),
(581,130,o),
(573,120,c),
(564,117,o),
(558,111,o),
(551,106,cs),
(549,104,o),
(546,103,o),
(545,102,c),
(544,102,o),
(544,99,o),
(543,99,cs),
(542,99,o),
(540,100,o),
(540,99,c),
(537,93,l),
(532,90,l),
(515,83,o),
(498,75,o),
(478,69,cs),
(459,64,o),
(439,61,o),
(420,55,c),
(407,56,o),
(398,54,o),
(389,52,c),
(362,51,o),
(343,56,o),
(319,58,c),
(306,63,o),
(293,67,o),
(278,69,c),
(263,74,o),
(254,84,o),
(237,87,c),
(235,93,o),
(226,94,o),
(220,98,cs),
(214,101,o),
(209,106,o),
(199,106,c),
(188,117,ls),
(187,118,o),
(185,117,o),
(184,118,cs),
(176,126,l),
(171,128,o),
(169,134,o),
(165,137,cs),
(160,140,o),
(157,144,o),
(154,148,cs),
(148,157,o),
(139,163,o),
(133,172,c),
(125,179,o),
(121,189,o),
(114,197,c),
(113,208,o),
(107,215,o),
(105,225,c),
(100,233,o),
(100,246,o),
(95,254,c),
(99,265,o),
(95,283,o),
(97,293,c),
(112,294,o),
(143,285,o),
(167,287,cs),
(226,293,ls),
(261,297,o),
(297,291,o),
(326,288,c),
(359,291,o),
(451,288,o),
(491,288,cs),
(524,288,o),
(504,290,o),
(530,292,c),
(582,284,o),
(666,286,o),
(705,296,c),
(721,308,o),
(705,325,o),
(700,337,c),
(684,342,o),
(655,342,o),
(637,347,c),
(593,343,o),
(546,345,o),
(501,345,cs),
(463,346,o),
(425,346,o),
(391,342,c),
(370,342,o),
(365,347,o),
(347,347,cs),
(327,345,o),
(307,345,o),
(287,345,cs),
(260,344,o),
(233,344,o),
(206,342,c),
(160,347,l),
(135,347,o),
(108,343,o),
(99,342,c),
(84,344,o),
(72,347,o),
(58,344,c),
(45,330,o),
(55,294,o),
(50,274,c),
(51,250,o),
(53,226,o),
(58,205,c),
(66,190,o),
(74,176,o),
(80,159,c),
(82,158,o),
(83,157,o),
(83,154,c),
(89,147,o),
(95,138,o),
(103,132,c),
(108,123,o),
(116,118,o),
(121,109,cs),
(126,101,o),
(135,96,o),
(139,87,cs),
(141,82,o),
(149,82,o),
(151,77,c),
(155,75,o),
(155,68,o),
(162,68,c),
(176,54,o),
(198,48,o),
(212,35,c),
(222,32,o),
(231,26,o),
(240,22,cs),
(250,18,o),
(261,16,o),
(269,9,c),
(274,9,o),
(282,11,o),
(285,8,c),
(293,6,o),
(298,1,o),
(307,-2,c),
(332,-5,o),
(375,-1,o),
(404,-5,c),
(432,1,o),
(461,5,o),
(489,11,c),
(501,18,o),
(515,23,o),
(530,27,c),
(533,32,o),
(541,32,o),
(545,36,c),
(550,39,o),
(555,41,o),
(562,42,c),
(579,59,o),
(600,72,o),
(620,85,c),
(623,91,o),
(629,94,o),
(633,99,c),
(635,106,o),
(639,111,o),
(644,115,cs),
(649,118,o),
(653,124,o),
(657,129,c),
(669,138,o),
(676,153,o),
(683,167,c),
(690,174,o),
(693,184,o),
(699,191,c),
(701,206,o),
(709,215,o),
(710,232,c),
(719,241,o),
(716,260,o),
(726,268,c),
(723,283,o),
(730,299,o),
(731,317,cs),
(731,333,o),
(728,349,o),
(727,366,cs),
(727,381,o),
(726,397,o),
(726,411,c),
(723,418,o),
(723,427,o),
(721,435,cs),
(714,455,o),
(707,476,o),
(702,498,c),
(694,502,o),
(695,515,o),
(688,520,c),
(683,527,o),
(680,536,o),
(675,544,c),
(662,560,o),
(648,576,o),
(636,594,c),
(622,604,o),
(612,618,o),
(598,629,cs),
(585,639,o),
(569,647,o),
(557,659,c),
(544,664,o),
(533,671,o),
(519,676,c),
(508,684,o),
(491,685,o),
(480,692,c),
(465,692,o),
(450,699,o),
(434,701,cs)
);
}
);
width = 781;
},
{
associatedMasterId = "C5490108-C233-4ADF-8B6D-CFE8E3B23812";
layerId = "D1580C2B-5BB6-46B1-91BF-F93DAAA5DE86";
width = 15980;
}
);
unicode = 399;
},
{
glyphname = F;
kernLeft = H;
kernRight = F;
lastChange = "2023-09-12 03:35:01 +0000";
layers = (
{
anchors = (
{
name = bottom;
pos = (209,0);
},
{
name = top;
pos = (209,695);
}
);
layerId = "C5490108-C233-4ADF-8B6D-CFE8E3B23812";
shapes = (
{
closed = 1;
nodes = (
(65,33,o),
(59,30,o),
(60,19,c),
(62,13,o),
(67,11,o),
(69,6,c),
(75,4,o),
(75,-3,o),
(84,-2,cs),
(102,-2,o),
(110,9,o),
(117,20,c),
(119,33,o),
(116,42,o),
(114,54,c),
(115,72,o),
(115,96,o),
(118,117,c),
(112,127,o),
(119,140,o),
(115,153,c),
(117,159,o),
(117,166,o),
(118,172,c),
(111,218,o),
(115,269,o),
(115,318,c),
(113,327,o),
(110,338,o),
(114,348,c),
(120,351,o),
(130,350,o),
(136,353,c),
(156,355,o),
(169,348,o),
(188,351,c),
(211,348,o),
(234,343,o),
(262,344,c),
(271,342,o),
(273,348,o),
(282,347,c),
(295,343,o),
(304,344,o),
(317,344,c),
(328,348,o),
(341,351,o),
(347,361,c),
(352,374,o),
(351,397,o),
(347,407,cs),
(345,412,o),
(341,413,o),
(341,418,c),
(332,423,o),
(317,421,o),
(306,424,c),
(295,419,o),
(283,414,o),
(270,413,cs),
(258,412,o),
(246,417,o),
(237,418,cs),
(234,418,o),
(230,416,o),
(227,416,cs),
(223,416,o),
(221,418,o),
(218,418,cs),
(207,417,o),
(200,412,o),
(189,411,c),
(179,414,o),
(165,415,o),
(151,415,cs),
(138,414,o),
(123,409,o),
(114,416,c),
(112,438,o),
(112,461,o),
(112,485,cs),
(112,510,o),
(115,535,o),
(114,560,cs),
(113,572,o),
(112,584,o),
(112,597,cs),
(112,609,o),
(109,624,o),
(117,634,c),
(136,635,o),
(162,632,o),
(181,637,c),
(186,634,o),
(193,634,o),
(199,632,c),
(213,635,o),
(233,632,o),
(246,629,c),
(260,629,o),
(279,632,o),
(292,626,c),
(301,633,o),
(322,629,o),
(334,634,c),
(341,641,o),
(353,642,o),
(353,656,cs),
(351,672,o),
(349,688,o),
(342,700,c),
(336,701,o),
(332,704,o),
(325,705,cs),
(318,705,o),
(312,703,o),
(304,703,cs),
(275,703,o),
(243,706,o),
(216,701,c),
(210,701,o),
(207,705,o),
(200,705,c),
(163,700,o),
(122,706,o),
(85,706,c),
(79,702,o),
(70,701,o),
(65,695,c),
(55,677,o),
(67,647,o),
(60,627,c),
(64,616,o),
(62,602,o),
(62,593,c),
(61,589,o),
(63,587,o),
(63,583,cs),
(63,577,o),
(62,570,o),
(62,563,cs),
(60,517,o),
(64,474,o),
(65,432,cs),
(65,422,o),
(63,412,o),
(63,402,cs),
(63,394,o),
(65,387,o),
(65,380,cs),
(65,357,o),
(61,333,o),
(62,310,cs),
(62,304,o),
(63,298,o),
(63,292,cs),
(63,282,o),
(61,274,o),
(62,265,cs),
(62,257,o),
(65,248,o),
(65,240,cs),
(65,234,o),
(63,228,o),
(63,222,cs),
(63,208,o),
(65,194,o),
(65,180,cs),
(65,42,ls)
);
}
);
width = 398;
},
{
associatedMasterId = "C5490108-C233-4ADF-8B6D-CFE8E3B23812";
layerId = "D1580C2B-5BB6-46B1-91BF-F93DAAA5DE86";
width = 9440;
}
);
unicode = 70;
},
{
glyphname = G;
kernLeft = O;
kernRight = G;
lastChange = "2023-09-12 03:35:01 +0000";
layers = (
{
anchors = (
{
name = bottom;
pos = (401,0);
},
{
name = top;
pos = (401,695);
}
);
layerId = "C5490108-C233-4ADF-8B6D-CFE8E3B23812";
shapes = (
{
closed = 1;
nodes = (
(331,699,o),
(316,692,o),
(301,692,c),
(290,685,o),
(273,684,o),
(262,676,c),
(248,671,o),
(237,664,o),
(224,659,c),
(212,647,o),
(196,639,o),
(183,629,cs),
(169,618,o),
(159,604,o),
(145,594,c),
(133,576,o),
(119,560,o),
(106,544,c),
(101,536,o),
(98,527,o),
(93,520,c),
(86,515,o),
(87,502,o),
(79,498,c),
(74,476,o),
(67,455,o),
(60,435,cs),
(58,427,o),
(58,418,o),
(55,411,c),
(55,397,o),
(54,381,o),
(54,366,cs),
(53,349,o),
(50,333,o),
(50,317,cs),
(51,299,o),
(58,283,o),
(55,268,c),
(65,260,o),
(62,241,o),
(71,232,c),
(72,215,o),
(80,206,o),
(82,191,c),
(88,184,o),
(91,174,o),
(98,167,c),
(105,153,o),
(112,138,o),
(124,129,c),
(128,124,o),
(132,118,o),
(137,115,cs),
(142,111,o),
(146,106,o),
(148,99,c),
(152,94,o),
(158,91,o),
(161,85,c),
(181,72,o),
(202,59,o),
(219,42,c),
(226,41,o),
(231,39,o),
(236,36,c),
(240,32,o),
(248,32,o),
(251,27,c),
(266,23,o),
(280,18,o),
(292,11,c),
(320,5,o),
(349,1,o),
(377,-5,c),
(406,-1,o),
(449,-5,o),
(474,-2,c),
(483,1,o),
(488,6,o),
(496,8,c),
(499,11,o),
(507,9,o),
(512,9,c),
(520,16,o),
(531,18,o),
(541,22,cs),
(550,26,o),
(559,32,o),
(569,35,c),
(583,48,o),
(605,54,o),
(619,68,c),
(626,68,o),
(626,75,o),
(630,77,c),
(632,82,o),
(640,82,o),
(642,87,cs),
(646,96,o),
(655,101,o),
(660,109,cs),
(665,118,o),
(673,123,o),
(678,132,c),
(686,138,o),
(692,147,o),
(698,154,c),
(698,157,o),
(699,158,o),
(701,159,c),
(707,176,o),
(715,190,o),
(723,205,c),
(728,226,o),
(730,250,o),
(731,274,c),
(726,294,o),
(736,330,o),
(723,344,c),
(709,347,o),
(697,344,o),
(682,342,c),
(667,343,o),
(647,345,o),
(632,342,c),
(614,346,o),
(596,343,o),
(578,347,c),
(571,347,o),
(569,342,o),
(561,342,c),
(532,351,o),
(498,340,o),
(467,347,c),
(460,342,o),
(449,342,o),
(443,337,c),
(441,325,o),
(435,308,o),
(441,296,c),
(456,286,o),
(488,284,o),
(508,292,c),
(530,287,o),
(563,293,o),
(586,288,c),
(613,295,o),
(655,295,o),
(684,293,c),
(686,283,o),
(682,265,o),
(686,254,c),
(681,246,o),
(681,233,o),
(676,225,c),
(674,215,o),
(668,208,o),
(667,197,c),
(660,189,o),
(656,179,o),
(648,172,c),
(642,163,o),
(633,157,o),
(627,148,cs),
(624,144,o),
(621,140,o),
(616,137,cs),
(612,134,o),
(610,128,o),
(605,126,c),
(597,118,ls),
(596,117,o),
(594,118,o),
(593,117,cs),
(582,106,l),
(572,106,o),
(567,101,o),
(561,98,cs),
(555,94,o),
(546,93,o),
(544,87,c),
(527,84,o),
(518,74,o),
(503,69,c),
(488,67,o),
(475,63,o),
(462,58,c),
(438,56,o),
(419,51,o),
(392,52,c),
(383,54,o),
(374,56,o),
(361,55,c),
(342,61,o),
(322,64,o),
(303,69,cs),
(283,75,o),
(266,83,o),
(249,90,c),
(244,93,l),
(241,99,l),
(241,100,o),
(239,99,o),
(238,99,cs),
(237,99,o),
(237,102,o),
(236,102,c),
(235,103,o),
(232,104,o),
(230,106,cs),
(223,111,o),
(217,117,o),
(208,120,c),
(200,130,o),
(190,137,o),
(181,147,cs),
(174,157,o),
(161,163,o),
(156,176,c),
(151,180,o),
(147,185,o),
(145,192,cs),
(142,198,o),
(136,202,o),
(134,210,c),
(113,244,l),
(113,255,o),
(108,262,o),
(106,271,c),
(107,284,o),
(100,289,o),
(99,299,c),
(100,316,o),
(95,322,o),
(98,337,c),
(94,348,o),
(97,365,o),
(96,378,c),
(101,389,o),
(101,404,o),
(102,418,c),
(109,428,o),
(110,444,o),
(120,451,c),
(120,457,o),
(119,464,o),
(121,468,c),
(131,480,o),
(138,494,o),
(145,509,c),
(156,518,o),
(161,534,o),
(173,542,c),
(178,547,o),
(181,554,o),
(188,558,c),
(191,565,o),
(195,572,o),
(200,577,cs),
(202,579,o),
(205,579,o),
(208,582,cs),
(214,588,l),
(217,590,o),
(221,589,o),
(224,591,cs),
(226,592,o),
(228,596,o),
(230,597,cs),
(235,599,l),
(238,602,l),
(247,608,o),
(254,611,o),
(260,618,c),
(267,618,o),
(270,622,o),
(276,623,cs),
(283,623,o),
(282,631,o),
(290,630,c),
(297,633,o),
(303,634,o),
(310,637,cs),
(317,639,o),
(323,643,o),
(331,645,cs),
(339,646,o),
(347,645,o),
(355,646,cs),
(360,647,o),
(366,650,o),
(370,651,cs),
(388,656,l),
(402,653,o),
(418,654,o),
(433,653,c),
(447,646,o),
(465,646,o),
(482,643,c),
(502,633,o),
(521,623,o),
(544,616,c),
(549,612,o),
(553,608,o),
(560,605,cs),
(566,603,o),
(568,596,o),
(575,594,cs),
(582,592,o),
(585,586,o),
(589,582,cs),
(594,577,o),
(601,574,o),
(607,571,c),
(608,562,o),
(618,563,o),
(619,555,c),
(634,541,ls),
(644,532,o),
(649,518,o),
(664,514,c),
(683,514,o),
(693,523,o),
(701,534,c),
(699,549,o),
(687,554,o),
(679,564,cs),
(674,572,o),
(669,580,o),
(665,588,c),
(655,595,o),
(646,604,o),
(640,615,c),
(623,625,o),
(609,637,o),
(594,649,c),
(585,652,o),
(579,657,o),
(571,660,c),
(566,668,o),
(554,668,o),
(549,675,c),
(532,676,o),
(522,684,o),
(511,690,c),
(496,690,o),
(488,696,o),
(476,698,cs),
(464,701,o),
(450,702,o),
(438,705,c),
(414,707,o),
(391,705,o),
(372,703,cs),
(347,701,ls)
);
}
);
width = 781;
},
{
associatedMasterId = "C5490108-C233-4ADF-8B6D-CFE8E3B23812";
layerId = "D1580C2B-5BB6-46B1-91BF-F93DAAA5DE86";
width = 15980;
}
);
unicode = 71;
},
{
glyphname = H;
kernLeft = H;
kernRight = H;
lastChange = "2023-09-12 03:35:01 +0000";
layers = (
{
anchors = (
{
name = bottom;
pos = (320,0);
},
{
name = center;
pos = (320,348);
},
{
name = top;
pos = (320,695);
},
{
name = topleft;
pos = (42,695);
}
);
layerId = "C5490108-C233-4ADF-8B6D-CFE8E3B23812";
shapes = (
{
closed = 1;
nodes = (
(114,631,o),
(112,636,o),
(112,640,cs),
(113,659,o),
(121,680,o),
(108,694,c),
(99,698,o),
(78,699,o),
(70,694,c),
(64,666,o),
(66,622,o),
(68,591,cs),
(68,584,o),
(65,581,o),
(65,574,c),
(70,553,o),
(68,528,o),
(68,505,cs),
(68,469,o),
(69,433,o),
(68,402,cs),
(68,397,o),
(70,392,o),
(70,386,c),
(70,386,o),
(68,382,o),
(68,380,cs),
(68,367,o),
(70,349,o),
(70,339,cs),
(69,322,o),
(67,307,o),
(68,289,cs),
(69,280,o),
(71,272,o),
(71,263,cs),
(73,233,o),
(67,205,o),
(71,180,c),
(70,174,o),
(70,168,o),
(68,162,c),
(71,139,o),
(70,111,o),
(70,88,cs),
(70,65,ls),
(69,50,o),
(63,37,o),
(67,25,cs),
(68,20,o),
(73,17,o),
(75,13,c),
(88,10,o),
(107,7,o),
(116,16,c),
(121,31,o),
(115,52,o),
(117,73,c),
(108,96,o),
(116,123,o),
(117,150,cs),
(118,165,o),
(114,180,o),
(117,194,c),
(116,200,o),
(113,202,o),
(114,210,cs),
(116,233,o),
(112,257,o),
(112,282,cs),
(112,296,o),
(115,312,o),
(116,325,cs),
(116,338,o),
(111,353,o),
(122,361,c),
(132,362,o),
(142,359,o),
(152,358,cs),
(169,357,o),
(185,360,o),
(202,359,cs),
(325,359,l),
(332,360,o),
(338,357,o),
(344,358,cs),
(350,358,o),
(356,361,o),
(363,361,cs),
(377,361,o),
(393,359,o),
(407,359,cs),
(422,359,o),
(436,361,o),
(450,358,c),
(459,362,o),
(472,361,o),
(484,361,cs),
(490,361,o),
(496,363,o),
(502,363,cs),
(507,362,o),
(511,359,o),
(516,358,c),
(523,346,o),
(519,333,o),
(519,320,cs),
(519,315,o),
(521,309,o),
(521,303,cs),
(521,279,l),
(517,269,o),
(519,253,o),
(516,241,c),
(517,233,o),
(522,226,o),
(522,216,c),
(523,210,o),
(521,202,o),
(521,196,cs),
(520,180,o),
(519,169,o),
(522,158,c),
(517,140,o),
(522,126,o),
(519,106,cs),
(518,98,o),
(523,97,o),
(522,90,cs),
(520,79,o),
(522,67,o),
(521,54,cs),
(520,41,o),
(514,28,o),
(519,19,c),
(523,15,o),
(532,10,o),
(540,14,c),
(550,14,o),
(561,13,o),
(566,17,c),
(576,31,o),
(569,55,o),
(566,71,cs),
(563,98,o),
(567,125,o),
(566,151,cs),
(566,162,o),
(565,172,o),
(565,181,cs),
(565,194,o),
(568,213,o),
(568,229,cs),
(568,242,o),
(565,255,o),
(565,268,cs),
(564,278,o),
(566,288,o),
(566,298,cs),
(566,320,o),
(564,343,o),
(563,366,c),
(566,377,o),
(572,385,o),
(571,400,c),
(569,405,o),
(566,409,o),
(563,413,c),
(562,421,o),
(568,423,o),
(566,432,cs),
(562,447,o),
(566,464,o),
(565,481,cs),
(563,521,o),
(565,567,o),
(566,609,c),
(559,634,o),
(570,669,o),
(559,694,c),
(550,700,o),
(532,701,o),
(522,695,c),
(515,685,o),
(516,670,o),
(516,656,cs),
(516,624,o),
(515,590,o),
(516,560,c),
(521,540,o),
(518,514,o),
(518,492,cs),
(518,482,o),
(519,473,o),
(519,464,cs),
(519,442,o),
(521,422,o),
(513,410,c),
(483,404,o),
(448,408,o),
(417,408,c),
(409,409,o),
(406,414,o),
(398,415,c),
(392,414,o),
(390,409,o),
(384,410,c),
(377,413,o),
(363,412,o),
(357,410,c),
(345,416,o),
(327,412,o),
(316,408,c),
(308,410,o),
(303,414,o),
(292,413,cs),
(274,410,o),
(253,409,o),
(234,412,c),
(225,409,o),
(213,408,o),
(202,407,c),
(194,405,o),
(194,412,o),
(187,412,c),
(171,409,o),
(154,402,o),
(136,407,c),
(133,409,o),
(125,403,o),
(120,407,c),
(111,420,o),
(112,450,o),
(116,468,c),
(110,486,o),
(114,502,o),
(114,519,cs),
(114,528,o),
(111,538,o),
(116,547,c),
(111,561,o),
(115,576,o),
(114,593,cs),
(114,627,ls)
);
}
);
width = 636;
},
{
associatedMasterId = "C5490108-C233-4ADF-8B6D-CFE8E3B23812";
layerId = "D1580C2B-5BB6-46B1-91BF-F93DAAA5DE86";
width = 13100;
}
);
unicode = 72;
},
{
glyphname = I;
kernLeft = H;
kernRight = H;
lastChange = "2023-09-12 03:35:01 +0000";
layers = (
{
anchors = (
{
name = bottom;
pos = (89,0);
},
{
name = ogonek;
pos = (81,12);
},
{
name = top;
pos = (88,695);
},
{
name = topleft;
pos = (13,695);
}
);
layerId = "C5490108-C233-4ADF-8B6D-CFE8E3B23812";
shapes = (
{
closed = 1;
nodes = (
(66,622,o),
(68,610,o),
(67,602,cs),
(67,599,o),
(66,595,o),
(66,593,cs),
(66,590,o),
(69,587,o),
(69,585,cs),
(69,582,o),
(67,579,o),
(67,575,cs),
(68,561,o),
(70,547,o),
(69,533,cs),
(68,526,o),
(66,519,o),
(66,512,cs),
(65,502,o),
(69,491,o),
(66,481,c),
(67,472,o),
(70,463,o),
(70,454,cs),
(72,437,o),
(68,425,o),
(67,412,cs),
(66,398,o),
(68,384,o),
(69,369,cs),
(69,354,o),
(67,340,o),
(67,325,cs),
(67,316,o),
(69,306,o),
(69,296,cs),
(69,289,o),
(67,281,o),
(67,273,cs),
(67,258,o),
(70,242,o),
(70,227,cs),
(71,210,o),
(69,194,o),
(69,178,cs),
(69,131,ls),
(69,116,o),
(65,102,o),
(70,88,c),
(66,79,o),
(67,65,o),
(69,54,c),
(68,44,o),
(63,37,o),
(66,28,cs),
(67,23,o),
(69,15,o),
(72,10,c),
(86,6,o),
(105,5,o),
(111,14,c),
(115,36,o),
(111,69,o),
(111,92,cs),
(112,102,o),
(115,111,o),
(115,121,cs),
(114,134,o),
(110,146,o),
(110,158,cs),
(109,189,o),
(116,219,o),
(110,249,c),
(116,261,o),
(111,274,o),
(111,287,c),
(112,293,o),
(113,301,o),
(113,307,cs),
(114,346,o),
(110,385,o),
(110,424,cs),
(110,463,o),
(111,506,o),
(110,542,cs),
(109,570,o),
(111,597,o),
(107,620,c),
(110,641,o),
(116,677,o),
(102,691,c),
(93,693,o),
(79,693,o),
(72,689,c),
(66,678,o),
(66,665,o),
(66,653,cs),
(66,634,ls)
);
}
);
width = 180;
},
{
associatedMasterId = "C5490108-C233-4ADF-8B6D-CFE8E3B23812";
layerId = "D1580C2B-5BB6-46B1-91BF-F93DAAA5DE86";
width = 4400;
}
);
unicode = 73;
},
{
glyphname = J;
kernLeft = J;
kernRight = J;
lastChange = "2023-09-12 03:35:01 +0000";
layers = (
{
anchors = (
{
name = bottom;
pos = (145,0);
},
{
name = top;
pos = (176,695);
}
);
layerId = "C5490108-C233-4ADF-8B6D-CFE8E3B23812";
shapes = (
{
closed = 1;
nodes = (
(157,310,o),
(156,300,o),
(156,292,cs),
(156,284,o),
(159,277,o),
(159,270,cs),
(159,266,o),
(158,263,o),
(157,260,c),
(157,257,o),
(159,254,o),
(159,251,cs),
(159,243,o),
(157,236,o),
(157,229,cs),
(158,203,o),
(166,176,o),
(157,151,c),
(161,147,o),
(161,140,o),
(161,132,c),
(157,104,o),
(162,75,o),
(162,47,cs),
(162,45,o),
(161,44,o),
(161,41,cs),
(161,38,o),
(162,36,o),
(162,35,cs),
(163,16,o),
(161,3,o),
(162,-13,c),
(159,-21,o),
(158,-32,o),
(154,-41,c),
(143,-55,o),
(131,-67,o),
(115,-76,c),
(98,-81,o),
(79,-75,o),
(61,-79,c),
(53,-73,o),
(43,-69,o),
(35,-65,c),
(30,-60,o),
(28,-54,o),
(22,-50,c),
(20,-41,o),
(18,-36,o),
(9,-35,cs),
(1,-33,o),
(-13,-41,o),
(-14,-46,c),
(-18,-54,o),
(-24,-60,o),
(-27,-69,c),
(-23,-72,o),
(-24,-80,o),
(-24,-87,c),
(-18,-96,o),
(-8,-103,o),
(1,-109,c),
(12,-114,o),
(18,-123,o),
(30,-128,c),
(49,-132,o),
(72,-138,o),
(94,-137,cs),
(109,-137,o),
(122,-131,o),
(135,-132,c),
(140,-129,o),
(145,-125,o),
(153,-124,c),
(162,-115,o),
(171,-104,o),
(180,-93,c),
(186,-79,o),
(198,-71,o),
(205,-58,c),
(211,-27,l),
(209,-17,o),
(209,-4,o),
(209,8,c),
(212,9,o),
(209,10,o),
(209,13,cs),
(206,46,ls),
(205,57,o),
(203,68,o),
(203,79,cs),
(203,84,o),
(205,88,o),
(205,93,cs),
(205,98,o),
(203,103,o),
(203,109,cs),
(203,141,o),
(206,173,o),
(205,205,cs),
(204,227,o),
(203,249,o),
(203,271,cs),
(203,294,o),
(202,315,o),
(202,337,cs),
(202,350,o),
(205,363,o),
(205,375,cs),
(205,397,o),
(202,418,o),
(202,440,cs),
(201,452,o),
(203,463,o),
(203,475,cs),
(203,485,o),
(202,497,o),
(202,508,cs),
(201,526,o),
(202,544,o),
(200,561,cs),
(200,569,o),
(200,576,o),
(203,580,c),
(198,596,o),
(201,615,o),
(202,632,cs),
(203,652,o),
(206,672,o),
(198,691,c),
(191,697,o),
(163,698,o),
(156,691,c),
(153,683,o),
(153,674,o),
(153,665,cs),
(153,649,o),
(156,632,o),
(156,616,cs),
(156,609,o),
(154,601,o),
(154,593,cs),
(155,583,o),
(157,573,o),
(157,563,cs),
(158,540,o),
(158,517,o),
(157,497,cs),
(157,468,o),
(158,437,o),
(157,407,c),
(155,406,o),
(159,399,o),
(159,396,cs),
(157,319,ls)
);
}
);
width = 276;
},
{
associatedMasterId = "C5490108-C233-4ADF-8B6D-CFE8E3B23812";
layerId = "D1580C2B-5BB6-46B1-91BF-F93DAAA5DE86";
width = 6020;
}
);
unicode = 74;
},
{
glyphname = K;
kernLeft = H;
kernRight = K;
lastChange = "2023-09-12 03:35:01 +0000";
layers = (
{
anchors = (
{
name = bottom;
pos = (268,0);
},
{
name = top;
pos = (268,695);
}
);
layerId = "C5490108-C233-4ADF-8B6D-CFE8E3B23812";
shapes = (
{
closed = 1;
nodes = (
(72,428,o),
(67,390,o),
(73,353,c),
(69,339,o),
(70,320,o),
(73,306,c),
(67,277,o),
(74,244,o),
(71,211,cs),
(71,206,o),
(69,201,o),
(68,196,cs),
(67,184,o),
(69,172,o),
(68,161,c),
(69,155,o),
(72,153,o),
(71,147,cs),
(69,132,o),
(73,119,o),
(73,106,cs),
(73,90,o),
(68,75,o),
(71,58,c),
(68,50,o),
(64,42,o),
(65,28,c),
(71,13,o),
(87,8,o),
(104,3,c),
(115,8,o),
(124,16,o),
(127,28,c),
(124,40,o),
(120,49,o),
(117,60,c),
(118,76,o),
(116,99,o),
(119,118,c),
(118,126,o),
(115,132,o),
(116,140,c),
(115,149,o),
(116,155,o),
(119,161,c),
(114,181,o),
(112,201,o),
(119,219,c),
(111,247,o),
(117,283,o),
(117,317,c),
(121,318,o),
(121,323,o),
(125,323,c),
(127,326,o),
(128,330,o),
(134,330,c),
(145,327,o),
(148,318,o),
(155,312,c),
(160,304,o),
(167,298,o),
(174,292,c),
(177,287,o),
(178,281,o),
(180,276,c),
(185,274,o),
(191,273,o),
(196,270,c),
(212,254,o),
(221,232,o),
(245,224,c),
(252,216,o),
(257,208,o),
(264,200,cs),
(271,193,o),
(279,187,o),
(283,177,c),
(299,169,o),
(310,154,o),
(324,144,c),
(331,129,o),
(346,122,o),
(354,107,c),
(368,101,o),
(376,89,o),
(387,80,c),
(392,70,o),
(401,63,o),
(407,54,c),
(420,46,o),
(429,35,o),
(439,24,c),
(447,20,o),
(455,16,o),
(461,10,c),
(483,8,o),
(506,3,o),
(517,17,c),
(517,23,o),
(518,30,o),
(514,32,c),
(509,40,o),
(501,48,o),
(494,55,cs),
(484,66,o),
(472,74,o),
(464,84,c),
(461,86,o),
(461,91,o),
(456,92,c),
(450,96,o),
(445,102,o),
(442,109,c),
(428,117,o),
(420,129,o),
(406,136,c),
(399,146,o),
(389,153,o),
(383,164,c),
(360,178,o),
(348,203,o),
(324,216,c),
(323,221,o),
(320,223,o),
(319,227,c),
(314,231,o),
(307,233,o),
(305,240,c),
(301,246,o),
(293,247,o),
(289,252,cs),
(281,263,o),
(270,270,o),
(264,282,c),
(246,291,o),
(238,309,o),
(220,317,c),
(218,322,o),
(215,326,o),
(212,330,c),
(202,334,o),
(195,342,o),
(186,347,c),
(181,356,o),
(169,359,o),
(168,372,c),
(172,378,o),
(180,382,o),
(188,385,c),
(197,397,o),
(212,404,o),
(223,415,cs),
(234,425,o),
(259,447,o),
(261,452,c),
(271,459,o),
(275,471,o),
(287,476,c),
(294,487,o),
(305,494,o),
(314,501,c),
(324,521,o),
(342,533,o),
(358,545,c),
(363,550,o),
(365,557,o),
(369,563,c),
(376,567,o),
(382,573,o),
(390,575,c),
(389,582,o),
(392,586,o),
(395,590,cs),
(400,595,o),
(407,598,o),
(413,602,c),
(416,611,o),
(422,617,o),
(429,621,c),
(434,629,o),
(441,634,o),
(445,642,c),
(457,649,o),
(468,659,o),
(476,670,c),
(478,682,o),
(478,690,o),
(472,697,c),
(455,702,o),
(436,699,o),
(421,694,c),
(412,686,o),
(403,676,o),
(395,667,cs),
(386,657,o),
(376,648,o),
(371,635,c),
(361,628,o),
(351,622,o),
(346,610,c),
(339,608,o),
(335,604,o),
(331,599,c),
(329,593,o),
(321,593,o),
(317,588,c),
(316,580,o),
(312,575,o),
(309,569,c),
(293,562,o),
(285,546,o),
(268,539,c),
(267,533,o),
(263,530,o),
(261,525,c),
(256,522,o),
(253,518,o),
(248,516,c),
(244,512,o),
(242,507,o),
(237,505,c),
(229,497,o),
(224,487,o),
(216,479,c),
(209,475,o),
(201,471,o),
(196,464,c),
(188,459,o),
(184,451,o),
(175,446,c),
(171,438,o),
(167,430,o),
(158,427,c),
(157,420,o),
(151,418,o),
(150,412,c),
(144,408,o),
(138,404,o),
(136,397,c),
(130,396,o),
(125,386,o),
(119,389,c),
(113,398,o),
(116,409,o),
(116,419,cs),
(115,429,o),
(114,439,o),
(114,449,cs),
(117,532,o),
(116,613,o),
(119,692,c),
(114,697,o),
(109,704,o),
(100,705,cs),
(86,705,o),
(81,699,o),
(73,694,c),
(71,659,o),
(72,609,o),
(70,575,cs),
(68,555,o),
(72,536,o),
(73,516,cs),
(73,512,o),
(71,508,o),
(71,505,cs),
(71,495,o),
(73,489,o),
(73,482,cs),
(73,468,ls)
);
}
);
width = 547;
},
{
associatedMasterId = "C5490108-C233-4ADF-8B6D-CFE8E3B23812";
layerId = "D1580C2B-5BB6-46B1-91BF-F93DAAA5DE86";
width = 11940;
}
);
unicode = 75;
},
{
glyphname = L;
kernLeft = H;
kernRight = L;
lastChange = "2023-09-12 03:41:33 +0000";
layers = (
{
anchors = (
{
name = bottom;
pos = (153,0);
},
{
name = center;
pos = (105,512);
},
{
name = top;
pos = (153,695);
},
{
name = topright;
pos = (285,695);
}
);
layerId = "C5490108-C233-4ADF-8B6D-CFE8E3B23812";
shapes = (
{
closed = 1;
nodes = (
(104,507,o),
(106,509,o),
(105,512,c),
(105,518,o),
(103,524,o),
(102,530,cs),
(102,537,o),
(104,543,o),
(104,550,cs),
(104,557,o),
(102,564,o),
(102,571,cs),
(102,585,o),
(104,599,o),
(104,613,cs),
(104,624,o),
(101,635,o),
(101,645,cs),
(101,661,o),
(107,679,o),
(98,694,c),
(91,698,o),
(70,698,o),
(63,694,c),
(52,684,o),
(57,659,o),
(50,646,c),
(54,638,o),
(53,626,o),
(55,616,c),
(48,603,o),
(51,588,o),
(52,572,cs),
(52,561,o),
(51,549,o),
(52,538,cs),
(53,529,o),
(56,521,o),
(57,512,cs),
(57,504,o),
(53,497,o),
(55,489,c),
(55,482,o),
(57,479,o),
(58,473,c),
(57,437,o),
(54,392,o),
(57,352,c),
(53,331,l),
(53,319,o),
(58,305,o),
(58,292,cs),
(58,282,o),
(56,272,o),
(57,262,cs),
(58,240,o),
(57,219,o),
(57,197,cs),
(57,182,o),
(60,167,o),
(60,151,cs),
(60,144,o),
(58,137,o),
(58,129,cs),
(58,113,o),
(60,98,o),
(60,82,cs),
(60,60,o),
(52,37,o),
(61,17,c),
(74,9,o),
(94,11,o),
(112,11,c),
(138,2,o),
(172,12,o),
(198,6,c),
(207,5,o),
(208,12,o),
(216,11,c),
(226,8,o),
(242,10,o),
(255,10,c),
(259,14,o),
(266,15,o),
(271,17,c),
(274,24,o),
(275,33,o),
(277,41,c),
(273,49,o),
(272,59,o),
(263,62,cs),
(248,66,o),
(222,66,o),
(205,63,c),
(198,67,o),
(188,68,o),
(181,73,c),
(171,70,o),
(160,69,o),
(150,66,c),
(143,66,o),
(139,69,o),
(134,69,cs),
(127,70,o),
(120,63,o),
(113,68,c),
(96,86,o),
(111,123,o),
(102,150,c),
(108,160,o),
(104,181,o),
(107,194,c),
(100,225,o),
(107,252,o),
(105,284,cs),
(105,290,o),
(109,293,o),
(109,300,c),
(103,325,o),
(105,353,o),
(105,382,c),
(106,389,o),
(102,393,o),
(102,400,c),
(106,425,o),
(103,451,o),
(104,476,cs),
(104,503,ls)
);
}
);
width = 307;
},
{
associatedMasterId = "C5490108-C233-4ADF-8B6D-CFE8E3B23812";
layerId = "D1580C2B-5BB6-46B1-91BF-F93DAAA5DE86";
width = 8520;
}
);
unicode = 76;
},
{
glyphname = Lslash;
kernLeft = H;
kernRight = L;
lastChange = "2023-09-12 03:35:01 +0000";
layers = (
{
layerId = "C5490108-C233-4ADF-8B6D-CFE8E3B23812";
shapes = (
{
closed = 1;
nodes = (
(132,507,o),
(134,509,o),
(133,512,c),
(133,518,o),
(131,524,o),
(130,530,cs),
(130,537,o),
(132,543,o),
(132,550,cs),
(132,557,o),
(130,564,o),
(130,571,cs),
(130,585,o),
(132,599,o),
(132,613,cs),
(132,624,o),
(129,635,o),
(129,645,cs),
(129,661,o),
(135,679,o),
(126,694,c),
(119,698,o),
(98,698,o),
(91,694,c),
(80,684,o),
(85,659,o),
(78,646,c),
(82,638,o),
(81,626,o),
(83,616,c),
(76,603,o),
(79,588,o),
(80,572,cs),
(80,561,o),
(79,549,o),
(80,538,cs),
(81,529,o),
(84,521,o),
(85,512,cs),
(85,504,o),
(81,497,o),
(83,489,c),
(83,482,o),
(85,479,o),
(86,473,c),
(85,437,o),
(82,392,o),
(85,352,c),
(81,331,l),
(81,324,l),
(79,324,o),
(78,323,o),
(76,323,c),
(60,313,o),
(42,311,o),
(26,300,c),
(14,282,o),
(22,259,o),
(36,242,c),
(46,240,o),
(60,246,o),
(72,244,c),
(85,253,l),
(86,234,o),
(85,216,o),
(85,197,cs),
(85,182,o),
(88,167,o),
(88,151,cs),
(88,144,o),
(86,137,o),
(86,129,cs),
(86,113,o),
(88,98,o),
(88,82,cs),
(88,60,o),
(80,37,o),
(89,17,c),
(102,9,o),
(122,11,o),
(140,11,c),
(166,2,o),
(200,12,o),
(226,6,c),
(235,5,o),
(236,12,o),
(244,11,c),
(254,8,o),
(270,10,o),
(283,10,c),
(287,14,o),
(294,15,o),
(299,17,c),
(302,24,o),
(303,33,o),
(305,41,c),
(301,49,o),
(300,59,o),
(291,62,cs),
(276,66,o),
(250,66,o),
(233,63,c),
(226,67,o),
(216,68,o),
(209,73,c),
(199,70,o),
(188,69,o),
(178,66,c),
(171,66,o),
(167,69,o),
(162,69,cs),
(155,70,o),
(148,63,o),
(141,68,c),
(124,86,o),
(139,123,o),
(130,150,c),
(136,160,o),
(132,181,o),
(135,194,c),
(129,221,o),
(133,245,o),
(133,272,c),
(134,272,o),
(135,273,o),
(136,273,cs),
(145,275,o),
(152,276,o),
(159,281,c),
(174,288,o),
(188,289,o),
(202,294,c),
(222,304,o),
(241,315,o),
(260,323,c),
(259,326,o),
(262,328,o),
(262,330,c),
(266,343,o),
(263,357,o),
(259,362,cs),
(253,370,o),
(246,378,o),
(235,379,c),
(215,374,o),
(200,361,o),
(178,360,c),
(175,352,o),
(166,353,o),
(157,353,c),
(149,345,o),
(140,341,o),
(132,340,c),
(132,353,o),
(133,367,o),
(133,382,c),
(134,389,o),
(130,393,o),
(130,400,c),
(134,425,o),
(131,451,o),
(132,476,cs),
(132,503,ls)
);
}
);
width = 447;
},
{
associatedMasterId = "C5490108-C233-4ADF-8B6D-CFE8E3B23812";
layerId = "D1580C2B-5BB6-46B1-91BF-F93DAAA5DE86";
width = 10360;
}
);
unicode = 321;
},
{
glyphname = M;
kernLeft = M;
kernRight = M;
lastChange = "2023-09-12 03:35:01 +0000";
layers = (
{
anchors = (
{
name = bottom;
pos = (404,0);
},
{
name = top;
pos = (404,695);
}
);
layerId = "C5490108-C233-4ADF-8B6D-CFE8E3B23812";
shapes = (
{
closed = 1;
nodes = (
(760,37,o),
(759,46,o),
(757,54,c),
(759,64,o),
(758,68,o),
(759,80,c),
(756,99,o),
(753,120,o),
(754,139,c),
(752,156,o),
(747,179,o),
(749,197,c),
(741,216,o),
(746,249,o),
(738,268,c),
(737,293,o),
(734,318,o),
(732,342,cs),
(730,367,o),
(726,391,o),
(726,415,c),
(723,419,o),
(723,425,o),
(721,430,c),
(723,446,o),
(718,463,o),
(716,481,cs),
(715,499,o),
(714,517,o),
(710,533,c),
(710,552,l),
(705,573,o),
(703,596,o),
(701,620,cs),
(698,650,o),
(694,677,o),
(693,706,c),
(692,711,o),
(692,717,o),
(686,717,c),
(676,719,o),
(676,709,o),
(671,706,c),
(669,701,o),
(665,698,o),
(664,695,cs),
(662,688,o),
(663,685,o),
(661,679,c),
(656,672,l),
(654,666,o),
(653,660,o),
(650,654,cs),
(642,637,l),
(642,636,o),
(643,634,o),
(642,632,c),
(642,632,o),
(639,630,o),
(639,629,c),
(636,620,ls),
(628,601,o),
(619,585,o),
(611,569,c),
(607,544,o),
(593,530,o),
(586,509,c),
(585,503,o),
(581,500,o),
(579,495,cs),
(577,490,o),
(579,481,o),
(573,479,c),
(570,468,o),
(565,459,o),
(559,451,c),
(555,436,o),
(550,423,o),
(541,413,c),
(536,389,o),
(521,375,o),
(518,348,c),
(509,340,o),
(505,327,o),
(499,315,cs),
(491,299,o),
(486,274,o),
(474,263,c),
(473,246,o),
(462,239,o),
(461,222,c),
(446,203,o),
(440,175,o),
(425,156,c),
(425,144,l),
(412,134,o),
(417,107,o),
(400,103,c),
(390,112,o),
(388,128,o),
(379,137,c),
(378,148,o),
(373,157,o),
(370,164,cs),
(366,173,o),
(364,182,o),
(357,189,c),
(350,208,o),
(341,223,o),
(332,240,cs),
(330,245,o),
(329,252,o),
(327,257,c),
(317,273,o),
(308,290,o),
(303,311,c),
(295,320,o),
(290,334,o),
(283,345,c),
(276,368,o),
(265,385,o),
(256,405,cs),
(246,425,o),
(238,446,o),
(226,464,c),
(224,473,o),
(219,481,o),
(215,489,c),
(213,498,o),
(206,504,o),
(204,514,c),
(194,529,o),
(187,546,o),
(179,563,c),
(175,580,o),
(169,594,o),
(160,605,c),
(157,617,o),
(152,626,o),
(147,635,c),
(143,646,o),
(135,652,o),
(133,665,c),
(127,674,o),
(123,685,o),
(117,694,c),
(113,704,o),
(114,719,o),
(100,720,c),
(94,718,o),
(96,708,o),
(94,702,cs),
(89,680,o),
(91,652,o),
(86,631,c),
(87,594,o),
(80,566,o),
(76,534,cs),
(75,528,o),
(79,526,o),
(78,519,cs),
(71,478,o),
(71,430,o),
(61,393,c),
(61,387,o),
(63,382,o),
(62,375,cs),
(57,356,o),
(60,328,o),
(54,309,c),
(55,304,o),
(57,300,o),
(56,293,cs),
(54,286,o),
(51,280,o),
(50,273,c),
(52,229,o),
(41,201,o),
(42,156,c),
(36,122,o),
(36,82,o),
(32,46,c),
(30,37,o),
(23,28,o),
(26,19,c),
(32,7,o),
(54,7,o),
(70,10,c),
(73,15,o),
(77,19,o),
(80,25,c),
(78,61,o),
(87,85,o),
(86,120,cs),
(86,125,o),
(89,127,o),
(89,132,cs),
(88,146,o),
(91,160,o),
(92,173,cs),
(92,177,o),
(90,180,o),
(91,183,c),
(91,186,o),
(94,188,o),
(94,191,cs),
(94,198,o),
(93,206,o),
(94,213,cs),
(94,219,o),
(96,225,o),
(97,232,cs),
(101,263,o),
(98,299,o),
(105,325,c),
(101,362,o),
(114,397,o),
(113,438,cs),
(113,443,o),
(116,445,o),
(116,451,cs),
(115,485,o),
(120,513,o),
(121,549,cs),
(121,555,o),
(120,562,o),
(127,563,c),
(133,562,o),
(135,553,o),
(136,549,cs),
(140,539,o),
(146,530,o),
(149,520,c),
(156,506,o),
(164,491,o),
(168,473,c),
(180,464,o),
(179,442,o),
(191,432,c),
(191,419,l),
(200,413,o),
(201,399,o),
(209,391,c),
(208,385,o),
(209,381,o),
(210,377,c),
(215,371,o),
(219,365,o),
(223,358,cs),
(234,336,l),
(235,326,o),
(242,323,o),
(243,314,c),
(250,307,o),
(249,298,o),
(253,290,cs),
(256,283,o),
(262,278,o),
(264,271,cs),
(266,266,o),
(267,259,o),
(269,254,c),
(275,246,o),
(281,237,o),
(286,227,cs),
(291,217,o),
(294,205,o),
(300,196,c),
(300,178,o),
(310,169,o),
(316,159,cs),
(318,156,o),
(317,153,o),
(319,150,cs),
(321,146,o),
(323,146,o),
(325,142,c),
(326,131,o),
(332,125,o),
(336,117,c),
(344,111,o),
(345,100,o),
(351,93,c),
(351,87,o),
(354,84,o),
(354,77,c),
(362,69,o),
(367,55,o),
(371,44,c),
(372,43,o),
(371,41,o),
(371,39,c),
(371,39,o),
(374,37,o),
(374,36,c),
(381,24,o),
(389,5,o),
(401,5,cs),
(408,5,o),
(414,12,o),
(418,17,cs),
(423,23,o),
(426,31,o),
(431,36,c),
(433,49,o),
(438,60,o),
(441,73,c),
(454,87,o),
(457,111,o),
(469,126,c),
(468,136,o),
(475,138,o),
(474,148,c),
(479,154,o),
(481,162,o),
(485,169,c),
(487,177,o),
(492,182,o),
(496,189,c),
(496,195,o),
(498,198,o),
(497,205,c),
(506,217,o),
(513,231,o),
(519,246,cs),
(525,262,o),
(536,272,o),
(538,292,c),
(551,306,l),
(551,327,o),
(563,337,o),
(567,355,c),
(573,363,ls),
(575,366,o),
(577,368,o),
(579,372,cs),
(584,381,o),
(586,391,o),
(589,402,c),
(596,415,o),
(601,429,o),
(608,443,cs),
(613,457,o),
(616,474,o),
(627,484,c),
(627,494,o),
(633,499,o),
(634,509,c),
(646,522,o),
(649,543,o),
(660,557,c),
(669,539,o),
(665,517,o),
(669,495,cs),
(674,470,o),
(679,437,o),
(675,408,c),
(677,400,o),
(680,394,o),
(682,386,c),
(682,371,o),
(683,356,o),
(685,342,c),
(685,327,o),
(686,316,o),
(690,301,c),
(690,295,o),
(687,293,o),
(688,287,c),
(692,277,o),
(695,263,o),
(691,251,c),
(697,237,o),
(697,220,o),
(699,203,cs),
(701,178,o),
(703,156,o),
(704,131,c),
(710,112,l),
(704,101,o),
(713,92,o),
(708,79,c),
(719,64,o),
(710,29,o),
(723,17,c),
(734,12,o),
(756,14,o),
(762,22,c),
(762,30,l)
);
}
);
width = 787;
},
{
associatedMasterId = "C5490108-C233-4ADF-8B6D-CFE8E3B23812";
layerId = "D1580C2B-5BB6-46B1-91BF-F93DAAA5DE86";
width = 16260;
}
);
unicode = 77;
},
{
glyphname = N;
kernLeft = H;
kernRight = H;
lastChange = "2023-09-12 03:35:01 +0000";
layers = (
{
anchors = (
{
name = bottom;
pos = (383,0);
},
{
name = top;
pos = (383,695);
}
);
layerId = "C5490108-C233-4ADF-8B6D-CFE8E3B23812";
shapes = (
{
closed = 1;
nodes = (
(460,299,o),
(455,312,o),
(444,320,cs),
(434,329,o),
(424,337,o),
(417,350,c),
(413,355,o),
(406,357,o),
(403,363,c),
(390,378,l),
(362,407,ls),
(353,416,o),
(341,424,o),
(335,437,c),
(322,443,o),
(318,457,o),
(305,464,c),
(288,484,o),
(268,502,o),
(252,523,cs),
(248,529,o),
(240,531,o),
(236,536,c),
(233,542,o),
(227,546,o),
(223,552,cs),
(215,562,o),
(204,571,o),
(193,579,c),
(187,592,o),
(175,600,o),
(167,612,c),
(161,616,o),
(154,619,o),
(151,626,c),
(139,637,o),
(127,650,o),
(118,662,cs),
(114,667,o),
(112,672,o),
(107,675,c),
(103,681,o),
(96,684,o),
(93,691,c),
(87,695,o),
(85,704,o),
(74,703,cs),
(68,702,o),
(69,694,o),
(67,689,c),
(64,685,o),
(66,675,o),
(66,668,cs),
(66,655,o),
(70,641,o),
(69,627,cs),
(68,621,o),
(66,615,o),
(66,609,c),
(64,600,o),
(69,598,o),
(69,591,c),
(67,585,o),
(67,577,o),
(66,571,c),
(69,557,o),
(68,543,o),
(67,528,cs),
(67,512,o),
(69,496,o),
(69,481,cs),
(69,475,o),
(67,469,o),
(67,464,cs),
(67,452,o),
(71,441,o),
(67,430,c),
(73,408,o),
(69,382,o),
(69,356,cs),
(69,289,ls),
(69,283,o),
(71,276,o),
(70,270,c),
(70,233,o),
(70,191,o),
(69,151,cs),
(69,142,o),
(70,133,o),
(70,123,cs),
(70,90,o),
(59,44,o),
(72,21,c),
(84,15,o),
(111,16,o),
(118,25,c),
(123,42,o),
(115,60,o),
(115,80,cs),
(115,88,o),
(116,96,o),
(116,104,cs),
(116,119,o),
(112,135,o),
(116,150,c),
(112,176,o),
(112,219,o),
(113,243,cs),
(113,250,o),
(115,259,o),
(115,266,c),
(111,292,l),
(110,315,o),
(113,337,o),
(113,359,cs),
(113,376,o),
(109,392,o),
(115,405,c),
(109,423,o),
(111,448,o),
(111,465,c),
(112,470,o),
(110,475,o),
(110,479,cs),
(109,513,o),
(110,541,o),
(111,566,c),
(110,571,o),
(108,576,o),
(108,583,c),
(110,589,o),
(108,598,o),
(113,601,c),
(125,593,o),
(131,578,o),
(141,569,cs),
(152,560,o),
(159,546,o),
(171,538,c),
(181,527,o),
(189,514,o),
(201,506,c),
(206,501,o),
(211,496,o),
(214,489,c),
(220,484,o),
(226,480,o),
(230,473,cs),
(234,467,o),
(238,461,o),
(244,457,c),
(249,452,o),
(252,445,o),
(258,441,c),
(266,440,o),
(267,430,o),
(274,427,c),
(277,420,o),
(283,417,o),
(288,412,c),
(291,407,ls),
(295,402,o),
(300,399,o),
(304,396,c),
(307,388,o),
(312,383,o),
(318,378,c),
(324,375,o),
(328,369,o),
(332,363,c),
(339,359,o),
(343,353,o),
(346,345,c),
(361,338,o),
(371,325,o),
(381,314,c),
(389,311,o),
(391,302,o),
(398,298,c),
(401,290,o),
(410,287,o),
(413,279,c),
(423,268,o),
(435,257,o),
(446,246,cs),
(452,241,o),
(458,237,o),
(461,229,c),
(468,224,o),
(474,219,o),
(479,213,cs),
(494,196,l),
(498,188,o),
(508,187,o),
(510,178,c),
(522,168,o),
(534,158,o),
(543,145,c),
(549,139,o),
(557,137,o),
(559,128,c),
(568,125,o),
(569,115,o),
(576,112,c),
(581,105,o),
(587,100,o),
(591,93,cs),
(596,87,o),
(604,83,o),
(610,77,cs),
(613,74,o),
(612,66,o),
(616,63,c),
(623,62,o),
(625,55,o),
(630,52,c),
(637,50,o),
(638,42,o),
(643,38,cs),
(653,32,o),
(665,21,o),
(679,24,c),
(685,33,o),
(680,46,o),
(681,58,cs),
(681,68,o),
(683,79,o),
(682,88,cs),
(676,129,o),
(682,172,o),
(679,216,cs),
(679,223,o),
(683,225,o),
(682,232,cs),
(680,238,o),
(679,245,o),
(679,252,cs),
(677,289,o),
(679,329,o),
(679,371,cs),
(679,438,o),
(677,503,o),
(677,566,cs),
(677,588,o),
(674,607,o),
(679,623,c),
(673,647,o),
(685,680,o),
(673,698,c),
(665,704,o),
(647,705,o),
(638,700,c),
(634,695,o),
(633,688,o),
(630,683,c),
(629,670,o),
(632,661,o),
(633,650,c),
(628,632,o),
(636,613,o),
(630,596,c),
(634,587,o),
(632,574,o),
(635,564,c),
(630,551,o),
(634,540,o),
(635,525,c),
(629,479,o),
(636,430,o),
(633,382,cs),
(633,375,o),
(637,373,o),
(636,366,cs),
(634,343,o),
(638,318,o),
(640,295,c),
(638,289,o),
(637,283,o),
(635,278,c),
(638,271,o),
(636,261,o),
(635,254,c),
(640,239,o),
(638,219,o),
(638,200,cs),
(638,188,o),
(640,174,o),
(640,162,c),
(639,157,o),
(638,151,o),
(638,145,cs),
(638,135,o),
(643,125,o),
(636,118,c),
(632,117,o),
(632,123,o),
(630,125,cs),
(626,128,o),
(621,130,o),
(617,132,c),
(613,136,o),
(611,141,o),
(608,145,cs),
(598,156,o),
(585,166,o),
(576,177,cs),
(573,181,o),
(572,187,o),
(569,191,c),
(567,192,o),
(564,192,o),
(562,194,cs),
(556,199,o),
(552,206,o),
(547,211,cs),
(539,218,o),
(530,224,o),
(526,233,c),
(520,236,o),
(517,242,o),
(510,244,c),
(507,251,o),
(502,255,o),
(498,260,cs),
(471,290,l)
);
}
);
width = 747;
},
{
associatedMasterId = "C5490108-C233-4ADF-8B6D-CFE8E3B23812";
layerId = "D1580C2B-5BB6-46B1-91BF-F93DAAA5DE86";
width = 15100;
}
);
unicode = 78;
},
{
glyphname = Nhookleft;
kernLeft = Nhookleft;
kernRight = Nhookleft;
lastChange = "2023-09-12 03:35:01 +0000";
layers = (
{
layerId = "C5490108-C233-4ADF-8B6D-CFE8E3B23812";
shapes = (
{
ref = N;
},
{
closed = 1;
nodes = (
(68,52,l),
(65,38,l),
(66,38,l),
(66,32,l),
(67,6,l),
(66,0,ls),
(65,-5,o),
(66,-11,o),
(67,-22,cs),
(68,-31,l),
(68,-71,l),
(67,-77,ls),
(65,-88,o),
(65,-96,o),
(67,-107,cs),
(68,-112,l),
(66,-135,l),
(65,-138,ls),
(64,-141,o),
(61,-146,o),
(60,-157,cs),
(59,-165,l),
(45,-178,l),
(44,-178,ls),
(42,-178,o),
(40,-179,o),
(36,-182,c),
(25,-184,l),
(2,-181,l),
(-21,-167,l),
(-20,-167,o),
(-23,-165,o),
(-33,-160,c),
(-33,-158,o),
(-35,-158,o),
(-40,-158,cs),
(-45,-158,o),
(-48,-162,o),
(-49,-171,c),
(-48,-187,l),
(-49,-192,o),
(-48,-196,o),
(-47,-195,c),
(-46,-203,l),
(-46,-204,ls),
(-46,-206,o),
(-42,-207,o),
(-35,-209,c),
(-30,-212,ls),
(-26,-214,o),
(-22,-218,o),
(-12,-223,c),
(-9,-222,o),
(-5,-223,o),
(2,-223,cs),
(5,-223,l),
(14,-224,l),
(16,-224,ls),
(34,-224,o),
(41,-227,o),
(40,-225,c),
(50,-229,o),
(58,-224,o),
(61,-221,c),
(74,-213,l),
(85,-205,l),
(86,-205,l),
(86,-205,o),
(97,-200,o),
(105,-187,cs),
(109,-180,l),
(110,-179,l),
(110,-179,o),
(113,-171,o),
(114,-165,cs),
(116,-157,l),
(118,-142,l),
(118,-129,l),
(119,-112,l),
(118,-97,l),
(120,-83,l),
(119,-72,l),
(118,-53,l),
(119,-27,l),
(119,-26,ls),
(119,-4,o),
(118,0,o),
(118,11,cs),
(118,19,l),
(115,39,l),
(117,51,ls),
(118,59,o),
(116,65,o),
(110,74,c),
(88,89,l),
(88,90,o),
(84,85,o),
(77,76,cs),
(70,68,o),
(67,65,o),
(68,65,c)
);
}
);
width = 747;
},
{
associatedMasterId = "C5490108-C233-4ADF-8B6D-CFE8E3B23812";
layerId = "D1580C2B-5BB6-46B1-91BF-F93DAAA5DE86";
width = 14580;
}
);
unicode = 413;
},
{
glyphname = Eng;
kernLeft = H;
kernRight = J;
lastChange = "2023-09-12 03:35:01 +0000";
layers = (
{
layerId = "C5490108-C233-4ADF-8B6D-CFE8E3B23812";
shapes = (
{
ref = N;
},
{
closed = 1;
nodes = (
(640,175,o),
(639,167,o),
(641,156,cs),
(642,149,l),
(641,137,ls),
(640,128,o),
(640,121,o),
(641,110,cs),
(642,100,l),
(643,77,l),
(642,51,l),
(640,43,ls),
(639,37,o),
(638,32,o),
(639,24,c),
(638,23,ls),
(636,21,o),
(638,15,o),
(642,3,c),
(642,-46,l),
(640,-53,ls),
(638,-59,o),
(638,-64,o),
(639,-71,cs),
(642,-95,l),
(642,-128,l),
(638,-156,l),
(628,-174,l),
(612,-182,l),
(591,-184,l),
(564,-177,l),
(540,-160,l),
(540,-159,o),
(538,-157,o),
(534,-153,cs),
(531,-150,o),
(528,-158,o),
(528,-169,cs),
(527,-193,l),
(525,-193,o),
(524,-195,o),
(525,-198,c),
(525,-201,o),
(526,-203,o),
(528,-203,c),
(532,-207,ls),
(535,-210,o),
(540,-213,o),
(549,-219,c),
(550,-219,l),
(559,-223,o),
(566,-223,o),
(578,-223,cs),
(590,-223,ls),
(601,-223,o),
(609,-224,o),
(619,-221,cs),
(629,-218,l),
(630,-218,o),
(634,-216,o),
(643,-211,cs),
(651,-207,l),
(652,-207,l),
(663,-195,l),
(667,-191,l),
(667,-192,o),
(671,-187,o),
(673,-183,cs),
(677,-176,o),
(679,-170,o),
(680,-161,cs),
(682,-144,l),
(682,-116,l),
(679,-57,l),
(679,-4,l),
(680,4,ls),
(681,13,o),
(681,25,o),
(681,51,cs),
(681,87,l),
(678,80,l),
(680,99,ls),
(681,110,o),
(681,124,o),
(680,153,cs),
(679,174,l),
(677,194,l),
(647,197,l),
(647,194,l),
(644,196,o),
(641,192,o),
(641,185,cs)
);
}
);
width = 747;
},
{
associatedMasterId = "C5490108-C233-4ADF-8B6D-CFE8E3B23812";
layerId = "D1580C2B-5BB6-46B1-91BF-F93DAAA5DE86";
width = 14580;
}
);
unicode = 330;
},
{
glyphname = O;
kernLeft = O;
kernRight = O;
lastChange = "2023-09-12 03:35:01 +0000";
layers = (
{
anchors = (
{
name = bottom;
pos = (404,0);
},
{
name = center;
pos = (404,348);
},
{
name = ogonek;
pos = (435,10);
},
{
name = top;
pos = (404,695);
},
{
name = topleft;
pos = (30,695);
},
{
name = topright;
pos = (777,695);
}
);
layerId = "C5490108-C233-4ADF-8B6D-CFE8E3B23812";
shapes = (
{
closed = 1;
nodes = (
(748,409,o),
(747,427,o),
(745,444,c),
(740,451,o),
(738,460,o),
(735,469,cs),
(726,496,l),
(718,511,o),
(713,530,o),
(701,541,c),
(698,550,o),
(693,557,o),
(688,563,c),
(681,569,o),
(679,579,o),
(672,584,c),
(662,598,o),
(648,608,o),
(638,622,c),
(624,627,o),
(612,635,o),
(603,645,c),
(588,646,o),
(583,656,o),
(571,660,c),
(565,661,o),
(562,666,o),
(554,666,c),
(546,677,o),
(529,679,o),
(515,683,cs),
(507,686,o),
(504,691,o),
(497,694,c),
(487,693,o),
(482,697,o),
(475,699,c),
(466,699,o),
(460,702,o),
(452,704,c),
(423,706,o),
(398,708,o),
(368,705,c),
(350,699,o),
(331,701,o),
(314,696,cs),
(300,691,o),
(289,681,o),
(277,677,c),
(261,677,l),
(238,663,o),
(215,650,o),
(191,638,c),
(165,614,l),
(153,609,o),
(149,595,o),
(138,590,c),
(134,582,o),
(127,576,o),
(122,568,cs),
(117,560,o),
(110,554,o),
(106,545,c),
(95,530,o),
(88,511,o),
(76,496,c),
(73,480,o),
(67,466,o),
(62,450,cs),
(58,434,o),
(57,416,o),
(53,398,c),
(51,371,o),
(50,351,o),
(50,325,c),
(54,309,o),
(55,285,o),
(61,270,cs),
(65,259,o),
(66,248,o),
(68,239,c),
(70,235,o),
(70,230,o),
(72,226,cs),
(75,218,o),
(82,213,o),
(84,206,c),
(87,183,o),
(103,175,o),
(106,154,c),
(113,146,o),
(121,140,o),
(125,130,c),
(133,123,o),
(140,116,o),
(146,106,c),
(161,101,o),
(167,86,o),
(179,76,c),
(191,69,o),
(204,63,o),
(212,51,c),
(222,51,o),
(225,45,o),
(231,42,c),
(236,37,o),
(243,34,o),
(247,27,c),
(260,27,o),
(266,20,o),
(277,16,c),
(287,14,o),
(297,9,o),
(307,5,c),
(324,5,o),
(339,1,o),
(354,-2,c),
(396,-1,o),
(444,-1,o),
(486,2,c),
(497,9,o),
(511,13,o),
(526,16,c),
(538,26,o),
(556,30,o),
(574,34,c),
(580,40,o),
(587,45,o),
(595,50,cs),
(603,54,o),
(607,61,o),
(614,67,c),
(629,70,o),
(633,85,o),
(647,89,c),
(650,98,o),
(659,104,o),
(664,111,cs),
(666,113,o),
(666,116,o),
(668,117,c),
(673,123,o),
(678,127,o),
(683,132,c),
(687,142,o),
(695,148,o),
(699,158,c),
(703,162,o),
(704,168,o),
(707,173,c),
(712,175,o),
(712,182,o),
(716,185,c),
(723,206,o),
(732,224,o),
(742,242,c),
(744,261,o),
(751,274,o),
(754,292,c),
(755,320,o),
(753,350,o),
(753,373,cs),
(753,395,l)
);
},
{
closed = 1;
nodes = (
(706,312,o),
(708,285,o),
(701,262,cs),
(696,248,o),
(687,237,o),
(685,223,c),
(674,214,o),
(671,198,o),
(663,187,c),
(661,181,o),
(656,178,o),
(653,174,cs),
(644,163,o),
(634,150,o),
(625,136,c),
(616,131,o),
(611,123,o),
(603,117,cs),
(595,112,o),
(588,106,o),
(582,98,c),
(567,94,o),
(557,82,o),
(543,76,c),
(520,70,o),
(503,58,o),
(477,54,c),
(454,47,o),
(423,49,o),
(398,45,c),
(386,51,o),
(368,51,o),
(352,53,cs),
(341,54,o),
(326,60,o),
(308,59,c),
(293,65,o),
(279,72,o),
(262,76,c),
(249,87,o),
(235,97,o),
(218,105,c),
(212,110,o),
(208,117,o),
(201,122,cs),
(193,126,o),
(188,132,o),
(184,139,c),
(170,149,o),
(163,164,o),
(150,174,c),
(146,190,o),
(137,201,o),
(128,213,c),
(127,226,o),
(121,233,o),
(119,245,c),
(115,248,o),
(113,253,o),
(114,261,c),
(111,264,o),
(109,270,o),
(106,273,c),
(106,288,o),
(102,299,o),
(98,311,c),
(99,320,o),
(99,328,o),
(98,336,cs),
(98,344,o),
(95,352,o),
(95,360,cs),
(95,367,o),
(97,375,o),
(98,382,cs),
(99,385,o),
(101,388,o),
(102,392,cs),
(102,395,o),
(101,399,o),
(102,403,cs),
(104,416,o),
(108,429,o),
(114,439,c),
(114,447,o),
(118,451,o),
(117,459,c),
(124,470,o),
(126,481,o),
(132,491,cs),
(135,497,ls),
(137,501,o),
(140,503,o),
(143,507,c),
(149,519,ls),
(155,529,o),
(166,538,o),
(171,551,c),
(177,556,o),
(185,561,o),
(190,568,c),
(197,573,o),
(201,581,o),
(207,587,c),
(216,592,o),
(226,597,o),
(232,604,c),
(244,607,o),
(249,616,o),
(256,623,c),
(267,625,o),
(274,630,o),
(281,636,c),
(301,637,o),
(313,644,o),
(325,652,c),
(330,653,o),
(336,652,o),
(341,653,cs),
(345,654,o),
(350,656,o),
(354,656,cs),
(365,657,o),
(378,656,o),
(390,656,cs),
(401,657,o),
(412,660,o),
(422,660,cs),
(440,659,o),
(456,650,o),
(474,652,c),
(489,643,o),
(506,635,o),
(524,630,cs),
(533,627,o),
(539,621,o),
(546,617,cs),
(554,614,o),
(562,611,o),
(568,606,c),
(580,601,o),
(583,587,o),
(597,584,c),
(605,576,o),
(615,569,o),
(625,562,c),
(633,549,o),
(645,540,o),
(652,526,c),
(664,517,o),
(669,501,o),
(679,491,c),
(682,481,o),
(686,472,o),
(691,464,c),
(699,434,o),
(709,406,o),
(712,371,c),
(713,371,o),
(713,371,o),
(713,370,cs),
(713,336,l)
);
}
);
width = 804;
},
{
associatedMasterId = "C5490108-C233-4ADF-8B6D-CFE8E3B23812";
layerId = "D1580C2B-5BB6-46B1-91BF-F93DAAA5DE86";
width = 16720;
}
);
unicode = 79;
},
{
glyphname = Odieresis;
kernLeft = O;
kernRight = O;
lastChange = "2023-09-12 03:35:01 +0000";
layers = (
{
layerId = "C5490108-C233-4ADF-8B6D-CFE8E3B23812";
shapes = (
{
closed = 1;
nodes = (
(703,666,o),
(694,680,o),
(691,695,c),
(685,699,o),
(682,706,o),
(674,709,c),
(658,711,o),
(650,706,o),
(643,701,c),
(638,699,o),
(634,698,o),
(630,695,c),
(632,681,o),
(625,674,o),
(625,662,c),
(629,654,o),
(632,647,o),
(638,641,c),
(655,632,o),
(687,634,o),
(698,648,c)
);
},
{
closed = 1;
nodes = (
(96,645,o),
(106,641,o),
(113,635,c),
(121,636,o),
(128,634,o),
(135,634,c),
(149,642,o),
(161,652,o),
(165,671,c),
(155,677,o),
(158,695,o),
(149,701,c),
(132,707,o),
(108,705,o),
(99,693,c),
(98,677,o),
(87,669,o),
(91,652,c)
);
},
{
ref = O;
}
);
width = 804;
},
{
associatedMasterId = "C5490108-C233-4ADF-8B6D-CFE8E3B23812";
layerId = "0B8FDCD7-4B0C-4C94-863F-079CFF31C2BB";
name = "5 sept. 23 à 09:45";
shapes = (
{
ref = O;
},
{
pos = (104,195);
ref = dieresiscomb;
}
);
width = 804;
},
{
associatedMasterId = "C5490108-C233-4ADF-8B6D-CFE8E3B23812";
layerId = "D1580C2B-5BB6-46B1-91BF-F93DAAA5DE86";
width = 17580;
}
);
unicode = 214;
},
{
glyphname = Oslash;
kernLeft = O;
kernRight = O;
lastChange = "2023-09-12 03:35:01 +0000";
layers = (
{
anchors = (
{
name = bottom;
pos = (404,0);
},
{
name = top;
pos = (404,695);
}
);
layerId = "C5490108-C233-4ADF-8B6D-CFE8E3B23812";
shapes = (
{
closed = 1;
nodes = (
(748,409,o),
(747,427,o),
(745,444,c),
(740,451,o),
(738,460,o),
(735,469,cs),
(726,496,l),
(718,511,o),
(713,530,o),
(701,541,c),
(698,550,o),
(693,557,o),
(688,563,c),
(681,569,o),
(679,579,o),
(672,584,c),
(662,598,o),
(648,608,o),
(638,622,c),
(624,627,o),
(612,635,o),
(603,645,c),
(592,645,o),
(587,650,o),
(580,655,c),
(583,661,l),
(593,674,o),
(603,695,o),
(597,703,c),
(558,715,o),
(554,700,o),
(545,673,c),
(537,678,o),
(525,680,o),
(515,683,cs),
(507,686,o),
(504,691,o),
(497,694,c),
(487,693,o),
(482,697,o),
(475,699,c),
(466,699,o),
(460,702,o),
(452,704,c),
(423,706,o),
(398,708,o),
(368,705,c),
(350,699,o),
(331,701,o),
(314,696,cs),
(300,691,o),
(289,681,o),
(277,677,c),
(261,677,l),
(238,663,o),
(215,650,o),
(191,638,c),
(165,614,l),
(153,609,o),
(149,595,o),
(138,590,c),
(134,582,o),
(127,576,o),
(122,568,cs),
(117,560,o),
(110,554,o),
(106,545,c),
(95,530,o),
(88,511,o),
(76,496,c),
(73,480,o),
(67,466,o),
(62,450,cs),
(58,434,o),
(57,416,o),
(53,398,c),
(51,371,o),
(50,351,o),
(50,325,c),
(54,309,o),
(55,285,o),
(61,270,cs),
(65,259,o),
(66,248,o),
(68,239,c),
(70,235,o),
(70,230,o),
(72,226,cs),
(75,218,o),
(82,213,o),
(84,206,c),
(87,183,o),
(103,175,o),
(106,154,c),
(113,146,o),
(121,140,o),
(125,130,c),
(133,123,o),
(140,116,o),
(146,106,c),
(161,101,o),
(167,86,o),
(179,76,c),
(191,69,o),
(204,63,o),
(212,51,c),
(222,51,o),
(225,45,o),
(231,42,c),
(236,37,o),
(243,34,o),
(247,27,c),
(255,27,o),
(260,24,o),
(265,21,c),
(262,13,l),
(255,2,o),
(249,-10,o),
(246,-21,c),
(241,-29,o),
(235,-36,o),
(231,-45,c),
(232,-60,o),
(226,-63,o),
(246,-62,cs),
(267,-61,o),
(268,-62,o),
(280,-46,c),
(288,-40,o),
(285,-32,o),
(288,-26,c),
(293,-21,o),
(291,-12,o),
(294,-5,cs),
(296,0,o),
(298,4,o),
(299,8,c),
(307,5,l),
(324,5,o),
(339,1,o),
(354,-2,c),
(396,-1,o),
(444,-1,o),
(486,2,c),
(497,9,o),
(511,13,o),
(526,16,c),
(538,26,o),
(556,30,o),
(574,34,c),
(580,40,o),
(587,45,o),
(595,50,cs),
(603,54,o),
(607,61,o),
(614,67,c),
(629,70,o),
(633,85,o),
(647,89,c),
(650,98,o),
(659,104,o),
(664,111,cs),
(666,113,o),
(666,116,o),
(668,117,c),
(673,123,o),
(678,127,o),
(683,132,c),
(687,142,o),
(695,148,o),
(699,158,c),
(703,162,o),
(704,168,o),
(707,173,c),
(712,175,o),
(712,182,o),
(716,185,c),
(723,206,o),
(732,224,o),
(742,242,c),
(744,261,o),
(751,274,o),
(754,292,c),
(755,320,o),
(753,350,o),
(753,373,cs),
(753,395,l)
);
},
{
closed = 1;
nodes = (
(137,501,o),
(140,503,o),
(143,507,c),
(149,519,ls),
(155,529,o),
(166,538,o),
(171,551,c),
(177,556,o),
(185,561,o),
(190,568,c),
(197,573,o),
(201,581,o),
(207,587,c),
(216,592,o),
(226,597,o),
(232,604,c),
(244,607,o),
(249,616,o),
(256,623,c),
(267,625,o),
(274,630,o),
(281,636,c),
(301,637,o),
(313,644,o),
(325,652,c),
(330,653,o),
(336,652,o),
(341,653,cs),
(345,654,o),
(350,656,o),
(354,656,cs),
(365,657,o),
(378,656,o),
(390,656,cs),
(401,657,o),
(412,660,o),
(422,660,cs),
(440,659,o),
(456,650,o),
(474,652,c),
(489,643,o),
(506,635,o),
(524,630,c),
(529,627,l),
(520,607,ls),
(510,580,o),
(495,543,o),
(483,519,cs),
(477,504,ls),
(471,491,o),
(467,480,o),
(461,468,cs),
(455,455,o),
(425,378,o),
(414,368,c),
(411,353,ls),
(407,336,o),
(394,320,o),
(392,304,c),
(380,288,o),
(378,271,o),
(368,255,c),
(358,218,o),
(332,170,o),
(316,134,c),
(310,115,o),
(298,90,o),
(287,68,c),
(279,71,o),
(271,74,o),
(262,76,c),
(249,87,o),
(235,97,o),
(218,105,c),
(212,110,o),
(208,117,o),
(201,122,cs),
(193,126,o),
(188,132,o),
(184,139,c),
(170,149,o),
(163,164,o),
(150,174,c),
(146,190,o),
(137,201,o),
(128,213,c),
(127,226,o),
(121,233,o),
(119,245,c),
(115,248,o),
(113,253,o),
(114,261,c),
(111,264,o),
(109,270,o),
(106,273,c),
(106,288,o),
(102,299,o),
(98,311,c),
(99,320,o),
(99,328,o),
(98,336,cs),
(98,344,o),
(95,352,o),
(95,360,cs),
(95,367,o),
(97,375,o),
(98,382,cs),
(99,385,o),
(101,388,o),
(102,392,cs),
(102,395,o),
(101,399,o),
(102,403,cs),
(104,416,o),
(108,429,o),
(114,439,c),
(114,447,o),
(118,451,o),
(117,459,c),
(124,470,o),
(126,481,o),
(132,491,cs),
(135,497,ls)
);
},
{
closed = 1;
nodes = (
(580,601,o),
(583,587,o),
(597,584,c),
(605,576,o),
(615,569,o),
(625,562,c),
(633,549,o),
(645,540,o),
(652,526,c),
(664,517,o),
(669,501,o),
(679,491,c),
(682,481,o),
(686,472,o),
(691,464,c),
(699,434,o),
(709,406,o),
(712,371,c),
(713,371,o),
(713,371,o),
(713,370,cs),
(713,336,l),
(706,312,o),
(708,285,o),
(701,262,cs),
(696,248,o),
(687,237,o),
(685,223,c),
(674,214,o),
(671,198,o),
(663,187,c),
(661,181,o),
(656,178,o),
(653,174,cs),
(644,163,o),
(634,150,o),
(625,136,c),
(616,131,o),
(611,123,o),
(603,117,cs),
(595,112,o),
(588,106,o),
(582,98,c),
(567,94,o),
(557,82,o),
(543,76,c),
(520,70,o),
(503,58,o),
(477,54,c),
(454,47,o),
(423,49,o),
(398,45,c),
(386,51,o),
(368,51,o),
(352,53,cs),
(344,53,o),
(335,57,o),
(323,58,c),
(325,60,o),
(326,63,o),
(328,66,c),
(331,80,o),
(338,94,o),
(345,109,cs),
(346,111,o),
(344,111,o),
(345,113,cs),
(351,124,o),
(360,137,o),
(361,148,c),
(371,168,o),
(379,190,o),
(389,213,cs),
(397,235,ls),
(400,241,o),
(406,249,o),
(409,255,cs),
(418,272,o),
(422,288,o),
(428,302,cs),
(435,320,o),
(440,336,o),
(451,352,c),
(451,352,o),
(481,416,o),
(479,419,c),
(476,421,o),
(484,429,o),
(484,431,c),
(500,479,o),
(522,521,o),
(545,573,cs),
(548,581,o),
(555,582,o),
(558,592,cs),
(559,598,o),
(561,604,o),
(563,610,c),
(568,606,l)
);
}
);
width = 804;
},
{
associatedMasterId = "C5490108-C233-4ADF-8B6D-CFE8E3B23812";
layerId = "D1580C2B-5BB6-46B1-91BF-F93DAAA5DE86";
width = 16720;
}
);
unicode = 216;
},
{
glyphname = OE;
kernLeft = O;
kernRight = E;
lastChange = "2023-09-12 03:35:01 +0000";
layers = (
{
layerId = "C5490108-C233-4ADF-8B6D-CFE8E3B23812";
shapes = (
{
closed = 1;
nodes = (
(1047,58,o),
(1046,58,o),
(1046,62,c),
(1041,69,o),
(1032,73,o),
(1023,76,c),
(982,73,o),
(944,72,o),
(904,74,c),
(878,68,o),
(845,71,o),
(815,70,cs),
(796,69,o),
(778,65,o),
(763,70,c),
(751,99,o),
(763,137,o),
(758,172,c),
(759,176,o),
(758,182,o),
(761,185,c),
(758,233,o),
(762,291,o),
(759,344,cs),
(759,354,o),
(755,366,o),
(761,375,c),
(774,376,o),
(783,373,o),
(794,371,c),
(804,371,o),
(815,372,o),
(821,368,c),
(827,374,o),
(836,369,o),
(841,369,cs),
(844,369,o),
(848,371,o),
(851,371,cs),
(873,371,o),
(895,370,o),
(915,369,cs),
(922,369,o),
(926,372,o),
(931,372,c),
(947,369,o),
(967,370,o),
(986,371,cs),
(1006,371,o),
(1028,367,o),
(1042,377,c),
(1046,389,o),
(1041,403,o),
(1042,416,c),
(1036,423,o),
(1027,427,o),
(1016,429,c),
(1008,429,o),
(1006,423,o),
(997,424,cs),
(982,426,o),
(966,423,o),
(950,423,cs),
(928,423,o),
(907,426,o),
(887,423,c),
(882,423,o),
(881,427,o),
(874,426,cs),
(836,424,o),
(797,414,o),
(761,423,c),
(755,487,o),
(761,554,o),
(758,620,cs),
(757,630,o),
(754,640,o),
(758,650,c),
(785,654,ls),
(793,655,o),
(797,651,o),
(805,651,cs),
(834,650,o),
(861,656,o),
(881,645,c),
(898,654,o),
(925,646,o),
(947,650,c),
(954,650,o),
(957,645,o),
(964,645,c),
(985,648,o),
(1013,645,o),
(1032,650,c),
(1037,656,o),
(1040,662,o),
(1043,670,c),
(1042,683,o),
(1041,697,o),
(1034,705,c),
(1017,711,o),
(1000,706,o),
(983,705,cs),
(965,704,o),
(947,706,o),
(928,706,c),
(924,707,o),
(920,705,o),
(915,705,cs),
(911,705,o),
(907,706,o),
(903,706,cs),
(902,706,o),
(901,705,o),
(898,705,cs),
(869,708,o),
(840,702,o),
(811,708,c),
(806,704,o),
(795,706,o),
(788,703,c),
(778,706,o),
(769,707,o),
(758,705,c),
(751,708,o),
(742,710,o),
(731,710,c),
(726,705,o),
(716,705,o),
(715,697,c),
(711,688,o),
(715,677,o),
(715,667,cs),
(715,662,o),
(714,656,o),
(714,651,cs),
(714,634,o),
(715,617,o),
(715,601,cs),
(715,565,ls),
(715,554,o),
(718,541,o),
(711,533,c),
(702,542,o),
(698,556,o),
(688,565,c),
(684,578,o),
(672,584,o),
(668,598,c),
(657,602,o),
(652,612,o),
(644,620,cs),
(636,628,o),
(626,633,o),
(621,643,c),
(610,646,o),
(606,654,o),
(594,654,c),
(589,660,o),
(584,666,o),
(578,670,c),
(558,673,o),
(550,688,o),
(528,688,c),
(523,694,o),
(514,696,o),
(507,700,c),
(466,710,l),
(449,708,o),
(433,712,o),
(417,711,cs),
(411,711,o),
(405,708,o),
(398,708,cs),
(394,708,o),
(390,710,o),
(386,710,c),
(361,706,l),
(343,706,o),
(325,707,o),
(313,703,c),
(303,697,o),
(290,693,o),
(279,688,c),
(257,683,l),
(245,676,o),
(236,668,o),
(222,664,c),
(218,660,o),
(216,655,o),
(212,651,c),
(207,649,o),
(202,646,o),
(197,643,c),
(187,633,o),
(175,622,o),
(165,615,cs),
(163,614,o),
(163,613,o),
(162,612,cs),
(150,601,o),
(137,588,o),
(129,576,cs),
(127,573,o),
(127,570,o),
(126,568,cs),
(125,567,o),
(123,567,o),
(123,566,c),
(122,565,o),
(122,563,o),
(121,561,cs),
(118,557,o),
(115,552,o),
(110,549,c),
(105,533,o),
(96,520,o),
(89,506,c),
(79,495,o),
(79,474,o),
(71,462,c),
(68,443,o),
(63,426,o),
(59,408,cs),
(58,402,o),
(62,400,o),
(61,393,c),
(53,375,l),
(54,364,o),
(52,356,o),
(50,347,c),
(51,321,o),
(52,293,o),
(59,270,c),
(63,266,o),
(59,264,o),
(59,259,c),
(64,252,o),
(65,241,o),
(69,234,c),
(69,216,l),
(72,208,o),
(81,205,o),
(85,197,cs),
(87,192,o),
(87,186,o),
(89,182,c),
(103,165,o),
(112,144,o),
(127,129,c),
(131,123,o),
(138,120,o),
(141,114,c),
(147,109,o),
(151,103,o),
(156,98,cs),
(162,91,o),
(171,84,o),
(176,79,cs),
(179,77,ls),
(182,75,o),
(183,71,o),
(186,68,cs),
(191,63,o),
(200,61,o),
(203,54,c),
(217,51,o),
(225,41,o),
(236,35,c),
(254,32,o),
(268,25,o),
(283,19,cs),
(299,14,o),
(318,10,o),
(332,3,c),
(342,5,o),
(347,1,o),
(354,0,c),
(386,1,o),
(412,-1,o),
(438,-3,c),
(456,1,o),
(472,2,o),
(495,3,c),
(505,9,o),
(519,12,o),
(531,16,c),
(534,21,o),
(545,19,o),
(548,24,cs),
(552,29,o),
(560,29,o),
(567,30,c),
(576,39,o),
(589,44,o),
(599,52,c),
(607,53,o),
(611,57,o),
(617,59,cs),
(624,61,o),
(625,69,o),
(629,73,cs),
(630,74,o),
(633,74,o),
(635,76,cs),
(641,82,o),
(646,90,o),
(654,93,c),
(659,100,o),
(665,105,o),
(671,111,c),
(678,115,o),
(682,124,o),
(690,128,c),
(692,138,o),
(697,145,o),
(701,153,cs),
(705,162,o),
(710,170,o),
(715,177,c),
(718,170,o),
(719,161,o),
(722,155,c),
(718,144,o),
(721,131,o),
(722,120,c),
(718,110,o),
(718,97,o),
(715,87,c),
(722,66,o),
(713,48,o),
(711,27,c),
(722,1,o),
(772,17,o),
(799,10,c),
(822,16,o),
(850,9,o),
(871,16,c),
(876,16,o),
(884,12,o),
(885,14,c),
(892,16,o),
(895,16,o),
(901,14,c),
(914,15,o),
(929,13,o),
(939,16,c),
(962,9,o),
(992,10,o),
(1015,3,c),
(1027,9,o),
(1041,14,o),
(1048,25,c),
(1048,55,l)
);
},
{
closed = 1;
nodes = (
(613,126,o),
(607,124,o),
(602,122,c),
(592,111,o),
(578,104,o),
(567,95,c),
(550,86,o),
(530,80,o),
(515,70,c),
(503,68,o),
(492,62,o),
(479,60,cs),
(466,58,o),
(452,58,o),
(439,54,c),
(403,50,o),
(377,60,o),
(338,59,c),
(312,67,o),
(285,75,o),
(266,92,c),
(249,95,l),
(236,105,o),
(219,110,o),
(211,125,c),
(203,127,o),
(197,132,o),
(190,136,c),
(186,141,o),
(183,148,o),
(179,153,c),
(168,163,o),
(159,175,o),
(149,186,c),
(149,191,o),
(145,192,o),
(143,196,c),
(143,201,o),
(141,204,o),
(138,207,c),
(136,214,o),
(132,221,o),
(127,226,c),
(127,232,o),
(125,237,o),
(124,243,c),
(119,248,o),
(118,258,o),
(113,263,c),
(112,273,o),
(109,282,o),
(105,289,c),
(104,301,o),
(101,312,o),
(99,323,c),
(99,340,o),
(98,358,o),
(100,374,c),
(104,386,l),
(105,398,o),
(104,410,o),
(107,420,cs),
(111,429,ls),
(115,437,o),
(117,448,o),
(124,454,c),
(126,465,o),
(129,476,o),
(134,484,cs),
(138,489,ls),
(143,496,o),
(147,503,o),
(151,511,cs),
(159,527,l),
(159,527,o),
(160,529,o),
(160,530,c),
(164,533,o),
(168,535,o),
(171,539,cs),
(174,542,o),
(175,546,o),
(178,549,c),
(178,550,o),
(180,550,o),
(181,550,c),
(185,556,o),
(189,561,o),
(195,566,c),
(208,580,o),
(223,591,o),
(239,602,c),
(244,604,o),
(250,606,o),
(255,607,c),
(262,613,o),
(269,619,o),
(275,626,c),
(286,628,o),
(294,633,o),
(304,635,cs),
(313,638,o),
(323,640,o),
(331,645,c),
(341,644,o),
(349,646,o),
(354,650,c),
(361,651,o),
(362,647,o),
(367,647,c),
(373,650,o),
(382,651,o),
(389,654,c),
(411,653,o),
(441,653,o),
(461,645,c),
(471,648,o),
(477,645,o),
(488,645,c),
(498,640,o),
(505,633,o),
(520,632,c),
(527,628,o),
(534,624,o),
(540,618,c),
(546,619,o),
(551,618,o),
(554,617,c),
(562,612,o),
(567,606,o),
(573,601,c),
(581,597,o),
(589,595,o),
(595,591,cs),
(600,588,o),
(602,583,o),
(605,577,cs),
(608,573,o),
(615,572,o),
(617,568,c),
(622,565,o),
(623,559,o),
(627,557,c),
(635,550,o),
(643,544,o),
(649,536,cs),
(652,533,o),
(651,526,o),
(654,522,cs),
(662,513,o),
(667,502,o),
(677,495,c),
(680,484,o),
(686,477,o),
(692,468,c),
(694,457,o),
(698,448,o),
(703,438,c),
(703,431,o),
(704,431,o),
(703,424,c),
(709,413,o),
(714,400,o),
(715,383,c),
(717,384,o),
(717,383,o),
(717,382,cs),
(717,354,o),
(717,327,o),
(714,303,c),
(709,297,o),
(710,287,o),
(704,282,c),
(706,272,o),
(701,268,o),
(701,259,c),
(696,250,o),
(693,238,o),
(688,229,cs),
(684,219,o),
(678,211,o),
(674,200,c),
(666,190,o),
(657,180,o),
(652,167,c),
(638,161,o),
(634,144,o),
(624,134,cs),
(623,133,o),
(621,134,o),
(619,133,c),
(617,129,l)
);
}
);
width = 1098;
},
{
associatedMasterId = "C5490108-C233-4ADF-8B6D-CFE8E3B23812";
layerId = "D1580C2B-5BB6-46B1-91BF-F93DAAA5DE86";
width = 22720;
}
);
metricLeft = O;
metricRight = E;
unicode = 338;
},
{
glyphname = P;
kernLeft = H;
kernRight = P;
lastChange = "2023-09-12 03:35:01 +0000";
layers = (
{
anchors = (
{
name = bottom;
pos = (215,0);
},
{
name = top;
pos = (215,695);
}
);
layerId = "C5490108-C233-4ADF-8B6D-CFE8E3B23812";
shapes = (
{
closed = 1;
nodes = (
(145,346,o),
(159,347,cs),
(168,348,o),
(175,351,o),
(185,351,cs),
(203,352,o),
(218,347,o),
(233,348,cs),
(248,349,o),
(261,355,o),
(277,354,c),
(287,361,o),
(301,364,o),
(313,370,cs),
(322,376,o),
(330,383,o),
(338,390,cs),
(343,394,o),
(345,399,o),
(349,403,c),
(355,406,o),
(357,411,o),
(362,414,c),
(366,426,o),
(375,436,o),
(381,445,c),
(388,478,o),
(399,508,o),
(396,546,c),
(390,561,o),
(386,577,o),
(383,595,c),
(376,606,o),
(371,618,o),
(364,628,cs),
(357,639,o),
(348,648,o),
(340,658,c),
(338,658,o),
(336,660,o),
(336,661,c),
(320,669,o),
(306,679,o),
(288,685,c),
(272,693,o),
(251,697,o),
(233,704,c),
(195,698,o),
(159,700,o),
(118,698,c),
(106,700,o),
(87,702,o),
(76,700,c),
(66,692,o),
(68,674,o),
(65,660,c),
(66,654,o),
(70,651,o),
(69,643,cs),
(67,596,o),
(71,550,o),
(71,504,cs),
(71,453,o),
(68,406,o),
(69,354,cs),
(69,337,o),
(72,319,o),
(72,301,cs),
(72,275,o),
(72,249,o),
(69,224,c),
(73,164,o),
(68,91,o),
(65,28,c),
(73,19,o),
(90,13,o),
(106,17,c),
(109,21,o),
(112,24,o),
(116,27,c),
(115,47,o),
(115,69,o),
(111,87,c),
(113,95,o),
(114,114,o),
(111,123,c),
(115,138,o),
(115,156,o),
(115,173,cs),
(114,183,o),
(115,193,o),
(115,203,cs),
(114,212,o),
(111,221,o),
(111,230,cs),
(111,238,o),
(113,246,o),
(113,254,cs),
(113,270,o),
(108,286,o),
(108,299,cs),
(108,307,o),
(110,316,o),
(111,323,cs),
(113,330,o),
(111,339,o),
(118,343,cs),
(127,349,o)
);
},
{
closed = 1;
nodes = (
(315,433,o),
(302,426,o),
(296,414,c),
(286,411,o),
(279,404,o),
(271,400,c),
(260,398,o),
(251,395,o),
(242,394,cs),
(212,391,o),
(168,387,o),
(138,389,cs),
(131,390,o),
(124,388,o),
(119,392,c),
(115,398,o),
(116,410,o),
(113,418,c),
(119,435,o),
(112,460,o),
(118,479,c),
(119,485,o),
(114,487,o),
(115,493,cs),
(124,527,o),
(109,570,o),
(118,605,c),
(116,623,o),
(112,643,o),
(120,656,c),
(134,660,o),
(150,655,o),
(164,656,cs),
(170,656,o),
(175,657,o),
(181,657,cs),
(191,657,o),
(201,654,o),
(211,654,cs),
(221,654,o),
(231,657,o),
(241,654,cs),
(244,653,o),
(246,650,o),
(249,649,cs),
(257,645,o),
(265,646,o),
(273,644,cs),
(280,642,o),
(285,638,o),
(292,636,c),
(306,621,o),
(323,607,o),
(334,589,c),
(336,582,o),
(337,572,o),
(340,567,cs),
(343,560,o),
(344,552,o),
(347,546,c),
(347,532,o),
(346,518,o),
(347,507,cs),
(347,505,o),
(348,504,o),
(348,502,cs),
(347,490,o),
(339,481,o),
(340,469,c),
(336,465,o),
(333,458,o),
(333,450,c),
(323,441,ls)
);
}
);
width = 427;
},
{
associatedMasterId = "C5490108-C233-4ADF-8B6D-CFE8E3B23812";
layerId = "D1580C2B-5BB6-46B1-91BF-F93DAAA5DE86";
width = 9760;
}
);
unicode = 80;
},
{
glyphname = Thorn;
kernLeft = H;
kernRight = Thorn;
lastChange = "2023-09-12 03:35:01 +0000";
layers = (
{
layerId = "C5490108-C233-4ADF-8B6D-CFE8E3B23812";
shapes = (
{
closed = 1;
nodes = (
(135,582,o),
(191,580,o),
(229,586,c),
(247,579,o),
(268,575,o),
(284,567,c),
(302,561,o),
(316,551,o),
(332,543,c),
(332,542,o),
(334,540,o),
(336,540,c),
(344,530,o),
(353,521,o),
(360,510,cs),
(367,500,o),
(372,488,o),
(379,477,c),
(382,459,o),
(386,443,o),
(392,428,c),
(395,390,o),
(384,360,o),
(377,327,c),
(371,318,o),
(362,308,o),
(358,296,c),
(353,293,o),
(351,288,o),
(345,285,c),
(341,281,o),
(339,276,o),
(334,272,cs),
(326,265,o),
(318,258,o),
(309,252,cs),
(297,246,o),
(283,243,o),
(273,236,c),
(257,237,o),
(244,231,o),
(229,230,cs),
(214,229,o),
(199,234,o),
(181,233,cs),
(171,233,o),
(164,230,o),
(155,229,cs),
(141,228,o),
(103,231,o),
(94,225,c),
(95,274,l),
(100,270,o),
(127,272,o),
(134,271,cs),
(164,269,o),
(208,273,o),
(238,276,cs),
(247,277,o),
(256,280,o),
(267,282,c),
(275,286,o),
(282,293,o),
(292,296,c),
(298,308,o),
(311,315,o),
(319,323,cs),
(329,332,l),
(329,340,o),
(332,347,o),
(336,351,c),
(335,363,o),
(343,372,o),
(344,384,cs),
(344,386,o),
(343,387,o),
(343,389,cs),
(342,400,o),
(343,414,o),
(343,428,c),
(340,434,o),
(339,442,o),
(336,449,cs),
(333,454,o),
(332,464,o),
(330,471,c),
(319,489,o),
(302,503,o),
(288,518,c),
(281,520,o),
(276,524,o),
(269,526,cs),
(261,528,o),
(253,527,o),
(245,531,cs),
(242,532,o),
(240,535,o),
(237,536,cs),
(227,539,o),
(217,536,o),
(207,536,cs),
(197,536,o),
(187,539,o),
(177,539,cs),
(171,539,o),
(166,538,o),
(160,538,cs),
(146,537,o),
(110,542,o),
(96,538,c),
(94,580,l)
);
},
{
closed = 1;
nodes = (
(107,339,o),
(109,330,o),
(107,323,cs),
(106,316,o),
(104,307,o),
(104,299,cs),
(104,286,o),
(109,270,o),
(109,254,cs),
(109,246,o),
(107,238,o),
(107,230,cs),
(107,221,o),
(110,212,o),
(111,203,cs),
(111,193,o),
(110,183,o),
(111,173,cs),
(111,156,o),
(111,138,o),
(107,123,c),
(110,114,o),
(109,95,o),
(107,87,c),
(111,69,o),
(111,47,o),
(112,27,c),
(108,24,o),
(105,21,o),
(102,17,c),
(86,13,o),
(69,19,o),
(61,28,c),
(64,91,o),
(69,164,o),
(65,224,c),
(68,249,o),
(68,275,o),
(68,301,cs),
(68,319,o),
(65,337,o),
(65,354,cs),
(64,406,o),
(67,453,o),
(67,504,cs),
(67,550,o),
(63,596,o),
(65,643,cs),
(66,651,o),
(62,654,o),
(61,660,c),
(64,674,o),
(62,692,o),
(72,700,c),
(83,702,o),
(102,700,o),
(114,698,c),
(118,694,l),
(117,691,o),
(119,683,o),
(119,677,c),
(116,656,l),
(108,643,o),
(112,623,o),
(114,605,c),
(105,570,o),
(120,527,o),
(111,493,cs),
(110,487,o),
(115,485,o),
(114,479,c),
(108,460,o),
(115,435,o),
(109,418,c),
(112,410,o),
(115,404,o),
(115,392,cs),
(115,380,o),
(117,364,o),
(115,361,c),
(114,343,l)
);
}
);
width = 423;
},
{
associatedMasterId = "C5490108-C233-4ADF-8B6D-CFE8E3B23812";
layerId = "D1580C2B-5BB6-46B1-91BF-F93DAAA5DE86";
width = 9760;
}
);
metricRight = P;
unicode = 222;
},
{
glyphname = Q;
kernLeft = O;
kernRight = O;
lastChange = "2023-09-12 03:35:01 +0000";
layers = (
{
anchors = (
{
name = bottom;
pos = (407,0);
},
{
name = top;
pos = (407,695);
}
);
layerId = "C5490108-C233-4ADF-8B6D-CFE8E3B23812";
shapes = (
{
closed = 1;
nodes = (
(186,637,o),
(186,634,o),
(184,633,c),
(182,631,o),
(178,631,o),
(176,629,c),
(171,626,o),
(169,621,o),
(163,620,c),
(156,605,o),
(145,598,o),
(133,587,c),
(126,574,o),
(117,560,o),
(108,548,cs),
(99,535,o),
(92,520,o),
(83,507,c),
(84,501,o),
(80,499,o),
(81,493,c),
(72,481,o),
(71,460,o),
(64,445,c),
(62,417,o),
(53,406,o),
(56,378,c),
(48,362,o),
(51,346,o),
(51,329,cs),
(51,315,o),
(49,304,o),
(52,293,cs),
(54,287,o),
(59,283,o),
(60,277,cs),
(63,268,o),
(62,260,o),
(63,252,c),
(69,242,o),
(73,231,o),
(76,222,cs),
(79,215,ls),
(88,194,o),
(99,175,o),
(108,154,c),
(116,144,o),
(122,132,o),
(129,121,c),
(134,118,o),
(139,115,o),
(143,111,c),
(154,94,l),
(162,90,o),
(167,81,o),
(172,78,c),
(174,76,o),
(177,76,o),
(180,75,c),
(188,69,o),
(196,61,o),
(203,54,c),
(216,54,o),
(223,46,o),
(232,42,c),
(244,41,o),
(251,35,o),
(260,32,cs),
(269,28,o),
(279,26,o),
(285,19,c),
(303,15,o),
(319,9,o),
(336,4,c),
(354,3,o),
(371,0,o),
(388,-3,c),
(404,0,o),
(419,-3,o),
(435,-5,c),
(446,-4,o),
(459,0,o),
(467,2,c),
(469,2,o),
(471,1,o),
(473,2,c),
(473,2,o),
(477,5,o),
(478,5,cs),
(500,10,ls),
(507,12,o),
(514,14,o),
(522,14,c),
(541,27,o),
(564,35,o),
(582,49,c),
(588,52,o),
(595,54,o),
(602,57,cs),
(610,59,o),
(609,70,o),
(621,68,c),
(627,69,o),
(626,62,o),
(629,58,cs),
(637,49,o),
(650,44,o),
(654,32,c),
(667,27,o),
(673,15,o),
(687,11,cs),
(693,9,o),
(703,10,o),
(711,10,c),
(720,13,o),
(736,11,o),
(738,23,c),
(742,29,o),
(730,34,o),
(728,39,c),
(723,43,o),
(718,50,o),
(713,54,c),
(692,76,l),
(684,84,ls),
(683,85,o),
(681,84,o),
(679,85,c),
(679,86,o),
(678,88,o),
(678,88,c),
(675,92,o),
(674,96,o),
(670,98,c),
(666,104,o),
(659,106,o),
(657,115,c),
(662,122,o),
(669,125,o),
(676,129,c),
(682,141,o),
(695,148,o),
(699,161,c),
(708,167,o),
(714,176,o),
(719,186,cs),
(722,192,o),
(719,202,o),
(721,205,cs),
(728,217,o),
(738,228,o),
(744,241,c),
(748,260,o),
(754,277,o),
(754,301,c),
(759,314,o),
(759,331,o),
(759,350,c),
(755,359,o),
(756,374,o),
(752,384,c),
(754,411,o),
(746,425,o),
(746,452,c),
(743,458,o),
(739,464,o),
(739,473,c),
(737,481,o),
(731,485,o),
(732,496,c),
(724,508,o),
(717,523,o),
(713,539,c),
(709,545,o),
(703,548,o),
(699,553,c),
(698,569,o),
(683,572,o),
(680,587,c),
(676,591,o),
(669,591,o),
(666,596,cs),
(663,600,o),
(662,607,o),
(660,612,c),
(646,621,o),
(638,636,o),
(619,640,c),
(613,651,o),
(604,655,o),
(594,661,c),
(589,663,o),
(585,667,o),
(579,667,c),
(576,670,o),
(574,675,o),
(571,680,c),
(562,680,o),
(555,684,o),
(549,689,c),
(524,687,o),
(512,699,o),
(490,700,c),
(484,702,o),
(481,706,o),
(474,706,cs),
(462,707,o),
(451,708,o),
(436,708,c),
(431,710,o),
(428,714,o),
(427,716,c),
(415,712,o),
(401,713,o),
(395,719,c),
(387,714,o),
(378,713,o),
(370,710,c),
(352,710,o),
(337,706,o),
(322,702,c),
(304,702,o),
(293,693,o),
(277,691,c),
(272,685,o),
(265,686,o),
(259,683,cs),
(241,675,o),
(226,663,o),
(207,656,c),
(188,637,l)
);
},
{
closed = 1;
nodes = (
(108,280,o),
(108,295,o),
(103,305,c),
(104,317,o),
(102,325,o),
(98,332,c),
(100,342,o),
(97,350,o),
(97,359,cs),
(97,360,o),
(98,362,o),
(98,365,cs),
(98,373,o),
(97,385,o),
(100,395,c),
(100,397,o),
(103,399,o),
(103,400,cs),
(103,402,o),
(102,404,o),
(103,406,c),
(109,428,l),
(115,443,o),
(122,457,o),
(124,472,c),
(132,481,o),
(136,493,o),
(140,505,c),
(149,515,o),
(158,527,o),
(165,541,c),
(179,554,o),
(190,569,o),
(206,581,c),
(212,588,o),
(223,591,o),
(228,600,c),
(236,604,o),
(245,609,o),
(250,617,c),
(266,621,o),
(277,629,o),
(289,636,c),
(295,635,o),
(297,639,o),
(304,637,c),
(310,640,o),
(313,646,o),
(321,647,cs),
(325,648,o),
(331,649,o),
(337,648,c),
(343,651,o),
(350,654,o),
(357,656,c),
(371,655,o),
(382,659,o),
(393,656,c),
(406,659,l),
(446,656,o),
(484,644,o),
(521,635,c),
(533,623,o),
(555,620,o),
(567,607,c),
(579,604,o),
(588,597,o),
(597,590,c),
(604,582,o),
(612,575,o),
(622,569,c),
(630,553,o),
(645,543,o),
(653,527,c),
(664,518,o),
(667,503,o),
(676,494,c),
(678,490,o),
(677,484,o),
(682,482,c),
(682,467,o),
(689,458,o),
(694,448,cs),
(696,444,o),
(696,439,o),
(696,434,c),
(701,422,o),
(701,403,o),
(705,389,c),
(705,376,o),
(706,363,o),
(708,352,c),
(704,326,o),
(710,291,o),
(697,274,c),
(697,269,o),
(698,263,o),
(696,260,cs),
(686,240,o),
(679,218,o),
(667,200,cs),
(656,182,o),
(649,161,o),
(629,151,c),
(606,156,o),
(597,175,o),
(581,186,c),
(578,190,o),
(577,196,o),
(574,200,c),
(569,204,o),
(563,207,o),
(557,210,c),
(550,218,o),
(543,228,o),
(533,233,c),
(527,243,o),
(521,251,o),
(511,257,c),
(509,265,o),
(502,268,o),
(500,276,c),
(491,281,o),
(485,288,o),
(478,295,c),
(465,296,o),
(457,292,o),
(450,298,c),
(443,297,o),
(440,293,o),
(434,292,c),
(425,295,o),
(421,292,o),
(418,287,c),
(418,270,o),
(434,266,o),
(435,251,c),
(441,250,o),
(445,248,o),
(450,246,c),
(453,237,o),
(460,231,o),
(467,226,cs),
(474,220,o),
(478,212,o),
(488,210,c),
(490,206,o),
(494,202,o),
(495,197,c),
(504,194,o),
(506,185,o),
(516,183,c),
(519,175,o),
(526,170,o),
(532,164,c),
(538,165,o),
(536,157,o),
(541,156,cs),
(545,155,o),
(546,150,o),
(551,148,c),
(556,142,o),
(561,138,o),
(566,131,c),
(572,126,o),
(581,124,o),
(583,115,c),
(579,98,o),
(563,94,o),
(549,87,cs),
(536,79,o),
(519,74,o),
(508,65,c),
(494,65,o),
(487,58,o),
(476,55,c),
(447,54,o),
(415,58,o),
(389,53,c),
(381,55,o),
(371,54,o),
(364,57,c),
(344,56,o),
(327,59,o),
(311,62,c),
(299,71,o),
(283,76,o),
(266,79,c),
(255,90,o),
(240,97,o),
(229,108,c),
(222,109,o),
(216,111,o),
(211,114,c),
(203,115,o),
(204,124,o),
(199,128,c),
(192,131,o),
(187,135,o),
(181,138,c),
(177,145,o),
(172,154,o),
(164,160,c),
(163,172,o),
(154,177,o),
(149,185,c),
(148,192,o),
(145,200,o),
(142,206,c),
(141,213,o),
(134,215,o),
(131,220,c),
(128,231,o),
(124,240,o),
(122,252,c),
(112,269,l)
);
}
);
width = 809;
},
{
associatedMasterId = "C5490108-C233-4ADF-8B6D-CFE8E3B23812";
layerId = "D1580C2B-5BB6-46B1-91BF-F93DAAA5DE86";
width = 16820;
}
);
unicode = 81;
},
{
glyphname = R;
kernLeft = H;
kernRight = R;
lastChange = "2023-09-12 03:35:01 +0000";
layers = (
{
anchors = (
{
name = bottom;
pos = (210,0);
},
{
name = top;
pos = (210,695);
}
);
layerId = "C5490108-C233-4ADF-8B6D-CFE8E3B23812";
shapes = (
{
closed = 1;
nodes = (
(370,73,o),
(363,81,o),
(355,89,c),
(354,96,o),
(348,98,o),
(349,106,c),
(340,112,o),
(335,121,o),
(328,129,c),
(325,143,o),
(316,153,o),
(306,163,c),
(300,177,o),
(289,186,o),
(283,199,c),
(271,217,o),
(256,232,o),
(247,253,c),
(236,262,o),
(229,274,o),
(224,289,c),
(221,294,o),
(215,297,o),
(215,305,c),
(210,308,o),
(207,316,o),
(207,324,c),
(209,329,o),
(214,333,o),
(218,338,c),
(234,341,o),
(251,342,o),
(267,344,c),
(277,350,o),
(287,356,o),
(299,360,c),
(309,371,o),
(322,380,o),
(333,390,c),
(336,398,o),
(344,400,o),
(346,409,c),
(352,414,o),
(355,421,o),
(361,426,c),
(368,442,o),
(374,457,o),
(379,474,c),
(381,496,o),
(380,511,o),
(379,534,c),
(375,545,o),
(373,558,o),
(371,571,c),
(366,583,o),
(360,595,o),
(356,609,c),
(347,615,o),
(344,626,o),
(337,633,cs),
(330,641,o),
(321,647,o),
(315,655,c),
(300,662,o),
(287,670,o),
(275,680,c),
(266,682,o),
(259,686,o),
(252,690,c),
(218,690,o),
(182,697,o),
(151,692,c),
(144,692,o),
(139,695,o),
(132,695,cs),
(114,693,o),
(86,699,o),
(72,689,c),
(59,667,o),
(70,616,o),
(66,592,cs),
(65,589,o),
(64,587,o),
(64,583,cs),
(64,565,o),
(67,550,o),
(61,536,c),
(63,526,o),
(64,521,o),
(63,512,c),
(66,501,o),
(68,487,o),
(69,474,cs),
(70,460,o),
(71,445,o),
(70,432,cs),
(68,411,o),
(60,392,o),
(61,373,cs),
(62,357,o),
(65,341,o),
(64,321,c),
(68,301,l),
(66,293,o),
(65,282,o),
(65,271,cs),
(65,263,o),
(69,260,o),
(68,252,c),
(70,231,o),
(64,211,o),
(68,192,c),
(64,174,o),
(64,146,o),
(65,126,c),
(59,105,o),
(63,83,o),
(63,61,cs),
(63,52,o),
(59,46,o),
(60,36,c),
(65,26,o),
(75,14,o),
(88,14,cs),
(97,14,o),
(102,20,o),
(109,23,c),
(119,39,o),
(107,65,o),
(112,85,c),
(109,92,o),
(107,99,o),
(106,108,cs),
(105,118,o),
(110,120,o),
(109,129,cs),
(108,154,o),
(113,184,o),
(109,205,cs),
(106,224,o),
(110,244,o),
(108,266,cs),
(108,273,o),
(112,277,o),
(113,283,c),
(112,296,o),
(113,306,o),
(116,315,cs),
(118,325,o),
(119,335,o),
(130,335,c),
(135,333,o),
(138,328,o),
(141,323,c),
(146,320,o),
(148,314,o),
(152,310,c),
(157,299,o),
(168,294,o),
(169,279,c),
(182,273,o),
(184,257,o),
(193,247,c),
(199,244,o),
(199,236,o),
(204,231,cs),
(210,226,o),
(212,218,o),
(217,214,c),
(220,207,o),
(225,199,o),
(228,195,cs),
(233,186,o),
(236,180,o),
(242,174,c),
(247,171,ls),
(248,170,o),
(248,167,o),
(250,165,cs),
(255,159,o),
(260,152,o),
(264,144,cs),
(271,131,o),
(281,118,o),
(290,105,c),
(296,100,o),
(298,91,o),
(303,84,c),
(310,80,o),
(311,69,o),
(319,65,c),
(321,56,o),
(328,52,o),
(333,45,cs),
(337,38,o),
(342,31,o),
(347,24,c),
(356,23,o),
(365,11,o),
(377,12,cs),
(387,12,o),
(395,19,o),
(397,31,cs),
(397,33,o),
(395,33,o),
(396,36,c),
(375,62,l)
);
},
{
closed = 1;
nodes = (
(122,383,o),
(116,387,c),
(110,396,o),
(114,415,o),
(112,427,c),
(115,437,o),
(116,448,o),
(119,457,c),
(117,465,o),
(117,476,o),
(119,484,c),
(112,503,o),
(120,523,o),
(119,542,cs),
(119,552,o),
(116,560,o),
(116,573,cs),
(116,576,o),
(114,582,o),
(115,583,c),
(115,583,o),
(116,583,o),
(116,585,cs),
(115,593,o),
(112,601,o),
(111,608,c),
(111,622,o),
(115,634,o),
(118,648,c),
(125,652,o),
(137,651,o),
(146,649,cs),
(152,648,o),
(165,650,o),
(171,646,c),
(188,650,o),
(199,643,o),
(217,644,c),
(230,642,o),
(239,634,o),
(253,638,c),
(268,628,o),
(283,622,o),
(294,609,cs),
(304,599,o),
(308,585,o),
(318,575,c),
(320,561,o),
(322,552,o),
(323,540,c),
(328,529,o),
(332,520,o),
(330,507,cs),
(329,493,o),
(318,482,o),
(318,471,cs),
(317,462,o),
(320,458,o),
(319,450,cs),
(316,439,o),
(308,431,o),
(299,423,c),
(297,418,o),
(288,419,o),
(288,412,c),
(283,409,o),
(281,404,o),
(276,401,c),
(270,399,o),
(264,398,o),
(258,397,c),
(252,394,o),
(247,390,o),
(239,390,c),
(237,383,o),
(227,385,o),
(223,381,c),
(192,384,o),
(161,374,o),
(136,386,c),
(128,385,o)
);
}
);
width = 437;
},
{
associatedMasterId = "C5490108-C233-4ADF-8B6D-CFE8E3B23812";
layerId = "D1580C2B-5BB6-46B1-91BF-F93DAAA5DE86";
width = 10600;
}
);
unicode = 82;
},
{
glyphname = S;
kernLeft = S;
kernRight = S;
lastChange = "2023-09-12 03:35:01 +0000";
layers = (
{
anchors = (
{
name = bottom;
pos = (233,0);
},
{
name = top;
pos = (233,695);
}
);
layerId = "C5490108-C233-4ADF-8B6D-CFE8E3B23812";
shapes = (
{
closed = 1;
nodes = (
(401,306,o),
(384,322,o),
(368,337,c),
(340,348,o),
(329,374,o),
(293,374,c),
(288,379,o),
(282,384,o),
(276,388,c),
(254,394,o),
(237,405,o),
(213,409,c),
(193,421,o),
(176,433,o),
(154,443,c),
(141,458,o),
(124,467,o),
(114,484,c),
(115,501,o),
(111,512,o),
(108,525,cs),
(107,535,o),
(109,548,o),
(106,555,c),
(111,563,o),
(113,572,o),
(116,581,c),
(121,586,o),
(126,594,o),
(128,603,c),
(142,614,o),
(152,630,o),
(168,639,cs),
(180,645,o),
(196,652,o),
(213,656,cs),
(237,662,o),
(261,654,o),
(283,648,c),
(296,640,o),
(308,631,o),
(322,623,c),
(327,613,o),
(338,609,o),
(341,598,c),
(351,593,o),
(353,580,o),
(365,575,c),
(372,577,o),
(377,581,o),
(382,585,c),
(385,591,o),
(393,592,o),
(392,602,cs),
(392,613,o),
(386,617,o),
(382,623,c),
(379,630,o),
(375,636,o),
(371,643,c),
(357,654,o),
(343,666,o),
(330,678,c),
(320,683,o),
(309,688,o),
(302,696,c),
(289,696,o),
(281,701,o),
(270,703,cs),
(257,704,o),
(244,705,o),
(232,707,c),
(221,704,o),
(209,701,o),
(195,702,c),
(187,697,o),
(176,696,o),
(166,692,cs),
(157,688,o),
(149,683,o),
(139,680,c),
(130,673,o),
(124,665,o),
(113,661,c),
(103,647,o),
(89,636,o),
(78,623,c),
(69,603,o),
(63,581,o),
(56,559,c),
(59,543,o),
(57,522,o),
(57,504,c),
(59,499,o),
(61,495,o),
(61,490,c),
(71,472,o),
(74,448,o),
(87,435,c),
(90,426,o),
(101,424,o),
(104,415,c),
(108,413,o),
(109,407,o),
(115,407,c),
(118,403,o),
(121,399,o),
(126,398,c),
(130,395,o),
(135,393,o),
(139,391,cs),
(144,389,o),
(147,386,o),
(152,383,cs),
(154,382,o),
(156,383,o),
(159,382,cs),
(162,381,o),
(164,378,o),
(166,377,cs),
(171,375,o),
(176,375,o),
(182,372,c),
(186,371,o),
(190,368,o),
(194,366,cs),
(209,360,o),
(223,352,o),
(238,349,c),
(249,342,o),
(262,337,o),
(276,333,c),
(286,322,o),
(302,318,o),
(317,313,c),
(326,305,o),
(335,298,o),
(345,292,c),
(355,283,o),
(363,275,o),
(371,266,c),
(377,253,o),
(387,242,o),
(391,227,c),
(390,211,o),
(393,199,o),
(393,183,c),
(389,171,o),
(386,158,o),
(380,148,c),
(376,136,o),
(365,130,o),
(362,117,c),
(356,112,o),
(349,106,o),
(345,101,cs),
(341,97,o),
(340,92,o),
(336,89,c),
(325,86,o),
(319,79,o),
(312,73,c),
(305,73,o),
(302,69,o),
(298,67,c),
(285,65,o),
(277,60,o),
(268,56,c),
(255,57,o),
(249,51,o),
(239,49,c),
(230,51,o),
(218,51,o),
(208,49,cs),
(201,48,o),
(201,54,o),
(195,54,cs),
(189,55,o),
(188,51,o),
(181,52,c),
(172,58,o),
(162,63,o),
(150,65,c),
(142,72,o),
(136,80,o),
(124,82,c),
(116,89,o),
(108,95,o),
(99,101,c),
(95,110,o),
(89,117,o),
(83,123,c),
(81,133,o),
(75,137,o),
(74,145,c),
(71,154,o),
(67,163,o),
(59,166,c),
(50,166,o),
(47,160,o),
(41,157,c),
(38,151,o),
(31,149,o),
(30,141,cs),
(29,131,o),
(32,124,o),
(31,113,c),
(38,105,o),
(44,98,o),
(47,88,c),
(65,73,o),
(80,54,o),
(96,38,c),
(113,31,o),
(129,23,o),
(143,13,c),
(172,6,o),
(207,0,o),
(241,0,cs),
(246,0,o),
(256,3,o),
(258,4,c),
(261,4,o),
(261,2,o),
(265,2,cs),
(274,3,o),
(282,7,o),
(290,7,c),
(300,12,o),
(311,17,o),
(323,21,c),
(325,26,o),
(334,26,o),
(337,30,c),
(344,32,o),
(346,38,o),
(354,36,c),
(365,50,o),
(376,63,o),
(391,73,c),
(395,82,o),
(400,91,o),
(407,99,c),
(412,108,o),
(414,120,o),
(422,126,c),
(424,138,o),
(430,149,o),
(432,161,cs),
(435,173,o),
(437,189,o),
(437,202,c),
(432,206,o),
(435,219,o),
(432,225,c),
(430,233,o),
(428,240,o),
(429,251,c),
(415,288,l)
);
}
);
width = 467;
},
{
associatedMasterId = "C5490108-C233-4ADF-8B6D-CFE8E3B23812";
layerId = "D1580C2B-5BB6-46B1-91BF-F93DAAA5DE86";
width = 10060;
}
);
unicode = 83;
},
{
glyphname = Germandbls;
kernLeft = Germandbls;
kernRight = Germandbls;
lastChange = "2023-09-12 03:35:01 +0000";
layers = (
{
hints = (
{
horizontal = 1;
place = (1, 25);
place = (1, 25);
type = Stem;
},
{
horizontal = 1;
place = (721, 25);
place = (721, 25);
type = Stem;
},
{
place = (105, 24);
place = (105, 24);
type = Stem;
},
{
place = (265, 25);
place = (265, 25);
type = Stem;
},
{
place = (358, 25);
place = (358, 25);
type = Stem;
},
{
horizontal = 1;
place = (6, 25);
place = (6, 25);
type = Stem;
},
{
place = (390, 25);
place = (390, 25);
type = Stem;
}
);
layerId = "C5490108-C233-4ADF-8B6D-CFE8E3B23812";
shapes = (
{
closed = 1;
nodes = (
(123,25,l),
(122,113,l),
(124,130,l),
(121,213,l),
(125,250,l),
(123,462,l),
(124,496,l),
(123,551,l),
(125,634,l),
(122,643,l),
(131,645,l),
(144,642,ls),
(148,641,o),
(175,643,o),
(182,643,cs),
(208,644,l),
(213,643,ls),
(217,642,o),
(221,643,o),
(231,643,cs),
(259,644,l),
(265,643,ls),
(269,642,o),
(275,643,o),
(286,644,cs),
(295,645,l),
(345,645,l),
(351,644,ls),
(362,642,o),
(369,643,o),
(379,643,cs),
(407,644,l),
(413,643,ls),
(417,642,o),
(421,643,o),
(428,643,cs),
(455,644,l),
(462,640,l),
(440,606,l),
(422,584,l),
(411,568,l),
(404,559,ls),
(397,551,o),
(391,545,o),
(386,535,cs),
(383,529,l),
(366,507,l),
(354,490,l),
(340,472,l),
(326,451,l),
(312,433,l),
(297,413,l),
(289,402,ls),
(278,386,o),
(274,374,o),
(280,373,cs),
(287,371,o),
(292,371,o),
(296,372,c),
(322,373,l),
(328,372,ls),
(332,371,o),
(337,371,o),
(348,373,cs),
(354,374,l),
(375,374,l),
(404,372,l),
(422,369,l),
(451,359,l),
(461,354,l),
(472,350,l),
(499,333,l),
(512,320,l),
(532,297,l),
(537,288,l),
(541,278,l),
(549,249,l),
(550,238,l),
(552,225,l),
(554,195,l),
(553,183,l),
(550,171,l),
(541,142,l),
(537,133,l),
(531,123,l),
(516,101,l),
(498,84,l),
(476,69,l),
(450,57,l),
(437,53,l),
(404,47,l),
(390,46,l),
(360,46,l),
(341,48,l),
(327,51,l),
(300,61,l),
(279,74,l),
(262,92,l),
(249,112,l),
(246,119,o),
(238,122,o),
(224,122,cs),
(218,122,ls),
(202,122,o),
(194,117,o),
(196,109,cs),
(198,99,o),
(202,93,o),
(207,83,cs),
(210,77,l),
(214,69,ls),
(220,58,o),
(226,51,o),
(235,45,cs),
(252,33,ls),
(261,26,o),
(267,22,o),
(277,17,cs),
(288,12,l),
(314,3,l),
(343,-3,l),
(376,-5,l),
(375,-5,l),
(385,-6,ls),
(397,-7,o),
(405,-6,o),
(416,-3,cs),
(431,1,l),
(439,2,ls),
(450,3,o),
(458,5,o),
(468,10,cs),
(481,16,l),
(489,19,ls),
(499,23,o),
(506,28,o),
(515,35,cs),
(538,54,l),
(558,75,l),
(562,79,ls),
(570,87,o),
(574,95,o),
(579,105,cs),
(583,114,l),
(587,123,ls),
(591,133,o),
(595,141,o),
(597,151,cs),
(599,160,l),
(602,171,ls),
(605,182,o),
(605,190,o),
(605,201,cs),
(605,220,ls),
(605,231,o),
(603,239,o),
(601,250,cs),
(599,260,l),
(597,269,ls),
(595,280,o),
(593,288,o),
(587,298,cs),
(583,305,l),
(579,313,ls),
(574,323,o),
(570,330,o),
(563,339,cs),
(558,345,l),
(541,363,l),
(523,378,l),
(503,392,l),
(481,403,l),
(471,407,ls),
(461,411,o),
(453,414,o),
(442,416,cs),
(431,418,l),
(420,421,ls),
(409,424,o),
(401,424,o),
(390,424,cs),
(375,424,l),
(389,454,l),
(395,463,l),
(411,482,l),
(424,501,l),
(438,518,l),
(452,540,l),
(509,618,l),
(524,637,l),
(538,656,l),
(553,676,ls),
(561,686,o),
(555,695,o),
(541,696,c),
(517,695,l),
(369,695,l),
(344,696,l),
(320,695,l),
(270,695,l),
(247,696,l),
(221,695,l),
(197,696,l),
(172,695,l),
(147,696,l),
(123,695,l),
(99,696,l),
(98,696,l),
(97,696,ls),
(81,696,o),
(73,687,o),
(73,670,cs),
(73,626,l),
(72,598,ls),
(71,573,o),
(71,559,o),
(71,547,cs),
(72,485,l),
(71,471,ls),
(70,460,o),
(71,446,o),
(72,420,cs),
(73,397,l),
(73,318,l),
(71,256,ls),
(70,233,o),
(70,216,o),
(71,191,cs),
(72,168,l),
(72,50,l),
(71,37,ls),
(70,26,o),
(70,19,o),
(71,11,cs),
(71,4,o),
(80,0,o),
(95,0,cs),
(97,0,ls),
(114,0,o),
(123,4,o),
(123,13,cs)
);
}
);
width = 650;
},
{
associatedMasterId = "C5490108-C233-4ADF-8B6D-CFE8E3B23812";
background = {
shapes = (
{
closed = 0;
nodes = (
(71,667,l),
(70,0,l)
);
},
{
closed = 0;
nodes = (
(191,117,l),
(206,59,o),
(264,15,o),
(348,15,cs),
(471,15,o),
(553,98,o),
(553,205,cs),
(553,312,o),
(471,394,o),
(348,394,cs),
(291,394,l),
(490,667,l),
(71,667,l)
);
}
);
};
hints = (
{
horizontal = 1;
place = (1, 25);
place = (1, 25);
type = Stem;
},
{
horizontal = 1;
place = (721, 25);
place = (721, 25);
type = Stem;
},
{
place = (105, 24);
place = (105, 24);
type = Stem;
},
{
place = (265, 25);
place = (265, 25);
type = Stem;
},
{
place = (358, 25);
place = (358, 25);
type = Stem;
},
{
horizontal = 1;
place = (6, 25);
place = (6, 25);
type = Stem;
},
{
place = (390, 25);
place = (390, 25);
type = Stem;
}
);
layerId = "55865AE4-4662-4DB8-AD23-5E5B976E2AC6";
name = "5 sept. 23 à 09:20";
shapes = (
{
closed = 1;
nodes = (
(96,695,l),
(46,695,l),
(45,0,l),
(95,0,l)
);
},
{
closed = 1;
nodes = (
(441,645,l),
(242,374,l),
(348,374,ls),
(461,374,o),
(528,307,o),
(528,210,cs),
(528,113,o),
(461,45,o),
(348,45,cs),
(276,45,o),
(232,76,o),
(217,122,c),
(165,122,l),
(181,50,o),
(250,-5,o),
(348,-5,cs),
(485,-5,o),
(578,89,o),
(578,210,cs),
(578,331,o),
(485,424,o),
(348,424,cs),
(340,424,l),
(539,695,l),
(71,695,l),
(71,645,l)
);
}
);
width = 623;
},
{
associatedMasterId = "C5490108-C233-4ADF-8B6D-CFE8E3B23812";
layerId = "D1580C2B-5BB6-46B1-91BF-F93DAAA5DE86";
width = 12780;
}
);
unicode = 7838;
},
{
glyphname = T;
kernLeft = T;
kernRight = T;
lastChange = "2023-09-12 03:35:01 +0000";
layers = (
{
anchors = (
{
name = bottom;
pos = (233,0);
},
{
name = center;
pos = (233,348);
},
{
name = top;
pos = (233,695);
}
);
layerId = "C5490108-C233-4ADF-8B6D-CFE8E3B23812";
shapes = (
{
closed = 1;
nodes = (
(273,692,o),
(262,690,o),
(250,690,cs),
(238,690,o),
(225,691,o),
(212,688,c),
(200,691,o),
(186,692,o),
(171,694,c),
(141,690,l),
(108,689,o),
(72,693,o),
(44,690,c),
(33,682,o),
(25,663,o),
(34,648,c),
(40,646,o),
(44,642,o),
(53,643,cs),
(60,644,o),
(67,646,o),
(75,646,cs),
(83,647,o),
(93,644,o),
(102,645,cs),
(109,645,o),
(115,648,o),
(122,648,cs),
(129,648,o),
(137,646,o),
(144,646,cs),
(153,646,o),
(160,647,o),
(168,646,cs),
(182,644,o),
(200,645,o),
(206,633,c),
(207,624,o),
(201,622,o),
(203,613,c),
(212,587,o),
(200,551,o),
(206,523,c),
(201,497,o),
(202,461,o),
(206,435,c),
(206,427,o),
(202,424,o),
(199,419,c),
(204,415,o),
(202,408,o),
(202,403,cs),
(204,375,o),
(197,351,o),
(199,326,cs),
(200,316,o),
(203,307,o),
(204,298,cs),
(204,289,o),
(202,282,o),
(202,274,cs),
(202,269,o),
(204,262,o),
(204,257,cs),
(204,244,o),
(202,234,o),
(205,225,c),
(205,220,o),
(202,216,o),
(202,211,c),
(208,200,o),
(204,189,o),
(204,178,cs),
(204,146,o),
(204,110,o),
(199,80,cs),
(197,73,o),
(201,72,o),
(200,66,cs),
(196,53,o),
(196,30,o),
(197,17,c),
(201,13,o),
(205,9,o),
(210,6,c),
(219,5,o),
(225,7,o),
(232,9,c),
(243,7,o),
(245,13,o),
(251,17,c),
(254,29,o),
(249,43,o),
(249,56,cs),
(249,59,o),
(251,63,o),
(251,66,cs),
(251,69,o),
(249,72,o),
(249,75,cs),
(249,83,o),
(251,90,o),
(251,97,cs),
(251,115,o),
(248,133,o),
(250,151,cs),
(250,157,o),
(251,164,o),
(251,170,cs),
(252,188,o),
(247,207,o),
(253,223,c),
(251,228,o),
(249,232,o),
(250,239,cs),
(251,247,o),
(254,253,o),
(254,261,cs),
(255,271,o),
(253,281,o),
(253,291,cs),
(252,305,o),
(256,320,o),
(254,332,c),
(254,340,l),
(253,370,ls),
(253,372,o),
(255,372,o),
(254,375,c),
(254,381,o),
(251,387,o),
(251,394,cs),
(251,408,o),
(255,423,o),
(252,438,c),
(258,456,o),
(254,477,o),
(255,498,cs),
(255,503,o),
(256,509,o),
(256,515,cs),
(256,522,o),
(253,529,o),
(253,537,cs),
(253,545,o),
(255,554,o),
(255,562,cs),
(255,593,o),
(252,616,o),
(253,640,c),
(273,647,o),
(296,642,o),
(318,643,cs),
(365,643,ls),
(374,643,o),
(387,645,o),
(392,644,cs),
(396,644,o),
(397,642,o),
(400,643,c),
(411,644,o),
(418,648,o),
(425,655,c),
(424,669,o),
(427,675,o),
(423,685,c),
(408,691,o),
(388,689,o),
(373,688,cs),
(371,688,o),
(371,690,o),
(370,690,cs),
(366,690,o),
(360,685,o),
(356,687,c),
(344,690,o),
(333,688,o),
(321,688,c),
(285,692,l)
);
}
);
width = 455;
},
{
associatedMasterId = "C5490108-C233-4ADF-8B6D-CFE8E3B23812";
layerId = "D1580C2B-5BB6-46B1-91BF-F93DAAA5DE86";
width = 9780;
}
);
unicode = 84;
},
{
glyphname = U;
kernLeft = U;
kernRight = U;
lastChange = "2023-09-12 03:35:01 +0000";
layers = (
{
anchors = (
{
name = bottom;
pos = (305,0);
},
{
name = ogonek;
pos = (355,10);
},
{
name = top;
pos = (315,695);
},
{
name = topright;
pos = (568,695);
}
);
layerId = "C5490108-C233-4ADF-8B6D-CFE8E3B23812";
shapes = (
{
closed = 1;
nodes = (
(68,226,o),
(65,217,o),
(65,209,cs),
(66,195,o),
(73,183,o),
(71,168,c),
(76,159,o),
(82,151,o),
(80,136,c),
(84,132,o),
(85,124,o),
(90,119,c),
(91,111,o),
(99,109,o),
(101,102,cs),
(103,97,o),
(104,90,o),
(107,86,cs),
(115,77,o),
(122,67,o),
(132,61,c),
(136,56,o),
(141,53,o),
(147,50,c),
(152,46,o),
(155,41,o),
(162,39,c),
(163,31,o),
(168,28,o),
(172,23,c),
(178,19,o),
(182,22,o),
(189,20,c),
(194,14,o),
(201,10,o),
(208,7,c),
(210,5,o),
(216,6,o),
(221,5,c),
(223,3,o),
(225,0,o),
(230,1,cs),
(244,5,o),
(258,0,o),
(271,-1,cs),
(287,-2,o),
(302,3,o),
(315,-4,c),
(327,1,o),
(336,-1,o),
(352,-1,c),
(362,2,o),
(374,4,o),
(388,3,c),
(394,6,o),
(397,12,o),
(404,14,cs),
(412,15,o),
(413,23,o),
(424,21,c),
(433,30,o),
(444,37,o),
(457,41,c),
(470,54,o),
(480,70,o),
(495,81,c),
(496,86,o),
(498,90,o),
(500,95,c),
(506,103,o),
(515,109,o),
(520,119,c),
(520,133,o),
(529,138,o),
(532,148,c),
(533,161,o),
(537,172,o),
(541,182,c),
(541,200,o),
(546,215,o),
(543,232,c),
(548,261,o),
(545,284,o),
(541,314,cs),
(539,325,o),
(544,334,o),
(544,344,cs),
(544,349,o),
(543,355,o),
(543,360,cs),
(543,365,o),
(544,371,o),
(544,375,cs),
(544,383,o),
(541,391,o),
(541,399,cs),
(541,409,o),
(545,419,o),
(545,429,c),
(546,435,o),
(550,438,o),
(551,445,cs),
(551,447,o),
(549,447,o),
(549,450,c),
(547,455,o),
(549,462,o),
(548,468,cs),
(546,487,ls),
(545,493,o),
(542,499,o),
(542,505,c),
(539,525,o),
(541,537,o),
(548,550,c),
(547,558,o),
(541,560,o),
(542,568,cs),
(545,579,o),
(542,591,o),
(542,602,cs),
(542,631,o),
(549,662,o),
(542,688,c),
(534,693,o),
(516,698,o),
(504,694,cs),
(497,691,o),
(496,683,o),
(493,677,c),
(491,666,o),
(496,662,o),
(496,653,cs),
(496,580,o),
(499,520,o),
(494,448,c),
(499,428,o),
(497,403,o),
(492,385,c),
(496,374,o),
(491,364,o),
(491,352,cs),
(490,332,o),
(498,310,o),
(491,292,c),
(494,271,o),
(487,243,o),
(492,221,c),
(490,200,o),
(484,182,o),
(478,164,c),
(474,157,o),
(471,148,o),
(465,142,c),
(464,131,o),
(455,127,o),
(452,117,c),
(446,114,o),
(443,107,o),
(437,103,cs),
(427,95,l),
(423,92,ls),
(421,90,o),
(421,91,o),
(419,90,cs),
(407,83,o),
(396,74,o),
(383,67,c),
(373,64,o),
(366,60,o),
(358,55,c),
(350,55,o),
(345,52,o),
(337,51,cs),
(317,50,o),
(297,57,o),
(277,53,c),
(266,56,o),
(255,62,o),
(241,57,c),
(230,67,o),
(216,70,o),
(205,78,cs),
(196,85,o),
(190,95,o),
(178,98,c),
(169,113,o),
(154,123,o),
(143,135,c),
(138,147,o),
(135,161,o),
(128,171,c),
(130,185,o),
(123,190,o),
(120,199,c),
(122,209,o),
(120,224,o),
(117,234,c),
(120,247,o),
(116,258,o),
(116,269,cs),
(114,290,o),
(116,312,o),
(120,330,c),
(119,342,o),
(119,350,o),
(120,362,c),
(119,368,o),
(116,373,o),
(116,381,cs),
(118,404,o),
(115,428,o),
(121,448,c),
(117,468,o),
(119,489,o),
(119,508,cs),
(120,532,o),
(118,559,o),
(121,582,c),
(116,593,o),
(118,604,o),
(116,615,c),
(120,627,o),
(121,649,o),
(116,660,c),
(119,668,o),
(118,683,o),
(114,690,c),
(106,697,o),
(90,697,o),
(78,693,c),
(73,688,o),
(73,680,o),
(69,675,c),
(74,644,o),
(66,606,o),
(72,578,c),
(68,561,o),
(71,544,o),
(70,526,cs),
(69,471,o),
(68,416,o),
(68,368,cs),
(68,363,o),
(67,359,o),
(67,354,cs),
(66,342,o),
(68,330,o),
(68,318,cs),
(68,305,o),
(67,292,o),
(67,280,cs),
(67,272,o),
(69,264,o),
(68,256,cs),
(65,236,l)
);
}
);
width = 616;
},
{
associatedMasterId = "C5490108-C233-4ADF-8B6D-CFE8E3B23812";
layerId = "D1580C2B-5BB6-46B1-91BF-F93DAAA5DE86";
width = 13040;
}
);
unicode = 85;
},
{
glyphname = V;
kernLeft = V;
kernRight = V;
lastChange = "2023-09-12 03:35:01 +0000";
layers = (
{
anchors = (
{
name = bottom;
pos = (261,0);
},
{
name = top;
pos = (261,695);
}
);
layerId = "C5490108-C233-4ADF-8B6D-CFE8E3B23812";
shapes = (
{
closed = 1;
nodes = (
(485,555,o),
(484,560,o),
(485,564,cs),
(487,568,o),
(489,570,o),
(491,573,c),
(491,579,o),
(491,585,o),
(493,589,cs),
(496,594,o),
(497,600,o),
(501,603,c),
(501,618,o),
(506,629,o),
(510,639,c),
(513,652,o),
(521,660,o),
(521,676,c),
(520,682,o),
(518,686,o),
(515,690,c),
(506,693,o),
(492,691,o),
(480,691,c),
(469,684,o),
(463,672,o),
(465,652,c),
(455,630,o),
(442,608,o),
(441,583,c),
(433,565,o),
(422,549,o),
(422,522,c),
(405,482,l),
(401,468,o),
(397,452,o),
(389,441,c),
(391,428,o),
(385,422,o),
(381,414,c),
(377,387,o),
(365,370,o),
(359,347,c),
(350,338,o),
(351,325,o),
(348,314,cs),
(345,302,o),
(338,290,o),
(338,277,c),
(331,268,o),
(329,254,o),
(326,241,c),
(322,237,o),
(320,231,o),
(316,227,c),
(315,218,o),
(311,212,o),
(308,205,c),
(308,195,o),
(303,190,o),
(300,183,c),
(298,168,o),
(296,153,o),
(292,139,cs),
(287,124,o),
(284,109,o),
(276,99,c),
(269,101,o),
(270,111,o),
(267,117,cs),
(265,124,o),
(265,130,o),
(262,137,c),
(260,153,o),
(254,166,o),
(250,180,c),
(249,196,o),
(239,205,o),
(239,222,c),
(235,236,o),
(227,247,o),
(226,265,c),
(215,279,o),
(212,302,o),
(204,320,cs),
(197,339,o),
(194,362,o),
(185,378,cs),
(180,387,o),
(178,395,o),
(174,405,cs),
(171,411,l),
(171,417,o),
(170,421,o),
(168,425,c),
(162,451,l),
(159,457,ls),
(154,471,o),
(150,481,o),
(145,492,c),
(143,500,o),
(141,508,o),
(138,516,cs),
(131,539,ls),
(127,549,o),
(124,561,o),
(121,569,cs),
(118,576,o),
(115,579,o),
(113,585,cs),
(111,595,o),
(107,603,o),
(104,612,cs),
(100,621,o),
(98,631,o),
(93,639,c),
(90,656,o),
(83,678,o),
(74,692,c),
(55,701,o),
(23,699,o),
(25,672,cs),
(27,656,o),
(39,650,o),
(41,634,c),
(45,629,o),
(46,622,o),
(49,615,c),
(50,607,o),
(56,603,o),
(55,593,c),
(62,586,o),
(64,575,o),
(69,566,c),
(70,555,o),
(74,546,o),
(75,535,c),
(79,529,o),
(82,523,o),
(85,517,c),
(82,506,o),
(91,505,o),
(93,498,c),
(90,496,o),
(91,492,o),
(91,487,c),
(97,483,o),
(97,475,o),
(102,470,c),
(105,445,o),
(121,433,o),
(119,405,c),
(125,403,o),
(124,393,o),
(129,390,c),
(130,382,o),
(136,379,o),
(138,372,c),
(139,360,o),
(145,352,o),
(147,341,c),
(155,326,o),
(158,309,o),
(163,294,cs),
(168,276,o),
(176,260,o),
(177,243,c),
(181,238,o),
(185,232,o),
(187,225,c),
(187,215,o),
(189,207,o),
(193,200,c),
(192,189,o),
(200,186,o),
(198,173,c),
(202,167,o),
(206,161,o),
(209,154,c),
(210,141,o),
(216,134,o),
(215,121,c),
(221,110,o),
(225,96,o),
(231,83,c),
(233,76,o),
(237,72,o),
(237,63,c),
(241,58,o),
(244,52,o),
(243,42,c),
(248,33,o),
(254,25,o),
(254,11,c),
(260,2,o),
(259,-13,o),
(270,-16,c),
(289,-18,o),
(290,-2,o),
(298,6,c),
(303,28,o),
(309,49,o),
(319,66,c),
(320,76,o),
(324,83,o),
(324,94,c),
(330,107,o),
(334,123,o),
(343,135,c),
(345,153,o),
(351,167,o),
(357,180,c),
(357,186,o),
(360,191,o),
(359,198,c),
(368,214,o),
(370,237,o),
(381,251,c),
(381,271,o),
(392,281,o),
(393,301,c),
(408,326,o),
(408,367,o),
(426,388,c),
(426,398,o),
(430,404,o),
(433,411,cs),
(437,419,o),
(438,428,o),
(444,432,c),
(443,446,o),
(451,453,o),
(450,466,c),
(455,470,o),
(456,480,o),
(462,485,c),
(460,493,o),
(465,500,o),
(468,507,cs),
(471,515,o),
(472,523,o),
(474,531,c),
(484,551,l)
);
}
);
width = 546;
},
{
associatedMasterId = "C5490108-C233-4ADF-8B6D-CFE8E3B23812";
layerId = "D1580C2B-5BB6-46B1-91BF-F93DAAA5DE86";
width = 13140;
}
);
unicode = 86;
},
{
glyphname = W;
kernLeft = W;
kernRight = W;
lastChange = "2023-09-12 03:35:01 +0000";
layers = (
{
anchors = (
{
name = bottom;
pos = (508,0);
},
{
name = top;
pos = (508,695);
}
);
layerId = "C5490108-C233-4ADF-8B6D-CFE8E3B23812";
shapes = (
{
closed = 1;
nodes = (
(873,481,o),
(869,469,o),
(862,458,c),
(864,448,o),
(860,443,o),
(861,433,c),
(856,426,o),
(854,415,o),
(851,403,c),
(847,399,o),
(844,394,o),
(841,389,c),
(840,374,o),
(833,365,o),
(830,351,c),
(826,346,o),
(827,338,o),
(824,332,cs),
(821,326,o),
(817,322,o),
(815,317,c),
(816,310,o),
(812,309,o),
(811,304,c),
(811,290,l),
(804,277,o),
(803,258,o),
(794,247,c),
(794,235,l),
(783,219,o),
(783,192,o),
(772,176,c),
(771,162,o),
(768,149,o),
(763,140,c),
(762,133,o),
(760,124,o),
(757,117,cs),
(754,111,o),
(758,99,o),
(748,99,c),
(742,101,o),
(746,112,o),
(745,118,c),
(736,133,o),
(729,152,o),
(729,178,c),
(726,186,o),
(721,192,o),
(717,199,c),
(715,226,o),
(692,240,o),
(696,270,c),
(689,283,o),
(681,295,o),
(673,308,c),
(672,318,o),
(665,328,o),
(662,338,cs),
(658,348,o),
(659,360,o),
(652,369,c),
(646,390,o),
(640,410,o),
(640,437,c),
(636,443,o),
(628,445,o),
(624,451,c),
(622,462,o),
(614,468,o),
(610,478,c),
(608,501,o),
(600,519,o),
(590,535,c),
(590,545,o),
(583,549,o),
(580,557,c),
(576,580,o),
(561,592,o),
(560,618,c),
(551,632,o),
(546,649,o),
(542,667,c),
(537,673,o),
(534,682,o),
(531,691,c),
(523,694,o),
(526,705,o),
(514,705,cs),
(506,706,o),
(504,700,o),
(499,699,c),
(495,691,o),
(493,685,o),
(493,675,c),
(488,665,o),
(486,650,o),
(481,640,c),
(474,633,o),
(474,618,o),
(467,609,c),
(461,583,o),
(447,565,o),
(443,537,c),
(436,530,o),
(434,518,o),
(427,511,c),
(428,478,o),
(408,466,o),
(404,439,c),
(401,434,o),
(397,432,o),
(396,426,c),
(397,419,o),
(393,416,o),
(392,409,c),
(389,402,o),
(385,396,o),
(383,390,cs),
(381,382,l),
(377,374,o),
(370,367,o),
(365,360,c),
(363,335,o),
(354,317,o),
(350,295,c),
(338,278,o),
(334,253,o),
(321,237,c),
(322,230,o),
(319,228,o),
(320,221,c),
(313,214,o),
(312,203,o),
(309,193,cs),
(305,183,o),
(300,173,o),
(299,161,c),
(294,154,o),
(293,141,o),
(290,131,c),
(283,122,o),
(286,106,o),
(274,105,c),
(269,108,o),
(268,116,o),
(268,124,c),
(266,128,o),
(264,135,o),
(264,144,c),
(261,147,o),
(258,151,o),
(257,155,c),
(255,176,o),
(246,189,o),
(241,206,c),
(240,222,o),
(238,247,o),
(231,262,cs),
(223,278,o),
(217,295,o),
(209,311,cs),
(207,314,o),
(208,322,o),
(208,327,c),
(204,332,o),
(201,338,o),
(198,344,c),
(197,362,o),
(187,374,o),
(186,392,c),
(179,401,o),
(178,414,o),
(172,423,c),
(171,435,o),
(167,441,o),
(167,453,c),
(165,460,o),
(161,465,o),
(158,471,c),
(158,482,l),
(151,488,l),
(147,496,ls),
(141,508,o),
(136,523,o),
(136,540,c),
(134,545,o),
(130,548,o),
(129,554,c),
(130,564,o),
(127,568,o),
(128,578,c),
(123,585,o),
(119,597,o),
(115,605,c),
(112,609,l),
(106,621,o),
(103,633,o),
(106,647,c),
(102,658,o),
(92,664,o),
(88,676,cs),
(85,682,o),
(89,690,o),
(87,695,c),
(77,697,o),
(68,699,o),
(54,698,c),
(41,691,o),
(27,691,o),
(25,677,cs),
(24,669,o),
(30,665,o),
(32,662,c),
(34,656,o),
(37,650,o),
(39,646,cs),
(43,634,o),
(48,624,o),
(52,613,c),
(51,605,o),
(51,602,o),
(52,594,c),
(57,586,o),
(63,578,o),
(65,567,c),
(70,559,o),
(74,550,o),
(74,537,c),
(80,527,o),
(84,516,o),
(87,502,c),
(91,491,o),
(96,478,o),
(96,468,c),
(106,459,o),
(110,444,o),
(110,425,c),
(115,418,o),
(117,411,o),
(121,403,c),
(127,381,o),
(135,360,o),
(143,340,cs),
(144,336,o),
(145,333,o),
(145,327,c),
(153,314,o),
(157,296,o),
(164,280,c),
(163,271,o),
(167,265,o),
(167,256,c),
(174,244,o),
(177,227,o),
(186,215,c),
(186,205,o),
(191,199,o),
(190,187,c),
(198,177,o),
(203,162,o),
(206,152,cs),
(207,150,o),
(207,147,o),
(208,146,c),
(209,140,o),
(208,136,o),
(209,131,c),
(210,129,o),
(212,125,o),
(212,122,c),
(214,118,o),
(216,115,o),
(217,111,cs),
(218,105,o),
(219,99,o),
(218,92,c),
(224,89,o),
(222,79,o),
(228,76,c),
(236,57,l),
(239,52,o),
(241,45,o),
(244,38,cs),
(245,35,o),
(245,32,o),
(247,29,c),
(248,26,o),
(251,23,o),
(251,20,cs),
(253,5,o),
(259,-6,o),
(274,-9,c),
(285,-5,o),
(286,8,o),
(296,13,c),
(296,21,o),
(301,23,o),
(302,31,c),
(304,36,o),
(311,37,o),
(311,45,cs),
(313,63,o),
(323,74,o),
(324,94,c),
(330,103,o),
(334,115,o),
(341,125,c),
(341,141,o),
(352,155,o),
(353,174,c),
(358,180,o),
(359,190,o),
(365,194,c),
(367,207,o),
(372,215,o),
(378,223,c),
(380,239,o),
(387,250,o),
(392,262,c),
(398,283,o),
(404,304,o),
(413,322,c),
(415,332,o),
(421,340,o),
(425,349,cs),
(429,358,o),
(431,370,o),
(438,377,c),
(437,390,o),
(445,394,o),
(444,407,c),
(454,417,l),
(454,422,o),
(453,428,o),
(456,431,c),
(459,439,o),
(466,442,o),
(470,448,c),
(469,456,o),
(471,460,o),
(471,467,c),
(483,483,o),
(488,506,o),
(490,533,c),
(498,541,o),
(499,557,o),
(506,566,c),
(506,583,l),
(509,587,o),
(507,595,o),
(514,594,c),
(520,591,o),
(520,581,o),
(522,572,c),
(525,569,o),
(527,564,o),
(530,560,c),
(530,550,l),
(536,543,o),
(538,532,o),
(542,524,c),
(543,518,o),
(545,513,o),
(544,506,c),
(550,499,o),
(555,491,o),
(553,476,c),
(569,454,o),
(571,419,o),
(584,397,c),
(585,394,o),
(587,390,o),
(586,385,c),
(594,375,o),
(597,363,o),
(602,352,cs),
(608,338,ls),
(611,330,o),
(613,322,o),
(616,315,cs),
(617,313,o),
(620,312,o),
(621,309,cs),
(622,307,o),
(621,304,o),
(622,301,cs),
(625,294,o),
(628,286,o),
(630,279,cs),
(634,269,o),
(639,259,o),
(640,248,c),
(647,235,o),
(654,222,o),
(660,208,cs),
(663,200,o),
(665,191,o),
(666,181,c),
(681,158,l),
(679,143,o),
(688,140,o),
(687,126,c),
(694,112,o),
(704,97,o),
(704,73,c),
(711,64,o),
(717,55,o),
(723,44,c),
(727,29,o),
(730,13,o),
(735,-1,c),
(741,-4,o),
(749,-5,o),
(759,-5,c),
(773,1,o),
(778,18,o),
(778,39,c),
(792,54,o),
(793,81,o),
(805,97,c),
(802,103,o),
(804,106,o),
(805,112,c),
(811,122,o),
(819,130,o),
(818,146,c),
(823,152,o),
(826,160,o),
(829,168,cs),
(832,176,o),
(839,182,o),
(837,195,c),
(843,199,o),
(842,208,o),
(845,214,c),
(848,226,o),
(854,237,o),
(859,247,c),
(859,268,o),
(866,281,o),
(870,298,c),
(872,303,o),
(877,306,o),
(879,312,c),
(880,324,o),
(886,330,o),
(886,343,c),
(899,365,o),
(904,395,o),
(919,417,c),
(917,429,o),
(922,434,o),
(922,443,c),
(926,450,o),
(931,456,o),
(932,466,cs),
(934,475,o),
(941,479,o),
(940,492,c),
(945,496,o),
(946,504,o),
(951,509,c),
(953,528,o),
(960,543,o),
(965,561,c),
(969,568,o),
(971,577,o),
(973,586,c),
(978,591,o),
(979,602,o),
(981,611,c),
(987,622,o),
(992,634,o),
(998,644,c),
(997,658,o),
(1001,666,o),
(1001,678,c),
(998,684,o),
(994,689,o),
(988,693,c),
(972,697,o),
(950,695,o),
(940,685,c),
(933,672,o),
(935,659,o),
(932,643,c),
(926,633,o),
(919,625,o),
(921,608,c),
(918,602,o),
(913,598,o),
(911,591,cs),
(908,580,o),
(905,568,o),
(899,559,c),
(900,545,o),
(891,542,o),
(892,528,c),
(888,522,o),
(882,518,o),
(880,510,c),
(880,492,l)
);
}
);
width = 1026;
},
{
associatedMasterId = "C5490108-C233-4ADF-8B6D-CFE8E3B23812";
layerId = "D1580C2B-5BB6-46B1-91BF-F93DAAA5DE86";
width = 20620;
}
);
unicode = 87;
},
{
glyphname = Wdieresis;
kernLeft = W;
kernRight = W;
lastChange = "2023-09-12 03:35:01 +0000";
layers = (
{
layerId = "C5490108-C233-4ADF-8B6D-CFE8E3B23812";
shapes = (
{
ref = W;
},
{
closed = 1;
nodes = (
(658,657,o),
(649,671,o),
(646,686,c),
(640,690,o),
(637,697,o),
(629,700,c),
(613,702,o),
(605,697,o),
(598,692,c),
(593,690,o),
(589,689,o),
(585,686,c),
(587,672,o),
(580,665,o),
(580,653,c),
(584,645,o),
(587,638,o),
(593,632,c),
(610,623,o),
(642,625,o),
(653,639,c)
);
},
{
closed = 1;
nodes = (
(381,636,o),
(391,632,o),
(398,626,c),
(406,627,o),
(413,625,o),
(420,625,c),
(434,633,o),
(446,643,o),
(450,662,c),
(440,668,o),
(443,686,o),
(434,692,c),
(417,698,o),
(393,696,o),
(384,684,c),
(383,668,o),
(372,660,o),
(376,643,c)
);
}
);
width = 1026;
},
{
associatedMasterId = "C5490108-C233-4ADF-8B6D-CFE8E3B23812";
layerId = "D1580C2B-5BB6-46B1-91BF-F93DAAA5DE86";
width = 21300;
}
);
unicode = 7812;
},
{
glyphname = X;
kernLeft = X;
kernRight = X;
lastChange = "2023-09-12 03:35:01 +0000";
layers = (
{
anchors = (
{
name = bottom;
pos = (240,0);
},
{
name = top;
pos = (240,695);
}
);
layerId = "C5490108-C233-4ADF-8B6D-CFE8E3B23812";
shapes = (
{
closed = 1;
nodes = (
(222,424,o),
(221,433,o),
(217,441,cs),
(204,463,ls),
(196,478,o),
(188,493,o),
(179,508,c),
(181,520,o),
(173,521,o),
(174,532,c),
(168,539,o),
(165,548,o),
(160,556,cs),
(156,564,o),
(148,571,o),
(146,581,c),
(141,586,o),
(136,592,o),
(132,598,c),
(129,605,o),
(127,611,o),
(122,616,c),
(123,625,o),
(114,626,o),
(113,635,cs),
(113,646,l),
(104,654,o),
(98,665,o),
(92,677,c),
(82,687,o),
(63,687,o),
(45,685,c),
(40,680,o),
(33,677,o),
(33,668,cs),
(32,651,o),
(50,651,o),
(47,631,c),
(51,628,o),
(55,626,o),
(58,622,c),
(59,612,o),
(66,609,o),
(69,600,c),
(74,593,o),
(76,584,o),
(80,576,c),
(85,571,o),
(91,566,o),
(94,559,cs),
(96,555,o),
(97,551,o),
(97,545,c),
(102,539,o),
(105,532,o),
(110,526,c),
(112,514,o),
(119,507,o),
(124,497,cs),
(128,488,o),
(134,479,o),
(140,471,c),
(142,461,o),
(148,454,o),
(152,447,c),
(152,442,o),
(155,439,o),
(154,433,c),
(159,425,o),
(167,420,o),
(167,408,c),
(170,405,o),
(174,403,o),
(176,401,cs),
(177,400,o),
(176,398,o),
(177,397,cs),
(179,394,o),
(182,394,o),
(183,392,c),
(185,390,o),
(185,386,o),
(187,384,c),
(193,375,o),
(204,367,o),
(206,357,cs),
(209,336,o),
(190,323,o),
(185,302,c),
(178,294,o),
(166,291,o),
(161,280,cs),
(159,275,o),
(162,273,o),
(161,266,c),
(150,249,o),
(141,229,o),
(131,211,c),
(128,208,o),
(131,200,o),
(128,196,c),
(125,196,o),
(124,194,o),
(119,195,c),
(120,174,o),
(100,174,o),
(95,160,cs),
(94,155,o),
(98,155,o),
(97,149,c),
(93,142,o),
(89,135,o),
(84,130,c),
(81,118,o),
(74,111,o),
(71,100,cs),
(68,89,o),
(61,82,o),
(57,72,c),
(49,67,o),
(42,62,o),
(36,55,c),
(35,47,o),
(36,46,o),
(36,37,c),
(33,33,o),
(32,28,o),
(30,23,cs),
(28,18,o),
(25,13,o),
(25,6,c),
(33,-7,o),
(58,-9,o),
(74,-4,c),
(81,4,o),
(87,14,o),
(93,23,c),
(101,31,o),
(104,43,o),
(112,50,c),
(112,55,o),
(116,57,o),
(115,62,c),
(126,69,o),
(127,85,o),
(139,91,c),
(137,103,o),
(143,108,o),
(145,116,c),
(148,122,o),
(156,120,o),
(158,127,c),
(159,143,o),
(167,150,o),
(169,165,c),
(174,169,o),
(174,176,o),
(177,181,cs),
(178,182,o),
(181,182,o),
(182,184,cs),
(184,188,o),
(183,192,o),
(183,198,c),
(189,201,o),
(192,206,o),
(196,211,c),
(196,223,o),
(203,228,o),
(207,236,cs),
(211,243,o),
(214,253,o),
(220,259,c),
(221,272,o),
(225,282,o),
(237,285,c),
(244,284,o),
(245,276,o),
(250,272,c),
(251,265,o),
(256,261,o),
(258,255,cs),
(260,250,o),
(261,243,o),
(262,237,c),
(265,232,o),
(271,231,o),
(273,226,cs),
(276,219,o),
(280,212,o),
(284,206,c),
(287,197,o),
(291,189,o),
(295,182,cs),
(297,178,o),
(297,177,o),
(295,173,c),
(301,168,o),
(305,162,o),
(310,155,c),
(310,145,o),
(318,144,o),
(321,136,c),
(320,126,o),
(327,123,o),
(325,112,c),
(330,106,o),
(334,98,o),
(339,92,c),
(342,76,o),
(356,70,o),
(358,53,c),
(366,46,o),
(372,39,o),
(377,30,c),
(379,23,o),
(383,18,o),
(383,10,c),
(388,6,o),
(392,2,o),
(396,-3,c),
(408,-5,o),
(418,-9,o),
(434,-7,c),
(436,-4,o),
(439,0,o),
(443,2,c),
(444,14,o),
(440,21,o),
(442,34,c),
(438,40,o),
(430,42,o),
(427,49,cs),
(425,54,o),
(425,60,o),
(424,65,c),
(418,72,o),
(414,83,o),
(407,89,c),
(399,104,o),
(388,117,o),
(382,133,cs),
(380,139,o),
(381,150,o),
(379,157,c),
(374,166,o),
(365,172,o),
(358,180,c),
(354,192,o),
(345,198,o),
(343,212,c),
(335,220,o),
(332,233,o),
(324,240,c),
(324,245,o),
(322,248,o),
(321,251,c),
(309,264,o),
(301,282,o),
(291,297,c),
(284,318,o),
(271,333,o),
(267,356,c),
(272,368,o),
(279,377,o),
(286,387,cs),
(293,397,o),
(299,411,o),
(308,419,c),
(311,436,o),
(324,444,o),
(329,461,c),
(335,465,o),
(339,473,o),
(345,478,c),
(344,485,o),
(348,487,o),
(348,494,c),
(353,498,o),
(356,504,o),
(359,510,cs),
(362,516,o),
(365,527,o),
(368,530,c),
(370,531,o),
(369,532,o),
(370,533,c),
(374,540,o),
(381,544,o),
(386,551,c),
(387,559,o),
(393,564,o),
(394,574,c),
(396,579,o),
(399,584,o),
(403,588,c),
(405,602,o),
(413,609,o),
(416,622,c),
(421,628,o),
(427,634,o),
(428,644,c),
(435,651,o),
(444,657,o),
(442,674,c),
(440,675,o),
(439,677,o),
(439,680,c),
(427,688,o),
(406,688,o),
(389,683,c),
(383,674,o),
(379,664,o),
(371,658,c),
(372,651,o),
(367,649,o),
(368,642,c),
(352,617,o),
(341,588,o),
(321,566,c),
(318,550,o),
(311,538,o),
(307,524,c),
(303,519,o),
(299,514,o),
(294,510,c),
(291,498,o),
(284,489,o),
(277,482,c),
(273,470,o),
(266,461,o),
(264,447,c),
(257,438,o),
(256,423,o),
(244,419,c),
(230,419,l)
);
}
);
width = 468;
},
{
associatedMasterId = "C5490108-C233-4ADF-8B6D-CFE8E3B23812";
layerId = "D1580C2B-5BB6-46B1-91BF-F93DAAA5DE86";
width = 11780;
}
);
unicode = 88;
},
{
glyphname = Y;
kernLeft = Y;
kernRight = Y;
lastChange = "2023-09-12 03:35:01 +0000";
layers = (
{
anchors = (
{
name = bottom;
pos = (269,0);
},
{
name = top;
pos = (269,695);
},
{
name = topleft;
pos = (20,695);
}
);
layerId = "C5490108-C233-4ADF-8B6D-CFE8E3B23812";
shapes = (
{
closed = 1;
nodes = (
(470,585,o),
(475,587,o),
(474,594,c),
(483,599,o),
(487,609,o),
(490,621,c),
(492,624,o),
(497,626,o),
(501,629,c),
(501,639,o),
(507,642,o),
(510,649,cs),
(513,658,o),
(519,662,o),
(518,674,c),
(512,686,o),
(501,692,o),
(486,695,c),
(463,688,o),
(450,670,o),
(438,652,c),
(437,632,o),
(424,624,o),
(422,605,c),
(417,600,o),
(409,599,o),
(408,591,c),
(406,587,o),
(403,583,o),
(403,577,c),
(396,570,o),
(392,563,o),
(389,553,c),
(375,538,l),
(372,530,o),
(369,522,o),
(365,516,c),
(362,508,o),
(357,501,o),
(354,493,cs),
(347,479,o),
(337,467,o),
(332,451,c),
(321,440,o),
(315,423,o),
(305,410,c),
(299,394,o),
(292,380,o),
(283,369,c),
(281,363,o),
(279,358,o),
(272,358,cs),
(266,359,o),
(262,363,o),
(259,367,c),
(257,373,o),
(251,375,o),
(250,382,cs),
(248,390,o),
(253,394,o),
(250,400,c),
(249,410,o),
(241,414,o),
(236,421,c),
(233,428,o),
(228,432,o),
(225,438,c),
(223,440,o),
(223,444,o),
(223,448,c),
(215,457,o),
(210,468,o),
(203,478,c),
(199,482,o),
(195,487,o),
(192,492,cs),
(188,498,o),
(187,504,o),
(182,509,cs),
(178,513,o),
(179,523,o),
(174,527,c),
(172,532,o),
(169,538,o),
(165,542,c),
(161,555,o),
(152,564,o),
(146,575,c),
(142,587,o),
(137,596,o),
(130,605,c),
(124,623,l),
(122,624,o),
(119,625,o),
(119,629,c),
(116,634,o),
(109,637,o),
(105,644,cs),
(89,680,l),
(79,686,o),
(66,690,o),
(53,693,c),
(42,688,o),
(29,687,o),
(26,675,cs),
(23,666,o),
(33,659,o),
(34,648,c),
(43,640,o),
(48,628,o),
(56,618,c),
(59,602,o),
(71,594,o),
(74,577,c),
(78,574,o),
(83,571,o),
(85,565,cs),
(87,559,o),
(92,556,o),
(94,551,cs),
(100,540,o),
(107,531,o),
(111,517,c),
(114,512,o),
(121,510,o),
(124,504,c),
(127,491,o),
(136,485,o),
(141,475,c),
(141,468,o),
(146,466,o),
(145,459,c),
(155,450,o),
(163,437,o),
(170,424,c),
(175,420,o),
(178,413,o),
(181,407,cs),
(183,400,o),
(190,396,o),
(193,389,c),
(192,383,o),
(194,380,o),
(195,375,cs),
(197,368,o),
(207,368,o),
(209,359,cs),
(210,355,o),
(210,348,o),
(212,344,cs),
(223,328,ls),
(227,323,o),
(234,321,o),
(236,314,c),
(240,306,o),
(240,292,o),
(245,284,c),
(246,264,o),
(248,249,o),
(248,232,c),
(247,226,o),
(244,222,o),
(243,216,c),
(246,201,o),
(246,184,o),
(248,169,c),
(246,158,o),
(245,155,o),
(247,144,c),
(242,136,o),
(244,121,o),
(240,112,c),
(244,105,o),
(244,95,o),
(246,87,c),
(237,72,o),
(245,51,o),
(248,35,c),
(246,27,o),
(244,20,o),
(243,11,c),
(246,9,o),
(248,2,o),
(249,0,c),
(254,-5,o),
(270,-8,o),
(276,-8,cs),
(288,-7,o),
(297,2,o),
(306,5,c),
(304,14,o),
(301,20,o),
(298,28,c),
(297,57,o),
(295,85,o),
(295,114,c),
(297,127,o),
(300,142,o),
(300,156,cs),
(300,179,o),
(293,202,o),
(300,224,c),
(296,250,o),
(296,273,o),
(297,303,c),
(303,319,o),
(320,322,o),
(327,336,c),
(331,337,o),
(328,345,o),
(329,348,c),
(333,353,o),
(336,360,o),
(341,364,c),
(343,374,o),
(347,380,o),
(352,386,c),
(355,395,o),
(361,401,o),
(367,407,c),
(369,413,o),
(374,416,o),
(373,424,c),
(386,432,o),
(390,449,o),
(401,457,c),
(407,473,o),
(418,486,o),
(424,502,c),
(432,517,o),
(441,531,o),
(450,543,c),
(452,550,o),
(455,555,o),
(457,562,c),
(471,578,l)
);
}
);
width = 543;
},
{
associatedMasterId = "C5490108-C233-4ADF-8B6D-CFE8E3B23812";
layerId = "D1580C2B-5BB6-46B1-91BF-F93DAAA5DE86";
width = 12040;
}
);
unicode = 89;
},
{
glyphname = Z;
kernLeft = Z;
kernRight = Z;
lastChange = "2023-09-12 03:35:01 +0000";
layers = (
{
anchors = (
{
name = bottom;
pos = (275,0);
},
{
name = center;
pos = (275,348);
},
{
name = top;
pos = (275,695);
}
);
layerId = "C5490108-C233-4ADF-8B6D-CFE8E3B23812";
shapes = (
{
closed = 1;
nodes = (
(243,265,ls),
(246,269,o),
(248,272,o),
(249,275,c),
(253,276,l),
(255,281,o),
(255,287,o),
(257,292,c),
(267,300,o),
(270,313,o),
(281,319,c),
(284,337,o),
(301,341,o),
(303,360,c),
(319,377,l),
(319,383,o),
(322,387,o),
(324,391,cs),
(326,396,o),
(327,402,o),
(331,406,cs),
(333,409,o),
(338,412,o),
(341,415,cs),
(343,417,o),
(343,419,o),
(344,421,cs),
(349,428,l),
(353,437,o),
(359,444,o),
(363,453,cs),
(368,461,o),
(377,466,o),
(381,475,cs),
(387,492,l),
(394,499,o),
(397,508,o),
(406,513,c),
(407,520,o),
(410,527,o),
(414,532,c),
(420,532,o),
(421,540,o),
(426,544,c),
(430,560,l),
(434,565,o),
(439,571,o),
(445,575,c),
(449,590,o),
(457,600,o),
(467,609,c),
(469,619,o),
(475,625,o),
(477,635,c),
(484,647,o),
(500,650,o),
(501,668,c),
(500,678,o),
(493,682,o),
(488,687,c),
(477,691,o),
(458,688,o),
(444,689,cs),
(437,690,o),
(435,693,o),
(427,694,cs),
(411,695,o),
(393,692,o),
(377,693,cs),
(371,693,o),
(364,694,o),
(358,694,cs),
(348,694,o),
(338,691,o),
(327,691,cs),
(313,690,o),
(300,693,o),
(286,693,cs),
(241,692,o),
(193,692,o),
(152,688,cs),
(121,687,o),
(91,692,o),
(62,688,c),
(57,683,o),
(55,674,o),
(54,665,cs),
(53,652,o),
(58,647,o),
(62,639,c),
(69,635,o),
(83,637,o),
(92,635,cs),
(107,630,o),
(127,628,o),
(143,631,c),
(159,630,o),
(170,629,o),
(184,633,c),
(193,629,o),
(206,631,o),
(212,631,cs),
(215,631,o),
(216,630,o),
(218,629,c),
(223,629,o),
(227,628,o),
(231,628,cs),
(241,628,o),
(249,633,o),
(259,634,cs),
(283,637,o),
(307,634,o),
(333,634,c),
(340,635,o),
(344,637,o),
(351,637,cs),
(362,637,o),
(372,638,o),
(382,639,cs),
(393,639,o),
(406,641,o),
(409,633,c),
(405,618,o),
(393,607,o),
(387,596,cs),
(381,584,l),
(378,580,o),
(373,578,o),
(371,574,c),
(365,555,o),
(355,540,o),
(341,529,c),
(334,506,o),
(318,492,o),
(311,469,c),
(301,461,o),
(296,447,o),
(288,437,cs),
(279,427,o),
(273,414,o),
(265,402,c),
(263,396,o),
(259,391,o),
(254,387,c),
(253,379,o),
(248,374,o),
(245,368,c),
(236,358,o),
(232,343,o),
(221,336,c),
(221,326,o),
(214,322,o),
(213,313,c),
(208,307,o),
(203,301,o),
(199,295,cs),
(195,289,o),
(192,283,o),
(190,278,c),
(186,276,l),
(180,267,l),
(174,254,l),
(169,249,o),
(165,243,o),
(163,237,c),
(158,235,o),
(159,227,o),
(155,224,c),
(150,222,o),
(147,217,o),
(145,212,cs),
(142,207,o),
(141,200,o),
(139,194,c),
(123,177,o),
(109,155,o),
(97,132,c),
(89,126,o),
(85,117,o),
(82,111,cs),
(79,106,o),
(75,104,o),
(72,100,cs),
(68,95,o),
(66,88,o),
(63,83,cs),
(60,77,o),
(55,72,o),
(52,67,cs),
(48,60,o),
(49,52,o),
(44,45,cs),
(40,37,o),
(28,37,o),
(25,28,cs),
(23,22,o),
(21,17,o),
(20,10,c),
(25,0,o),
(34,-4,o),
(46,-5,c),
(48,-6,o),
(50,-4,o),
(54,-4,cs),
(56,-4,o),
(60,-5,o),
(63,-5,cs),
(89,-6,o),
(106,-2,o),
(128,-2,cs),
(131,-2,o),
(133,-4,o),
(137,-4,cs),
(141,-4,o),
(145,-3,o),
(148,-3,cs),
(172,-4,o),
(192,-3,o),
(214,-3,cs),
(252,-1,o),
(292,-6,o),
(323,-4,c),
(339,-8,o),
(357,-4,o),
(374,-9,c),
(379,-8,o),
(382,-5,o),
(388,-4,c),
(424,-6,o),
(472,-12,o),
(495,8,c),
(505,30,o),
(499,58,o),
(478,60,cs),
(465,62,o),
(461,54,o),
(451,54,cs),
(403,56,o),
(359,55,o),
(312,59,c),
(300,54,o),
(283,53,o),
(268,56,cs),
(260,57,o),
(259,51,o),
(251,53,cs),
(241,55,o),
(229,55,o),
(219,57,c),
(212,53,o),
(202,56,o),
(194,54,cs),
(191,53,o),
(190,51,o),
(186,51,cs),
(169,49,o),
(151,51,o),
(134,49,c),
(127,50,o),
(122,48,o),
(115,48,c),
(111,52,o),
(105,55,o),
(104,62,c),
(106,75,o),
(115,81,o),
(121,89,c),
(126,100,o),
(135,104,o),
(139,116,c),
(145,117,o),
(151,121,o),
(152,128,c),
(158,132,o),
(162,138,o),
(166,142,c),
(169,157,o),
(181,163,o),
(185,177,c),
(191,181,o),
(195,187,o),
(201,191,c),
(202,200,o),
(209,208,o),
(212,213,cs),
(214,218,o),
(216,224,o),
(218,227,cs),
(222,233,o),
(228,237,o),
(232,243,cs),
(233,245,o),
(233,247,o),
(234,248,c),
(238,256,l)
);
}
);
width = 551;
},
{
associatedMasterId = "C5490108-C233-4ADF-8B6D-CFE8E3B23812";
layerId = "D1580C2B-5BB6-46B1-91BF-F93DAAA5DE86";
width = 11560;
}
);
unicode = 90;
},
{
glyphname = a;
kernLeft = a;
kernRight = n;
lastChange = "2023-09-12 03:35:01 +0000";
layers = (
{
anchors = (
{
name = bottom;
pos = (245,0);
},
{
name = ogonek;
pos = (419,10);
},
{
name = top;
pos = (245,436);
}
);
layerId = "C5490108-C233-4ADF-8B6D-CFE8E3B23812";
shapes = (
{
closed = 1;
nodes = (
(421,2,o),
(430,0,c),
(437,4,o),
(446,6,o),
(449,14,cs),
(455,26,o),
(450,44,o),
(452,55,c),
(448,62,o),
(448,74,o),
(446,83,c),
(450,98,o),
(448,112,o),
(448,129,cs),
(447,137,o),
(452,139,o),
(451,146,cs),
(444,199,o),
(448,251,o),
(444,306,c),
(449,321,o),
(449,344,o),
(446,359,c),
(448,363,o),
(448,370,o),
(449,375,c),
(446,391,o),
(449,414,o),
(443,427,c),
(434,434,o),
(411,437,o),
(403,427,c),
(401,420,o),
(404,410,o),
(403,400,cs),
(403,389,o),
(403,374,o),
(397,369,c),
(382,373,o),
(378,390,o),
(369,402,c),
(358,405,o),
(350,411,o),
(342,416,cs),
(334,422,o),
(323,425,o),
(315,432,c),
(302,431,o),
(292,434,o),
(282,436,cs),
(244,440,o),
(200,440,o),
(170,427,c),
(161,426,o),
(153,423,o),
(145,421,c),
(130,408,o),
(116,395,o),
(99,384,c),
(91,375,o),
(82,366,o),
(76,354,c),
(67,345,o),
(63,331,o),
(54,321,c),
(49,294,o),
(38,271,o),
(39,238,c),
(37,232,o),
(37,224,o),
(35,217,c),
(38,207,o),
(36,195,o),
(36,183,cs),
(37,169,o),
(39,156,o),
(36,143,c),
(38,134,o),
(47,132,o),
(49,123,cs),
(51,103,o),
(62,92,o),
(66,74,c),
(72,66,o),
(79,59,o),
(85,52,c),
(90,43,o),
(101,39,o),
(106,30,c),
(109,27,o),
(117,28,o),
(118,23,c),
(122,21,o),
(124,17,o),
(128,14,c),
(136,14,o),
(139,9,o),
(145,8,c),
(148,2,o),
(159,5,o),
(162,0,c),
(175,1,o),
(183,-3,o),
(192,-5,c),
(205,-4,o),
(215,-6,o),
(224,-10,c),
(232,-5,o),
(239,-8,o),
(247,-10,c),
(266,-4,o),
(292,-6,o),
(310,0,cs),
(319,4,o),
(326,9,o),
(334,14,c),
(339,16,o),
(345,15,o),
(350,17,c),
(359,23,o),
(366,30,o),
(375,36,c),
(384,46,o),
(388,62,o),
(405,64,c),
(409,48,o),
(402,22,o),
(403,8,c),
(410,2,o)
);
},
{
closed = 1;
nodes = (
(138,82,o),
(136,82,o),
(134,83,cs),
(126,89,o),
(118,100,o),
(109,107,c),
(105,117,o),
(101,126,o),
(95,134,c),
(93,143,o),
(91,151,o),
(87,157,c),
(86,172,o),
(84,183,o),
(82,197,cs),
(77,223,o),
(90,250,o),
(93,277,c),
(100,289,o),
(107,299,o),
(110,315,c),
(116,321,o),
(124,326,o),
(126,336,c),
(136,341,o),
(143,349,o),
(150,358,c),
(164,363,o),
(174,372,o),
(186,380,c),
(191,380,o),
(196,382,o),
(203,381,c),
(212,383,o),
(216,390,o),
(225,392,c),
(249,388,o),
(286,397,o),
(298,381,c),
(307,382,o),
(312,380,o),
(318,378,cs),
(325,377,o),
(325,371,o),
(331,370,c),
(334,367,o),
(340,366,o),
(345,364,c),
(370,340,l),
(371,334,o),
(378,333,o),
(378,326,c),
(381,321,o),
(385,318,o),
(388,313,c),
(390,303,o),
(394,293,o),
(400,287,c),
(401,273,o),
(405,264,o),
(408,254,c),
(409,219,o),
(408,193,o),
(405,162,cs),
(403,149,o),
(395,141,o),
(394,127,c),
(388,122,o),
(384,114,o),
(381,105,c),
(368,91,o),
(352,80,o),
(339,66,c),
(329,64,o),
(322,59,o),
(315,53,c),
(307,53,o),
(302,51,o),
(298,47,c),
(289,48,o),
(283,46,o),
(276,44,c),
(250,44,o),
(228,41,o),
(205,45,c),
(184,51,o),
(166,59,o),
(151,71,cs),
(140,80,ls)
);
}
);
width = 502;
},
{
associatedMasterId = "C5490108-C233-4ADF-8B6D-CFE8E3B23812";
layerId = "D1580C2B-5BB6-46B1-91BF-F93DAAA5DE86";
width = 10740;
}
);
unicode = 97;
},
{
glyphname = ae;
kernLeft = a;
kernRight = e;
lastChange = "2023-09-12 03:35:01 +0000";
layers = (
{
anchors = (
{
name = bottom;
pos = (385,0);
},
{
name = top;
pos = (385,436);
}
);
layerId = "C5490108-C233-4ADF-8B6D-CFE8E3B23812";
shapes = (
{
closed = 1;
nodes = (
(464,442,o),
(453,436,o),
(443,434,c),
(430,421,o),
(416,410,o),
(402,399,cs),
(398,395,o),
(396,388,o),
(391,385,cs),
(386,381,o),
(385,373,o),
(375,374,c),
(372,394,o),
(370,417,o),
(373,435,c),
(371,440,o),
(366,444,o),
(362,448,c),
(335,446,o),
(306,448,o),
(276,449,cs),
(269,449,o),
(266,446,o),
(260,446,cs),
(241,445,o),
(223,451,o),
(206,446,c),
(180,452,o),
(152,447,o),
(124,446,c),
(112,451,o),
(98,452,o),
(87,446,c),
(85,440,o),
(80,438,o),
(79,432,c),
(81,425,o),
(79,414,o),
(82,407,c),
(89,399,o),
(101,397,o),
(115,396,c),
(121,399,o),
(128,401,o),
(135,404,c),
(160,401,o),
(191,403,o),
(221,404,c),
(235,395,o),
(263,401,o),
(280,396,c),
(290,401,o),
(303,402,o),
(318,402,c),
(322,399,o),
(328,398,o),
(329,393,cs),
(333,366,o),
(333,337,o),
(332,308,cs),
(332,264,o),
(336,205,o),
(331,161,c),
(326,153,o),
(323,145,o),
(323,133,c),
(312,121,o),
(303,108,o),
(295,93,c),
(289,91,o),
(283,88,o),
(279,84,cs),
(275,79,o),
(268,78,o),
(263,74,c),
(222,63,l),
(201,63,o),
(179,62,o),
(161,65,c),
(146,72,o),
(131,80,o),
(115,85,c),
(113,89,o),
(110,91,o),
(105,92,c),
(99,102,o),
(90,108,o),
(83,118,c),
(79,126,o),
(76,135,o),
(72,144,c),
(69,165,o),
(69,185,o),
(74,205,c),
(81,217,o),
(87,230,o),
(91,245,c),
(97,248,o),
(100,254,o),
(105,257,cs),
(112,260,o),
(114,267,o),
(120,270,c),
(128,272,o),
(133,278,o),
(142,281,c),
(165,281,ls),
(171,281,o),
(171,275,o),
(178,276,c),
(191,282,o),
(217,276,o),
(228,284,c),
(232,295,o),
(229,311,o),
(225,319,c),
(220,322,o),
(214,325,o),
(206,327,cs),
(198,328,o),
(189,327,o),
(181,330,c),
(154,326,o),
(127,321,o),
(104,314,c),
(101,309,o),
(93,309,o),
(90,304,c),
(85,301,o),
(81,297,o),
(75,293,c),
(66,280,o),
(56,266,o),
(49,249,cs),
(41,233,o),
(39,211,o),
(31,194,c),
(31,177,o),
(26,165,o),
(23,150,c),
(25,140,o),
(29,134,o),
(33,126,c),
(34,121,o),
(32,119,o),
(31,115,c),
(41,110,o),
(39,95,o),
(42,84,c),
(46,77,o),
(54,74,o),
(60,70,c),
(63,58,o),
(74,54,o),
(79,43,c),
(97,32,o),
(117,22,o),
(139,14,c),
(157,12,o),
(178,12,o),
(194,7,c),
(204,8,o),
(213,9,o),
(222,7,c),
(232,10,o),
(241,12,o),
(255,11,c),
(269,20,o),
(284,26,o),
(302,30,c),
(311,38,o),
(317,48,o),
(329,52,c),
(334,52,o),
(333,56,o),
(334,63,c),
(341,67,o),
(342,76,o),
(348,81,c),
(350,87,o),
(350,96,o),
(356,98,c),
(358,98,o),
(362,114,o),
(364,111,cs),
(366,108,o),
(369,98,o),
(372,98,c),
(384,87,o),
(391,70,o),
(405,60,c),
(412,60,o),
(411,52,o),
(418,51,c),
(436,41,o),
(450,28,o),
(468,19,c),
(489,17,o),
(507,11,o),
(528,8,c),
(541,11,o),
(563,10,o),
(577,8,c),
(589,16,o),
(603,21,o),
(621,24,c),
(633,31,o),
(645,38,o),
(659,44,c),
(667,45,o),
(680,51,o),
(682,57,c),
(691,62,o),
(704,82,o),
(712,85,cs),
(718,88,o),
(724,97,o),
(725,106,c),
(730,108,o),
(731,117,o),
(731,117,c),
(731,117,o),
(729,143,o),
(725,153,c),
(719,158,o),
(712,160,o),
(701,159,c),
(695,156,o),
(693,149,o),
(689,144,c),
(682,141,o),
(681,133,o),
(676,128,c),
(669,116,o),
(662,104,o),
(651,96,cs),
(636,86,o),
(615,82,o),
(604,68,c),
(590,68,o),
(578,61,o),
(564,60,cs),
(561,60,o),
(557,62,o),
(553,62,cs),
(548,62,o),
(542,60,o),
(537,60,cs),
(532,61,o),
(526,64,o),
(520,63,c),
(496,66,l),
(485,73,o),
(472,76,o),
(462,84,c),
(448,88,o),
(442,100,o),
(429,104,c),
(424,114,o),
(414,119,o),
(408,128,c),
(403,139,o),
(394,146,o),
(388,156,c),
(384,168,o),
(377,186,o),
(375,202,cs),
(374,213,o),
(373,226,o),
(380,234,c),
(398,231,o),
(418,238,o),
(440,237,cs),
(459,235,o),
(481,235,o),
(501,237,c),
(513,232,o),
(533,233,o),
(545,237,c),
(570,230,o),
(601,235,o),
(626,232,c),
(636,236,o),
(688,237,o),
(688,237,c),
(688,237,o),
(733,235,o),
(733,249,cs),
(733,264,o),
(729,295,o),
(729,295,c),
(729,295,o),
(720,328,o),
(722,342,c),
(720,351,o),
(714,354,o),
(714,364,c),
(707,370,o),
(703,379,o),
(698,386,c),
(684,397,o),
(668,407,o),
(657,421,c),
(645,423,o),
(638,433,o),
(627,438,cs),
(616,444,o),
(603,444,o),
(591,451,c),
(579,450,o),
(568,457,o),
(556,457,c),
(553,458,o),
(547,456,o),
(544,456,cs),
(533,455,o),
(522,457,o),
(512,456,cs),
(506,455,o),
(501,453,o),
(495,451,cs),
(476,446,ls)
);
},
{
closed = 1;
nodes = (
(688,346,o),
(694,308,o),
(695,295,c),
(693,289,o),
(689,285,o),
(690,276,c),
(689,270,o),
(643,267,o),
(643,267,c),
(642,267,o),
(602,271,o),
(588,267,c),
(583,269,o),
(577,271,o),
(570,271,cs),
(542,268,o),
(510,268,o),
(479,267,c),
(473,268,o),
(468,270,o),
(462,270,c),
(445,267,o),
(428,271,o),
(411,270,cs),
(400,269,o),
(388,264,o),
(380,270,c),
(375,298,o),
(397,312,o),
(402,334,c),
(413,344,o),
(424,355,o),
(432,368,c),
(447,375,o),
(459,385,o),
(476,391,cs),
(492,396,o),
(507,407,o),
(526,408,cs),
(540,409,o),
(554,402,o),
(569,407,c),
(579,402,o),
(589,396,o),
(607,397,c),
(618,392,o),
(628,384,o),
(637,375,c),
(645,373,o),
(651,368,o),
(659,366,c),
(681,345,l)
);
}
);
width = 769;
},
{
associatedMasterId = "C5490108-C233-4ADF-8B6D-CFE8E3B23812";
layerId = "D1580C2B-5BB6-46B1-91BF-F93DAAA5DE86";
width = 16300;
}
);
unicode = 230;
},
{
glyphname = b;
kernLeft = h;
kernRight = o;
lastChange = "2023-09-12 03:35:01 +0000";
layers = (
{
anchors = (
{
name = bottom;
pos = (244,0);
},
{
name = center;
pos = (244,218);
},
{
name = top;
pos = (244,436);
}
);
layerId = "C5490108-C233-4ADF-8B6D-CFE8E3B23812";
shapes = (
{
closed = 1;
nodes = (
(306,438,o),
(292,444,o),
(277,444,c),
(270,445,o),
(263,443,o),
(255,443,cs),
(248,443,o),
(241,445,o),
(235,444,c),
(219,444,o),
(204,438,o),
(189,436,c),
(181,432,o),
(175,425,o),
(162,425,c),
(158,420,o),
(156,413,o),
(148,411,c),
(132,397,l),
(126,394,o),
(124,386,o),
(116,384,c),
(111,380,o),
(109,371,o),
(99,372,c),
(86,396,o),
(98,435,o),
(93,468,c),
(95,476,o),
(97,485,o),
(98,495,c),
(92,513,o),
(100,533,o),
(93,553,c),
(98,567,o),
(96,585,o),
(96,597,cs),
(96,602,o),
(98,606,o),
(98,610,cs),
(96,661,o),
(96,713,o),
(96,760,cs),
(96,769,o),
(101,780,o),
(93,788,c),
(77,793,o),
(60,786,o),
(50,780,c),
(44,767,o),
(43,737,o),
(49,722,c),
(44,708,o),
(50,693,o),
(50,678,cs),
(50,672,o),
(49,666,o),
(49,660,cs),
(47,637,o),
(53,612,o),
(47,596,c),
(53,568,o),
(46,533,o),
(50,503,c),
(52,495,o),
(46,495,o),
(47,487,c),
(56,472,o),
(49,451,o),
(50,430,cs),
(51,419,o),
(54,408,o),
(53,399,cs),
(53,391,o),
(49,384,o),
(49,378,c),
(51,372,o),
(52,364,o),
(53,358,c),
(49,326,o),
(53,295,o),
(50,266,c),
(51,259,o),
(55,254,o),
(55,246,c),
(48,218,o),
(57,188,o),
(50,162,c),
(56,139,o),
(52,108,o),
(55,85,c),
(51,77,o),
(50,67,o),
(49,57,cs),
(49,48,o),
(56,46,o),
(57,38,c),
(55,29,o),
(51,17,o),
(55,8,c),
(61,0,o),
(80,0,o),
(90,4,c),
(92,7,o),
(100,5,o),
(99,11,c),
(105,15,o),
(100,29,o),
(99,36,c),
(104,44,o),
(95,57,o),
(101,64,c),
(112,62,o),
(116,52,o),
(121,44,c),
(133,38,o),
(141,28,o),
(150,19,c),
(159,17,o),
(165,11,o),
(173,8,c),
(175,3,o),
(180,11,o),
(183,6,c),
(186,5,o),
(186,0,o),
(192,1,cs),
(227,3,o),
(263,-2,o),
(299,3,c),
(307,7,o),
(316,9,o),
(328,8,c),
(338,16,o),
(351,15,o),
(362,20,cs),
(374,26,o),
(381,38,o),
(392,44,c),
(396,49,o),
(401,53,o),
(406,57,cs),
(412,61,o),
(414,67,o),
(422,69,c),
(424,75,o),
(427,79,o),
(432,82,c),
(434,89,o),
(437,97,o),
(443,101,c),
(441,114,o),
(448,118,o),
(451,127,c),
(450,139,o),
(455,143,o),
(452,153,c),
(459,166,o),
(461,185,o),
(460,206,c),
(454,219,o),
(457,232,o),
(457,250,c),
(453,265,o),
(452,274,o),
(452,291,c),
(447,307,o),
(444,323,o),
(438,337,c),
(432,341,o),
(431,350,o),
(427,356,c),
(422,361,o),
(418,367,o),
(414,373,c),
(407,379,o),
(400,386,o),
(394,394,c),
(384,401,o),
(372,406,o),
(365,416,c),
(320,438,l)
);
},
{
closed = 1;
nodes = (
(92,225,o),
(94,248,o),
(99,268,c),
(99,283,o),
(106,292,o),
(107,306,c),
(115,317,o),
(125,326,o),
(131,340,c),
(170,367,l),
(181,377,o),
(199,381,o),
(214,388,c),
(246,388,l),
(254,386,o),
(254,393,o),
(261,392,cs),
(275,391,o),
(290,390,o),
(302,388,c),
(319,379,o),
(338,371,o),
(353,361,c),
(356,355,o),
(362,351,o),
(364,343,c),
(369,339,o),
(376,337,o),
(381,332,c),
(389,317,o),
(396,301,o),
(405,287,c),
(402,263,o),
(414,253,o),
(414,233,c),
(416,233,o),
(416,232,o),
(416,231,cs),
(414,200,o),
(408,173,o),
(403,145,c),
(397,135,o),
(390,126,o),
(388,113,c),
(377,105,o),
(369,95,o),
(358,88,cs),
(353,84,o),
(351,76,o),
(347,72,c),
(338,68,o),
(328,66,o),
(321,60,c),
(307,60,o),
(292,51,o),
(276,50,cs),
(268,50,o),
(260,52,o),
(252,52,cs),
(243,52,o),
(235,50,o),
(227,50,cs),
(206,52,o),
(189,62,o),
(173,68,c),
(167,69,o),
(164,74,o),
(161,77,c),
(151,80,o),
(148,91,o),
(140,96,cs),
(136,99,o),
(129,99,o),
(124,104,c),
(122,113,o),
(118,120,o),
(112,126,c),
(111,140,o),
(104,150,o),
(99,161,c),
(93,200,l)
);
}
);
width = 495;
},
{
associatedMasterId = "C5490108-C233-4ADF-8B6D-CFE8E3B23812";
layerId = "D1580C2B-5BB6-46B1-91BF-F93DAAA5DE86";
width = 10640;
}
);
unicode = 98;
},
{
glyphname = c;
kernLeft = o;
kernRight = c;
lastChange = "2023-09-12 03:35:01 +0000";
layers = (
{
anchors = (
{
name = bottom;
pos = (251,0);
},
{
name = top;
pos = (253,436);
}
);
layerId = "C5490108-C233-4ADF-8B6D-CFE8E3B23812";
shapes = (
{
closed = 1;
nodes = (
(386,406,o),
(384,412,o),
(381,414,cs),
(369,425,o),
(351,431,o),
(335,438,cs),
(318,444,o),
(297,446,o),
(279,451,c),
(244,449,o),
(209,447,o),
(179,441,c),
(171,438,o),
(164,434,o),
(157,430,c),
(131,428,o),
(125,407,o),
(108,395,cs),
(98,387,o),
(91,375,o),
(80,367,c),
(78,359,o),
(72,354,o),
(69,347,c),
(67,338,o),
(59,335,o),
(56,328,c),
(50,301,o),
(41,276,o),
(41,243,c),
(28,217,o),
(40,189,o),
(41,159,c),
(44,151,o),
(52,147,o),
(50,134,c),
(56,131,o),
(58,124,o),
(61,118,c),
(67,114,o),
(72,110,o),
(74,102,c),
(84,93,o),
(89,80,o),
(96,68,c),
(100,63,o),
(106,60,o),
(112,57,c),
(114,49,o),
(120,44,o),
(124,38,c),
(133,35,o),
(140,30,o),
(149,28,c),
(154,21,o),
(167,21,o),
(173,16,c),
(183,15,o),
(190,13,o),
(198,11,c),
(240,7,o),
(283,8,o),
(324,12,c),
(329,16,o),
(336,17,o),
(343,19,c),
(358,31,o),
(379,38,o),
(392,52,c),
(391,57,o),
(397,62,o),
(398,69,cs),
(401,85,o),
(398,106,o),
(386,110,c),
(372,108,o),
(369,94,o),
(357,90,cs),
(352,88,o),
(348,85,o),
(340,85,c),
(334,79,o),
(327,73,o),
(320,69,c),
(311,66,o),
(302,64,o),
(294,60,c),
(282,60,o),
(271,59,o),
(261,57,c),
(253,59,o),
(242,61,o),
(233,58,c),
(225,62,o),
(213,61,o),
(203,63,c),
(197,67,o),
(189,68,o),
(182,72,c),
(178,77,o),
(170,78,o),
(165,80,c),
(164,83,l),
(160,85,o),
(154,88,o),
(153,90,c),
(150,92,o),
(146,91,o),
(145,94,c),
(139,99,o),
(134,103,o),
(127,107,c),
(120,119,o),
(109,128,o),
(102,142,cs),
(93,156,o),
(84,175,o),
(82,195,c),
(81,198,o),
(80,199,o),
(80,202,c),
(80,202,o),
(82,205,o),
(82,208,c),
(78,220,l),
(76,238,o),
(79,251,o),
(83,265,cs),
(86,274,o),
(90,282,o),
(91,291,c),
(101,306,o),
(109,323,o),
(119,337,c),
(133,346,o),
(143,359,o),
(156,369,c),
(168,372,o),
(176,379,o),
(186,384,c),
(199,384,o),
(205,391,o),
(219,391,c),
(225,396,o),
(233,400,o),
(242,402,c),
(257,400,o),
(266,392,o),
(282,395,c),
(296,388,o),
(314,385,o),
(334,383,c),
(351,374,o),
(359,355,o),
(386,356,c),
(396,362,o),
(400,373,o),
(397,388,cs),
(397,389,o),
(393,390,o),
(392,392,cs),
(389,400,ls)
);
}
);
width = 429;
},
{
associatedMasterId = "C5490108-C233-4ADF-8B6D-CFE8E3B23812";
layerId = "D1580C2B-5BB6-46B1-91BF-F93DAAA5DE86";
width = 8500;
}
);
unicode = 99;
},
{
glyphname = d;
kernLeft = o;
kernRight = l;
lastChange = "2023-09-12 03:35:01 +0000";
layers = (
{
anchors = (
{
name = bottom;
pos = (257,0);
},
{
name = center;
pos = (257,218);
},
{
name = top;
pos = (257,750);
},
{
name = topright;
pos = (492,750);
}
);
layerId = "C5490108-C233-4ADF-8B6D-CFE8E3B23812";
shapes = (
{
closed = 1;
nodes = (
(444,688,o),
(441,704,o),
(441,720,cs),
(441,731,o),
(444,741,o),
(441,752,c),
(445,766,o),
(446,790,o),
(436,799,cs),
(431,803,o),
(425,803,o),
(417,802,cs),
(410,802,o),
(401,801,o),
(397,796,c),
(397,792,o),
(394,790,o),
(392,788,c),
(392,775,o),
(398,763,o),
(399,750,cs),
(400,736,o),
(397,722,o),
(397,708,cs),
(397,700,o),
(398,693,o),
(399,685,c),
(399,656,o),
(399,631,o),
(397,604,cs),
(397,595,o),
(401,590,o),
(400,581,cs),
(400,574,o),
(396,569,o),
(397,559,cs),
(400,543,o),
(399,526,o),
(399,511,cs),
(399,502,o),
(400,494,o),
(400,485,cs),
(400,476,o),
(399,467,o),
(399,458,cs),
(399,431,o),
(406,398,o),
(395,378,c),
(392,375,o),
(388,382,o),
(386,384,c),
(382,386,o),
(380,391,o),
(376,394,c),
(371,402,o),
(363,407,o),
(358,414,c),
(352,419,o),
(344,421,o),
(340,427,c),
(337,434,o),
(327,434,o),
(324,441,c),
(308,441,o),
(299,449,o),
(287,454,c),
(255,455,o),
(218,453,o),
(183,454,c),
(172,448,o),
(159,445,o),
(146,441,c),
(130,430,o),
(116,416,o),
(99,405,c),
(89,390,o),
(80,375,o),
(66,364,c),
(63,354,o),
(56,349,o),
(53,339,cs),
(51,329,o),
(44,322,o),
(42,312,c),
(33,295,o),
(28,110,o),
(53,99,c),
(67,90,o),
(75,75,o),
(86,64,cs),
(92,59,o),
(95,51,o),
(104,49,c),
(105,44,o),
(110,43,o),
(112,39,c),
(116,38,o),
(116,31,o),
(120,30,cs),
(130,26,o),
(139,21,o),
(148,16,c),
(159,14,o),
(168,10,o),
(178,8,cs),
(189,5,o),
(204,7,o),
(213,1,c),
(218,2,o),
(221,6,o),
(228,4,c),
(245,2,o),
(265,4,o),
(279,9,c),
(292,8,o),
(300,12,o),
(313,11,c),
(323,17,o),
(335,19,o),
(348,22,c),
(353,25,o),
(356,31,o),
(361,34,cs),
(373,39,o),
(374,54,o),
(388,58,c),
(392,62,o),
(391,72,o),
(399,72,c),
(401,65,o),
(402,56,o),
(402,47,cs),
(401,38,o),
(396,31,o),
(399,25,cs),
(405,13,o),
(430,14,o),
(441,22,c),
(447,25,o),
(444,37,o),
(447,44,c),
(441,83,o),
(445,135,o),
(443,175,cs),
(442,194,o),
(442,212,o),
(443,231,cs),
(443,244,o),
(441,257,o),
(441,269,cs),
(441,276,o),
(443,281,o),
(443,288,cs),
(443,307,o),
(441,327,o),
(440,347,c),
(448,368,o),
(442,393,o),
(443,419,cs),
(443,435,o),
(446,451,o),
(446,466,cs),
(446,481,o),
(444,497,o),
(444,512,cs),
(444,519,o),
(446,525,o),
(446,531,cs),
(445,547,o),
(441,561,o),
(441,577,cs),
(441,592,o),
(444,607,o),
(444,622,cs),
(445,635,o),
(445,649,o),
(444,660,cs),
(444,671,ls)
);
},
{
closed = 1;
nodes = (
(404,261,o),
(403,241,c),
(407,233,o),
(404,218,o),
(405,208,c),
(401,195,o),
(399,179,o),
(397,164,c),
(393,150,o),
(384,141,o),
(381,126,c),
(377,121,o),
(372,116,o),
(365,113,c),
(363,107,o),
(359,102,o),
(356,96,c),
(338,84,o),
(323,70,o),
(296,68,c),
(290,64,o),
(284,61,o),
(277,58,c),
(247,56,o),
(230,58,o),
(202,60,c),
(191,62,o),
(182,68,o),
(170,69,c),
(161,76,o),
(154,84,o),
(142,86,c),
(128,102,o),
(113,116,o),
(99,132,c),
(96,142,o),
(92,152,o),
(86,159,c),
(88,170,o),
(83,176,o),
(82,184,cs),
(82,200,o),
(80,214,o),
(79,228,c),
(81,237,o),
(83,246,o),
(82,258,c),
(86,282,o),
(94,303,o),
(104,321,c),
(104,325,o),
(107,327,o),
(109,329,cs),
(112,333,o),
(115,337,o),
(120,342,cs),
(122,344,o),
(122,346,o),
(124,348,cs),
(131,354,o),
(142,357,o),
(145,367,c),
(154,368,o),
(158,374,o),
(162,380,c),
(170,382,o),
(179,385,o),
(186,389,c),
(194,391,o),
(201,395,o),
(209,397,c),
(222,397,o),
(231,394,o),
(241,399,c),
(256,390,o),
(275,395,o),
(295,391,c),
(309,383,o),
(321,372,o),
(337,365,c),
(340,362,o),
(343,358,o),
(345,353,c),
(354,352,o),
(358,346,o),
(365,343,c),
(369,338,o),
(373,333,o),
(378,329,c),
(379,321,o),
(384,316,o),
(388,310,c),
(388,302,o),
(392,297,o),
(395,291,c),
(398,275,o)
);
}
);
width = 492;
},
{
associatedMasterId = "C5490108-C233-4ADF-8B6D-CFE8E3B23812";
layerId = "D1580C2B-5BB6-46B1-91BF-F93DAAA5DE86";
width = 10620;
}
);
unicode = 100;
},
{
glyphname = eth;
kernLeft = eth;
kernRight = eth;
lastChange = "2023-09-12 03:35:01 +0000";
layers = (
{
layerId = "C5490108-C233-4ADF-8B6D-CFE8E3B23812";
shapes = (
{
closed = 1;
nodes = (
(470,260,o),
(471,263,o),
(471,269,c),
(469,279,o),
(461,284,o),
(461,295,c),
(459,304,o),
(455,312,o),
(453,322,c),
(446,333,o),
(436,341,o),
(437,362,c),
(429,370,o),
(422,380,o),
(412,387,c),
(406,403,o),
(390,411,o),
(390,428,c),
(378,435,o),
(376,451,o),
(363,458,c),
(362,463,o),
(359,467,o),
(357,472,c),
(347,481,o),
(340,493,o),
(332,503,c),
(326,516,o),
(315,517,o),
(314,534,c),
(305,526,o),
(302,553,o),
(294,557,c),
(288,563,o),
(283,571,o),
(277,576,c),
(275,582,o),
(271,585,o),
(270,592,c),
(260,600,o),
(253,611,o),
(242,619,c),
(236,626,o),
(231,644,o),
(223,648,cs),
(217,651,o),
(206,650,o),
(198,650,c),
(189,642,o),
(179,635,o),
(176,622,c),
(176,606,o),
(189,603,o),
(190,589,c),
(200,581,o),
(206,570,o),
(214,560,c),
(222,541,o),
(230,531,o),
(234,530,c),
(248,520,o),
(256,504,o),
(269,492,c),
(274,485,o),
(281,480,o),
(285,472,cs),
(290,465,o),
(300,463,o),
(300,451,c),
(296,441,o),
(287,448,o),
(278,450,c),
(264,450,o),
(248,439,o),
(237,443,c),
(226,427,o),
(215,442,o),
(199,441,c),
(190,444,o),
(162,436,o),
(157,433,cs),
(121,415,o),
(150,427,o),
(114,410,c),
(105,399,o),
(98,402,o),
(83,396,c),
(76,379,o),
(65,368,o),
(50,357,c),
(51,350,o),
(49,345,o),
(47,341,cs),
(42,331,o),
(38,318,o),
(31,310,c),
(30,300,o),
(19,295,o),
(21,286,c),
(17,269,o),
(16,249,o),
(17,228,cs),
(17,221,o),
(20,216,o),
(23,212,c),
(26,184,o),
(37,164,o),
(42,138,c),
(50,126,o),
(57,114,o),
(61,98,cs),
(63,92,o),
(69,90,o),
(73,86,c),
(75,79,o),
(82,77,o),
(84,72,c),
(95,65,o),
(104,57,o),
(113,48,c),
(124,46,o),
(132,42,o),
(138,35,c),
(158,31,o),
(173,22,o),
(192,16,c),
(205,15,o),
(218,14,o),
(229,10,c),
(254,11,o),
(284,13,o),
(311,16,c),
(320,19,o),
(326,25,o),
(337,26,c),
(343,25,o),
(341,33,o),
(348,32,c),
(351,34,o),
(355,35,o),
(359,37,c),
(367,39,o),
(372,45,o),
(382,46,c),
(389,52,o),
(396,58,o),
(404,62,c),
(419,81,o),
(415,74,o),
(420,79,cs),
(425,85,o),
(430,91,o),
(437,94,c),
(436,113,o),
(447,120,o),
(453,131,c),
(452,148,o),
(460,156,o),
(464,168,c),
(462,182,o),
(469,187,o),
(467,201,c),
(471,213,o),
(475,224,o),
(480,235,c),
(480,256,l)
);
},
{
closed = 1;
nodes = (
(328,84,o),
(316,79,o),
(302,79,c),
(291,69,o),
(270,68,o),
(253,64,c),
(238,64,o),
(227,65,o),
(209,65,c),
(190,76,o),
(166,82,o),
(147,92,c),
(147,95,o),
(143,96,o),
(143,97,c),
(142,98,o),
(141,97,o),
(140,98,cs),
(126,110,o),
(118,127,o),
(103,138,c),
(100,148,o),
(93,154,o),
(89,163,cs),
(86,173,o),
(81,181,o),
(76,190,c),
(76,202,o),
(74,213,o),
(70,223,c),
(68,253,o),
(77,272,o),
(81,295,c),
(84,301,o),
(91,303,o),
(95,308,c),
(97,319,o),
(119,341,o),
(128,347,c),
(128,357,o),
(136,358,o),
(138,365,c),
(150,368,o),
(201,392,o),
(217,399,c),
(232,401,o),
(248,401,o),
(266,401,c),
(278,397,o),
(288,391,o),
(303,395,c),
(311,390,o),
(319,385,o),
(330,384,c),
(337,376,o),
(346,370,o),
(355,365,c),
(363,357,o),
(372,352,o),
(379,344,c),
(395,321,o),
(409,296,o),
(419,267,c),
(420,253,o),
(420,237,o),
(420,226,cs),
(420,225,o),
(420,224,o),
(419,224,c),
(419,204,o),
(410,193,o),
(407,176,c),
(397,162,o),
(390,146,o),
(381,131,c),
(375,127,o),
(367,124,o),
(362,119,c),
(360,106,o),
(349,98,o),
(340,94,c),
(338,90,l)
);
}
);
width = 491;
},
{
associatedMasterId = "C5490108-C233-4ADF-8B6D-CFE8E3B23812";
layerId = "D1580C2B-5BB6-46B1-91BF-F93DAAA5DE86";
width = 10400;
}
);
unicode = 240;
},
{
glyphname = e;
kernLeft = o;
kernRight = e;
lastChange = "2023-09-12 03:35:01 +0000";
layers = (
{
anchors = (
{
name = bottom;
pos = (233,0);
},
{
name = ogonek;
pos = (246,10);
},
{
name = top;
pos = (233,436);
}
);
layerId = "C5490108-C233-4ADF-8B6D-CFE8E3B23812";
shapes = (
{
closed = 1;
nodes = (
(421,316,o),
(412,333,o),
(410,348,c),
(405,355,o),
(399,362,o),
(396,372,c),
(387,379,o),
(380,389,o),
(373,399,c),
(358,407,o),
(349,419,o),
(338,430,c),
(328,435,o),
(316,437,o),
(309,444,c),
(277,451,o),
(244,455,o),
(209,455,c),
(188,453,o),
(169,447,o),
(150,443,c),
(144,435,o),
(133,432,o),
(123,427,c),
(108,411,o),
(94,395,o),
(78,380,c),
(73,368,o),
(66,359,o),
(60,348,c),
(56,337,o),
(49,326,o),
(46,313,cs),
(44,305,o),
(45,290,o),
(43,280,cs),
(43,278,o),
(40,275,o),
(40,272,cs),
(38,239,ls),
(37,229,o),
(35,219,o),
(35,209,cs),
(35,194,o),
(40,178,o),
(40,164,c),
(46,151,o),
(54,140,o),
(56,123,c),
(60,118,o),
(64,114,o),
(67,109,c),
(73,81,o),
(91,67,o),
(108,50,c),
(119,47,o),
(126,39,o),
(138,36,c),
(142,33,o),
(147,31,o),
(152,28,cs),
(157,26,o),
(158,19,o),
(164,19,c),
(191,8,o),
(236,15,o),
(268,11,c),
(275,11,o),
(279,15,o),
(286,16,c),
(317,14,o),
(334,27,o),
(355,36,c),
(365,37,o),
(385,61,o),
(385,71,c),
(391,85,o),
(405,92,o),
(414,104,c),
(419,117,o),
(427,133,o),
(425,148,c),
(416,157,o),
(404,162,o),
(388,164,c),
(379,154,o),
(373,142,o),
(369,127,c),
(361,119,o),
(354,108,o),
(347,98,c),
(339,94,o),
(333,88,o),
(327,85,cs),
(315,78,o),
(303,71,o),
(289,66,cs),
(277,62,o),
(262,60,o),
(246,60,c),
(236,63,o),
(224,63,o),
(210,63,c),
(201,66,o),
(192,68,o),
(180,68,c),
(165,75,o),
(151,84,o),
(138,93,c),
(131,104,o),
(122,114,o),
(112,123,c),
(111,129,o),
(110,134,o),
(108,138,cs),
(104,145,o),
(96,150,o),
(94,157,c),
(95,183,o),
(72,201,o),
(86,224,c),
(106,226,o),
(126,220,o),
(147,220,c),
(155,221,o),
(164,224,o),
(172,224,cs),
(184,224,o),
(196,220,o),
(207,220,cs),
(212,220,o),
(217,222,o),
(223,222,cs),
(235,222,o),
(247,220,o),
(259,220,cs),
(279,221,o),
(300,228,o),
(319,222,c),
(327,227,o),
(336,224,o),
(346,224,cs),
(372,224,o),
(399,224,o),
(425,225,c),
(428,229,o),
(430,234,o),
(429,243,c),
(426,244,o),
(430,253,o),
(426,254,c),
(425,258,o),
(420,257,o),
(420,263,c),
(427,269,o),
(423,277,o),
(423,285,cs),
(423,298,ls)
);
},
{
closed = 1;
nodes = (
(369,269,o),
(365,266,c),
(355,265,o),
(350,270,o),
(343,271,cs),
(331,271,o),
(323,268,o),
(314,272,c),
(302,268,o),
(292,271,o),
(276,269,cs),
(270,268,o),
(269,272,o),
(264,272,cs),
(249,271,o),
(233,271,o),
(221,266,c),
(213,265,o),
(212,270,o),
(205,271,c),
(192,267,o),
(173,269,o),
(160,265,c),
(135,271,o),
(107,260,o),
(86,263,c),
(82,267,o),
(87,272,o),
(87,277,c),
(85,282,o),
(85,288,o),
(86,295,c),
(91,306,o),
(94,321,o),
(103,329,c),
(103,336,o),
(109,339,o),
(112,345,cs),
(115,349,o),
(116,354,o),
(119,358,cs),
(121,361,o),
(124,367,o),
(128,370,cs),
(130,372,o),
(132,370,o),
(134,372,c),
(140,375,o),
(146,387,o),
(153,391,c),
(167,395,o),
(179,401,o),
(191,406,c),
(208,407,o),
(222,409,o),
(235,413,c),
(248,409,o),
(265,408,o),
(280,406,c),
(293,398,o),
(309,393,o),
(324,386,c),
(329,380,o),
(335,374,o),
(341,369,c),
(343,358,o),
(350,351,o),
(357,343,cs),
(358,342,o),
(357,340,o),
(358,339,cs),
(360,337,o),
(366,335,o),
(368,331,c),
(366,312,o),
(387,296,o),
(371,282,c),
(370,276,o)
);
}
);
width = 459;
},
{
associatedMasterId = "C5490108-C233-4ADF-8B6D-CFE8E3B23812";
layerId = "D1580C2B-5BB6-46B1-91BF-F93DAAA5DE86";
width = 9820;
}
);
unicode = 101;
},
{
glyphname = f;
lastChange = "2023-09-12 06:51:41 +0000";
layers = (
{
anchors = (
{
name = bottom;
pos = (112,0);
},
{
name = top;
pos = (112,750);
}
);
layerId = "C5490108-C233-4ADF-8B6D-CFE8E3B23812";
shapes = (
{
closed = 1;
nodes = (
(83,254,o),
(79,199,o),
(79,148,cs),
(79,128,o),
(82,108,o),
(82,90,cs),
(82,81,o),
(80,73,o),
(82,64,c),
(77,49,o),
(71,27,o),
(80,14,c),
(93,9,o),
(118,11,o),
(125,20,c),
(129,35,o),
(120,46,o),
(118,60,c),
(119,152,o),
(120,226,o),
(118,309,c),
(125,333,o),
(116,360,o),
(121,388,c),
(134,399,o),
(155,394,o),
(177,394,c),
(186,392,o),
(187,397,o),
(192,399,c),
(197,407,o),
(197,425,o),
(192,433,c),
(189,435,o),
(185,437,o),
(183,440,c),
(178,440,o),
(171,441,o),
(164,440,cs),
(157,439,o),
(152,436,o),
(147,435,c),
(142,439,o),
(130,436,o),
(125,440,c),
(116,455,o),
(121,473,o),
(121,490,cs),
(122,498,o),
(120,506,o),
(120,514,cs),
(120,544,l),
(121,551,o),
(124,557,o),
(125,564,c),
(124,575,o),
(119,580,o),
(125,589,c),
(117,607,o),
(126,640,o),
(118,657,c),
(124,669,o),
(120,686,o),
(120,701,c),
(122,713,o),
(128,720,o),
(131,731,c),
(140,738,o),
(148,746,o),
(159,750,c),
(173,751,o),
(190,748,o),
(202,752,c),
(214,761,o),
(210,797,o),
(199,805,c),
(181,806,o),
(163,805,o),
(147,804,c),
(130,794,o),
(110,787,o),
(98,772,c),
(93,760,o),
(86,750,o),
(80,739,c),
(80,724,o),
(77,712,o),
(74,700,c),
(80,684,o),
(76,658,o),
(77,638,c),
(72,624,o),
(75,606,o),
(79,592,c),
(74,546,o),
(79,507,o),
(77,460,c),
(78,448,o),
(78,435,o),
(68,433,c),
(60,426,o),
(51,440,o),
(40,433,cs),
(30,426,o),
(25,400,o),
(38,392,c),
(49,388,o),
(58,393,o),
(71,392,c),
(82,382,o),
(81,366,o),
(80,351,cs),
(80,304,ls)
);
}
);
width = 224;
},
{
associatedMasterId = "C5490108-C233-4ADF-8B6D-CFE8E3B23812";
layerId = "D1580C2B-5BB6-46B1-91BF-F93DAAA5DE86";
width = 6140;
}
);
unicode = 102;
},
{
glyphname = g;
kernLeft = g;
kernRight = g;
lastChange = "2023-09-12 03:35:01 +0000";
layers = (
{
anchors = (
{
name = bottom;
pos = (263,-250);
},
{
name = top;
pos = (263,436);
}
);
layerId = "C5490108-C233-4ADF-8B6D-CFE8E3B23812";
shapes = (
{
closed = 1;
nodes = (
(444,-73,o),
(442,-65,o),
(442,-57,cs),
(442,-49,o),
(450,27,o),
(444,36,c),
(447,60,o),
(446,83,o),
(444,107,c),
(446,110,o),
(444,184,o),
(444,208,cs),
(443,230,o),
(440,253,o),
(440,276,cs),
(441,330,o),
(441,384,o),
(437,441,c),
(432,447,o),
(433,454,o),
(423,455,cs),
(413,456,o),
(408,452,o),
(401,449,c),
(396,442,o),
(398,430,o),
(397,419,cs),
(396,409,o),
(396,386,o),
(387,384,c),
(378,387,o),
(377,399,o),
(371,405,cs),
(364,411,o),
(357,418,o),
(351,425,c),
(343,427,o),
(338,432,o),
(332,436,c),
(299,446,o),
(252,458,o),
(214,447,c),
(199,454,o),
(178,447,o),
(168,439,c),
(154,439,o),
(148,431,o),
(136,428,c),
(127,423,o),
(118,417,o),
(110,411,cs),
(104,405,o),
(95,399,o),
(91,394,cs),
(90,392,o),
(90,390,o),
(89,389,cs),
(82,381,o),
(72,376,o),
(67,367,cs),
(61,357,o),
(59,344,o),
(56,330,c),
(47,317,o),
(49,302,o),
(49,278,c),
(44,268,o),
(41,264,o),
(37,252,c),
(39,233,o),
(33,214,o),
(38,197,c),
(35,191,o),
(38,178,o),
(35,172,c),
(41,165,o),
(41,153,o),
(43,143,cs),
(45,133,o),
(51,126,o),
(51,113,c),
(61,105,o),
(66,95,o),
(69,80,c),
(89,66,o),
(101,58,o),
(118,40,c),
(130,38,o),
(138,30,o),
(148,24,c),
(167,20,o),
(186,14,o),
(206,10,c),
(224,10,o),
(242,10,o),
(255,9,c),
(279,13,o),
(303,17,o),
(324,24,c),
(337,34,o),
(350,42,o),
(365,50,c),
(369,55,o),
(376,59,o),
(379,64,cs),
(381,67,o),
(396,84,o),
(399,86,cs),
(402,88,o),
(399,37,o),
(401,30,cs),
(404,22,o),
(401,-60,o),
(398,-100,c),
(394,-101,o),
(400,-117,o),
(396,-118,cs),
(377,-121,o),
(342,-127,o),
(326,-122,c),
(274,-123,o),
(225,-127,o),
(176,-119,c),
(154,-127,o),
(125,-115,o),
(105,-121,c),
(101,-124,o),
(98,-127,o),
(94,-129,c),
(92,-136,o),
(88,-131,o),
(89,-142,cs),
(89,-144,o),
(88,-144,o),
(87,-145,cs),
(85,-146,o),
(87,-160,o),
(91,-163,cs),
(92,-164,o),
(96,-163,o),
(99,-164,cs),
(101,-165,o),
(104,-169,o),
(105,-169,cs),
(112,-171,o),
(122,-169,o),
(127,-170,cs),
(149,-175,o),
(181,-167,o),
(203,-167,c),
(209,-171,o),
(216,-169,o),
(223,-169,cs),
(248,-170,o),
(272,-169,o),
(297,-169,c),
(304,-170,o),
(307,-173,o),
(315,-174,c),
(352,-170,o),
(402,-178,o),
(442,-167,c),
(444,-162,o),
(438,-159,o),
(441,-156,c),
(441,-136,o),
(444,-120,o),
(440,-101,c),
(444,-81,l)
);
},
{
closed = 1;
nodes = (
(402,247,o),
(403,235,c),
(404,235,o),
(404,234,o),
(404,233,cs),
(401,210,o),
(402,181,o),
(393,159,cs),
(390,152,o),
(385,148,o),
(382,140,cs),
(379,134,o),
(374,130,o),
(370,124,cs),
(362,112,o),
(361,108,o),
(354,96,c),
(349,96,o),
(339,86,o),
(337,83,c),
(327,79,o),
(320,73,o),
(312,67,c),
(299,62,o),
(278,66,o),
(265,61,c),
(248,60,o),
(231,61,o),
(216,62,c),
(210,65,o),
(207,57,o),
(201,61,c),
(188,59,o),
(183,73,o),
(172,73,c),
(164,77,o),
(162,86,o),
(150,84,c),
(144,92,o),
(137,92,o),
(128,96,c),
(125,102,o),
(119,118,o),
(113,121,c),
(110,131,o),
(104,138,o),
(99,146,c),
(96,157,o),
(94,168,o),
(88,175,c),
(89,189,o),
(85,197,o),
(83,208,c),
(83,238,o),
(85,248,o),
(89,274,c),
(91,280,o),
(95,284,o),
(97,291,cs),
(102,303,o),
(113,313,o),
(115,344,c),
(126,351,o),
(132,363,o),
(141,372,c),
(153,378,o),
(165,383,o),
(174,391,c),
(188,394,o),
(201,398,o),
(214,402,c),
(223,402,o),
(233,403,o),
(238,399,c),
(244,399,o),
(246,404,o),
(253,404,c),
(265,399,o),
(277,403,o),
(290,400,cs),
(298,398,o),
(304,393,o),
(310,388,c),
(318,389,o),
(320,385,o),
(327,385,c),
(334,378,o),
(344,373,o),
(353,367,c),
(363,357,o),
(370,344,o),
(381,334,c),
(382,324,o),
(397,280,o),
(400,271,c),
(398,256,o)
);
}
);
width = 491;
},
{
associatedMasterId = "C5490108-C233-4ADF-8B6D-CFE8E3B23812";
layerId = "D1580C2B-5BB6-46B1-91BF-F93DAAA5DE86";
width = 10480;
}
);
unicode = 103;
},
{
glyphname = h;
kernLeft = h;
kernRight = n;
lastChange = "2023-09-12 03:35:02 +0000";
layers = (
{
anchors = (
{
name = bottom;
pos = (218,0);
},
{
name = center;
pos = (200,375);
},
{
name = top;
pos = (75,782);
}
);
layerId = "C5490108-C233-4ADF-8B6D-CFE8E3B23812";
shapes = (
{
closed = 1;
nodes = (
(326,418,o),
(312,425,o),
(300,435,c),
(294,438,o),
(289,435,o),
(283,436,c),
(282,437,o),
(280,439,o),
(280,440,c),
(276,442,o),
(272,443,o),
(269,444,c),
(268,445,o),
(268,447,o),
(267,447,c),
(261,450,o),
(254,453,o),
(247,454,cs),
(238,455,o),
(230,452,o),
(221,451,cs),
(207,449,o),
(192,450,o),
(176,447,c),
(167,443,o),
(163,434,o),
(152,432,c),
(147,423,o),
(138,419,o),
(128,414,c),
(125,407,o),
(118,402,o),
(114,395,c),
(108,390,o),
(107,380,o),
(97,378,c),
(92,395,o),
(95,415,o),
(95,427,cs),
(95,430,o),
(94,434,o),
(94,436,cs),
(94,449,o),
(97,462,o),
(97,474,cs),
(97,482,o),
(94,490,o),
(94,498,cs),
(94,508,o),
(97,519,o),
(97,529,cs),
(97,555,o),
(95,581,o),
(94,607,cs),
(93,622,o),
(93,637,o),
(97,651,c),
(94,689,o),
(94,743,o),
(100,782,c),
(97,786,o),
(95,792,o),
(92,797,c),
(87,799,o),
(84,802,o),
(80,804,c),
(71,804,o),
(68,800,o),
(59,801,c),
(54,794,o),
(48,789,o),
(45,782,c),
(52,741,o),
(51,686,o),
(50,643,c),
(49,636,o),
(54,634,o),
(53,627,cs),
(48,608,o),
(53,591,o),
(53,574,cs),
(52,563,o),
(49,551,o),
(50,540,cs),
(50,535,o),
(52,529,o),
(53,523,cs),
(54,507,o),
(53,491,o),
(51,473,c),
(56,460,o),
(53,447,o),
(53,435,cs),
(53,419,o),
(54,402,o),
(54,386,cs),
(54,321,ls),
(54,316,o),
(56,312,o),
(56,307,cs),
(56,277,o),
(57,244,o),
(54,213,c),
(59,196,o),
(56,180,o),
(56,162,cs),
(56,152,o),
(57,142,o),
(57,132,cs),
(57,104,o),
(55,75,o),
(57,50,c),
(56,43,o),
(51,34,o),
(54,27,c),
(65,21,o),
(90,18,o),
(102,23,c),
(110,32,o),
(104,44,o),
(102,55,c),
(102,72,o),
(99,87,o),
(97,102,c),
(99,111,o),
(100,119,o),
(100,129,c),
(93,178,o),
(97,230,o),
(97,284,c),
(103,312,o),
(121,329,o),
(132,353,c),
(143,361,o),
(150,374,o),
(163,381,c),
(174,385,o),
(184,391,o),
(198,388,c),
(203,391,o),
(208,395,o),
(218,394,c),
(226,395,o),
(230,400,o),
(240,399,c),
(260,393,o),
(266,374,o),
(289,372,c),
(293,362,o),
(301,358,o),
(307,350,c),
(310,344,o),
(311,339,o),
(314,332,c),
(317,282,o),
(318,238,o),
(319,191,c),
(314,173,o),
(314,145,o),
(321,129,c),
(320,123,o),
(318,118,o),
(318,112,c),
(324,93,o),
(318,72,o),
(319,49,c),
(318,39,o),
(312,33,o),
(316,23,c),
(320,17,o),
(331,19,o),
(341,19,cs),
(352,18,o),
(360,20,o),
(366,23,c),
(372,30,o),
(371,38,o),
(370,44,cs),
(359,90,o),
(365,143,o),
(365,195,cs),
(365,220,o),
(363,245,o),
(366,269,c),
(366,276,o),
(363,281,o),
(362,287,c),
(364,292,o),
(365,299,o),
(365,307,c),
(362,318,o),
(357,327,o),
(359,343,c),
(351,351,o),
(351,366,o),
(349,380,c),
(336,406,l)
);
}
);
width = 416;
},
{
associatedMasterId = "C5490108-C233-4ADF-8B6D-CFE8E3B23812";
layerId = "D1580C2B-5BB6-46B1-91BF-F93DAAA5DE86";
width = 9480;
}
);
unicode = 104;
},
{
glyphname = i;
kernRight = i;
lastChange = "2023-09-12 06:51:36 +0000";
layers = (
{
anchors = (
{
name = bottom;
pos = (87,0);
}
);
layerId = "C5490108-C233-4ADF-8B6D-CFE8E3B23812";
shapes = (
{
closed = 1;
nodes = (
(130,565,o),
(124,578,cs),
(118,589,o),
(108,603,o),
(97,607,cs),
(89,610,o),
(74,608,o),
(67,605,c),
(61,600,o),
(57,592,o),
(53,586,c),
(50,578,o),
(44,573,o),
(45,561,cs),
(47,550,o),
(53,544,o),
(58,536,c),
(65,535,o),
(67,530,o),
(74,529,c),
(89,529,o),
(101,532,o),
(113,537,c),
(116,551,o)
);
},
{
closed = 1;
nodes = (
(97,425,o),
(84,434,o),
(71,427,c),
(60,413,o),
(67,381,o),
(65,358,cs),
(62,340,l),
(69,325,o),
(61,305,o),
(67,290,c),
(65,286,o),
(64,282,o),
(63,277,c),
(63,247,o),
(65,213,o),
(63,186,cs),
(62,174,o),
(61,164,o),
(61,153,cs),
(62,140,o),
(66,127,o),
(66,115,cs),
(66,108,o),
(65,100,o),
(65,93,cs),
(65,85,o),
(67,77,o),
(66,69,cs),
(65,53,o),
(57,38,o),
(58,22,c),
(63,13,o),
(70,6,o),
(82,4,c),
(95,4,o),
(113,5,o),
(110,19,cs),
(108,28,o),
(104,41,o),
(102,55,cs),
(99,86,o),
(106,125,o),
(101,153,c),
(104,158,o),
(103,167,o),
(106,173,c),
(101,197,o),
(104,220,o),
(104,244,cs),
(106,419,l)
);
}
);
width = 170;
},
{
associatedMasterId = "C5490108-C233-4ADF-8B6D-CFE8E3B23812";
layerId = "D1580C2B-5BB6-46B1-91BF-F93DAAA5DE86";
width = 3960;
}
);
unicode = 105;
},
{
glyphname = idotless;
kernLeft = i;
kernRight = i;
lastChange = "2023-09-12 03:35:02 +0000";
layers = (
{
anchors = (
{
name = bottom;
pos = (93,0);
},
{
name = ogonek;
pos = (81,10);
},
{
name = top;
pos = (93,436);
}
);
layerId = "C5490108-C233-4ADF-8B6D-CFE8E3B23812";
shapes = (
{
closed = 1;
nodes = (
(100,425,o),
(87,434,o),
(74,427,c),
(63,413,o),
(70,381,o),
(68,358,cs),
(65,340,l),
(72,325,o),
(64,305,o),
(70,290,c),
(68,286,o),
(67,282,o),
(66,277,c),
(66,247,o),
(68,213,o),
(66,186,cs),
(65,174,o),
(64,164,o),
(64,153,cs),
(65,140,o),
(69,127,o),
(69,115,cs),
(69,108,o),
(68,100,o),
(68,93,cs),
(68,85,o),
(70,77,o),
(69,69,cs),
(68,53,o),
(60,38,o),
(61,22,c),
(66,13,o),
(73,6,o),
(85,4,c),
(98,4,o),
(116,5,o),
(113,19,cs),
(111,28,o),
(107,41,o),
(105,55,cs),
(102,86,o),
(109,125,o),
(104,153,c),
(107,158,o),
(106,167,o),
(109,173,c),
(104,197,o),
(107,220,o),
(107,244,cs),
(109,419,l)
);
}
);
width = 185;
},
{
associatedMasterId = "C5490108-C233-4ADF-8B6D-CFE8E3B23812";
layerId = "D1580C2B-5BB6-46B1-91BF-F93DAAA5DE86";
width = 4220;
}
);
unicode = 305;
},
{
glyphname = j;
kernRight = j;
lastChange = "2023-09-12 06:51:34 +0000";
layers = (
{
layerId = "C5490108-C233-4ADF-8B6D-CFE8E3B23812";
shapes = (
{
closed = 1;
nodes = (
(63,535,o),
(76,531,c),
(93,530,o),
(104,534,o),
(117,539,c),
(120,546,o),
(127,550,o),
(130,558,cs),
(132,562,o),
(133,567,o),
(133,573,c),
(130,589,o),
(121,599,o),
(113,610,c),
(109,609,o),
(108,613,o),
(105,614,cs),
(94,619,o),
(78,618,o),
(67,614,cs),
(59,610,o),
(54,598,o),
(51,591,cs),
(50,589,o),
(48,588,o),
(48,586,c),
(43,574,o),
(47,564,o),
(46,548,c),
(57,543,o)
);
},
{
closed = 1;
nodes = (
(64,177,o),
(66,168,o),
(66,157,cs),
(66,147,o),
(64,137,o),
(64,127,c),
(68,105,l),
(68,99,o),
(66,92,o),
(66,85,cs),
(66,39,o),
(70,-8,o),
(61,-51,c),
(71,-87,o),
(57,-132,o),
(61,-167,c),
(69,-176,o),
(83,-180,o),
(99,-182,c),
(107,-176,o),
(111,-167,o),
(113,-156,c),
(107,-141,o),
(110,-123,o),
(108,-106,c),
(103,-97,o),
(105,-85,o),
(105,-76,cs),
(105,-72,o),
(103,-70,o),
(103,-67,cs),
(107,-30,o),
(105,11,o),
(107,42,c),
(106,48,o),
(106,56,o),
(104,61,c),
(108,189,o),
(106,295,o),
(109,421,c),
(102,428,o),
(86,433,o),
(73,430,c),
(62,422,o),
(66,403,o),
(68,387,cs),
(68,381,o),
(65,377,o),
(65,370,c),
(69,347,o),
(64,313,o),
(68,290,c),
(62,273,o),
(67,255,o),
(66,239,c),
(67,230,o),
(68,220,o),
(68,211,c),
(64,187,l)
);
}
);
width = 178;
},
{
associatedMasterId = "C5490108-C233-4ADF-8B6D-CFE8E3B23812";
layerId = "D1580C2B-5BB6-46B1-91BF-F93DAAA5DE86";
width = 4140;
}
);
unicode = 106;
},
{
glyphname = jdotless;
kernLeft = j;
kernRight = j;
lastChange = "2023-09-12 03:35:02 +0000";
layers = (
{
anchors = (
{
name = bottom;
pos = (102,-250);
},
{
name = top;
pos = (103,436);
}
);
layerId = "C5490108-C233-4ADF-8B6D-CFE8E3B23812";
shapes = (
{
closed = 1;
nodes = (
(81,177,o),
(83,168,o),
(83,157,cs),
(83,147,o),
(81,137,o),
(81,127,c),
(85,105,l),
(85,99,o),
(83,92,o),
(83,85,cs),
(83,39,o),
(87,-8,o),
(78,-51,c),
(88,-87,o),
(74,-132,o),
(78,-167,c),
(86,-176,o),
(100,-180,o),
(116,-182,c),
(124,-176,o),
(128,-167,o),
(130,-156,c),
(124,-141,o),
(127,-123,o),
(125,-106,c),
(120,-97,o),
(122,-85,o),
(122,-76,cs),
(122,-72,o),
(120,-70,o),
(120,-67,cs),
(124,-30,o),
(122,11,o),
(124,42,c),
(123,48,o),
(123,56,o),
(121,61,c),
(125,189,o),
(123,295,o),
(126,421,c),
(119,428,o),
(103,433,o),
(90,430,c),
(79,422,o),
(83,403,o),
(85,387,cs),
(85,381,o),
(82,377,o),
(82,370,c),
(86,347,o),
(81,313,o),
(85,290,c),
(79,273,o),
(84,255,o),
(83,239,c),
(84,230,o),
(85,220,o),
(85,211,c),
(81,187,l)
);
}
);
width = 175;
},
{
associatedMasterId = "C5490108-C233-4ADF-8B6D-CFE8E3B23812";
layerId = "D1580C2B-5BB6-46B1-91BF-F93DAAA5DE86";
width = 4060;
}
);
unicode = 567;
},
{
glyphname = k;
kernLeft = h;
kernRight = k;
lastChange = "2023-09-12 03:35:02 +0000";
layers = (
{
anchors = (
{
name = bottom;
pos = (184,0);
},
{
name = top;
pos = (184,750);
}
);
layerId = "C5490108-C233-4ADF-8B6D-CFE8E3B23812";
shapes = (
{
closed = 1;
nodes = (
(353,26,o),
(349,30,o),
(346,37,c),
(342,41,o),
(335,43,o),
(330,46,c),
(327,60,o),
(311,61,o),
(305,71,cs),
(302,75,o),
(285,92,o),
(281,97,c),
(281,97,o),
(265,115,o),
(254,119,c),
(248,129,o),
(200,189,o),
(188,193,c),
(163,217,ls),
(159,221,o),
(156,227,o),
(150,229,c),
(148,236,o),
(140,235,o),
(141,245,c),
(149,257,o),
(162,262,o),
(171,270,cs),
(181,279,o),
(189,290,o),
(201,296,c),
(206,301,o),
(209,307,o),
(214,313,c),
(221,316,o),
(227,319,o),
(234,324,c),
(255,349,l),
(263,356,o),
(269,366,o),
(280,371,c),
(284,375,o),
(284,381,o),
(288,385,cs),
(296,392,o),
(314,400,o),
(313,413,cs),
(312,423,o),
(299,428,o),
(289,431,cs),
(269,436,o),
(258,424,o),
(245,420,c),
(236,403,o),
(220,395,o),
(212,378,c),
(196,367,l),
(193,359,o),
(186,354,o),
(182,346,c),
(163,332,o),
(149,313,o),
(135,294,c),
(128,290,o),
(124,281,o),
(116,278,c),
(111,272,o),
(104,266,o),
(97,261,c),
(91,268,o),
(91,280,o),
(91,292,cs),
(90,321,o),
(93,349,o),
(94,368,c),
(91,381,o),
(89,398,o),
(94,411,c),
(90,503,o),
(98,590,o),
(94,685,c),
(100,704,o),
(97,728,o),
(94,748,c),
(95,756,o),
(99,762,o),
(98,772,c),
(93,779,o),
(86,789,o),
(75,791,c),
(69,791,o),
(64,788,o),
(57,787,c),
(53,781,o),
(51,774,o),
(47,769,c),
(47,754,o),
(51,739,o),
(52,724,cs),
(53,715,o),
(52,706,o),
(52,696,cs),
(53,652,o),
(53,601,o),
(53,560,cs),
(54,543,o),
(48,525,o),
(48,508,cs),
(49,495,o),
(51,482,o),
(51,469,cs),
(52,448,o),
(52,426,o),
(51,409,cs),
(51,404,o),
(53,400,o),
(53,395,cs),
(53,387,o),
(50,380,o),
(50,373,cs),
(50,358,o),
(52,343,o),
(51,327,cs),
(50,298,o),
(53,269,o),
(51,240,cs),
(51,192,ls),
(51,175,o),
(48,160,o),
(48,144,cs),
(48,127,o),
(51,110,o),
(51,92,cs),
(51,83,o),
(47,73,o),
(46,64,cs),
(46,59,o),
(48,55,o),
(48,50,cs),
(48,40,o),
(44,31,o),
(45,21,c),
(47,20,o),
(46,15,o),
(48,12,cs),
(54,4,o),
(60,-2,o),
(71,-4,c),
(78,-4,o),
(84,-3,o),
(86,1,c),
(90,3,o),
(96,3,o),
(97,9,cs),
(98,18,o),
(94,36,o),
(92,48,c),
(92,54,o),
(86,54,o),
(87,61,cs),
(90,76,o),
(92,91,o),
(92,106,cs),
(92,135,o),
(90,165,o),
(90,196,c),
(97,201,o),
(100,210,o),
(111,210,cs),
(118,210,o),
(118,202,o),
(124,199,c),
(126,194,o),
(132,192,o),
(133,185,c),
(141,178,o),
(149,170,o),
(155,160,c),
(171,145,o),
(184,126,o),
(201,111,c),
(203,108,o),
(203,102,o),
(205,99,c),
(214,96,o),
(216,87,o),
(223,83,c),
(275,26,l),
(283,23,o),
(286,14,o),
(295,11,c),
(298,9,o),
(303,7,o),
(305,4,c),
(310,3,o),
(307,-7,o),
(314,-6,cs),
(328,-3,o),
(331,-11,o),
(343,-11,c),
(353,-5,o),
(359,-1,o),
(359,15,c),
(356,19,l)
);
}
);
width = 389;
},
{
associatedMasterId = "C5490108-C233-4ADF-8B6D-CFE8E3B23812";
layerId = "D1580C2B-5BB6-46B1-91BF-F93DAAA5DE86";
width = 9100;
}
);
unicode = 107;
},
{
glyphname = kgreenlandic;
kernLeft = n;
kernRight = k;
lastChange = "2023-09-12 03:35:02 +0000";
layers = (
{
anchors = (
{
name = bottom;
pos = (208,0);
},
{
name = top;
pos = (208,750);
}
);
layerId = "C5490108-C233-4ADF-8B6D-CFE8E3B23812";
shapes = (
{
closed = 1;
nodes = (
(377,26,o),
(373,30,o),
(370,37,c),
(366,41,o),
(359,43,o),
(354,46,c),
(351,60,o),
(335,61,o),
(329,71,cs),
(326,75,o),
(309,92,o),
(305,97,c),
(305,97,o),
(289,115,o),
(278,119,c),
(272,129,o),
(224,189,o),
(212,193,c),
(187,217,ls),
(183,221,o),
(180,227,o),
(174,229,c),
(172,236,o),
(164,235,o),
(165,245,c),
(173,257,o),
(186,262,o),
(195,270,cs),
(205,279,o),
(213,290,o),
(225,296,c),
(230,301,o),
(233,307,o),
(238,313,c),
(245,316,o),
(251,319,o),
(258,324,c),
(279,349,l),
(287,356,o),
(293,366,o),
(304,371,c),
(308,375,o),
(308,381,o),
(312,385,cs),
(320,392,o),
(338,400,o),
(337,413,cs),
(336,423,o),
(323,428,o),
(313,431,cs),
(293,436,o),
(282,424,o),
(269,420,c),
(260,403,o),
(244,395,o),
(236,378,c),
(220,367,l),
(217,359,o),
(210,354,o),
(206,346,c),
(187,332,o),
(173,313,o),
(159,294,c),
(152,290,o),
(148,281,o),
(140,278,c),
(135,272,o),
(128,266,o),
(121,261,c),
(115,268,o),
(115,280,o),
(115,292,cs),
(118,332,l),
(124,351,o),
(121,375,o),
(118,395,c),
(119,403,o),
(123,409,o),
(122,419,c),
(117,426,o),
(110,436,o),
(99,438,c),
(93,438,o),
(88,435,o),
(81,434,c),
(77,428,o),
(75,421,o),
(71,416,c),
(71,401,o),
(75,386,o),
(76,371,cs),
(77,362,o),
(77,353,o),
(76,343,cs),
(75,327,ls),
(73,298,o),
(77,269,o),
(75,240,cs),
(75,192,ls),
(75,175,o),
(72,160,o),
(72,144,cs),
(72,127,o),
(75,110,o),
(75,92,cs),
(75,83,o),
(71,73,o),
(70,64,cs),
(70,59,o),
(72,55,o),
(72,50,cs),
(72,40,o),
(68,31,o),
(69,21,c),
(71,20,o),
(70,15,o),
(72,12,cs),
(78,4,o),
(84,-2,o),
(95,-4,c),
(102,-4,o),
(108,-3,o),
(110,1,c),
(114,3,o),
(120,3,o),
(121,9,cs),
(122,18,o),
(118,36,o),
(116,48,c),
(116,54,o),
(110,54,o),
(111,61,cs),
(114,76,o),
(116,91,o),
(116,106,cs),
(116,135,o),
(114,165,o),
(114,196,c),
(121,201,o),
(124,210,o),
(135,210,cs),
(142,210,o),
(142,202,o),
(148,199,c),
(150,194,o),
(156,192,o),
(157,185,c),
(165,178,o),
(173,170,o),
(179,160,c),
(195,145,o),
(208,126,o),
(225,111,c),
(227,108,o),
(227,102,o),
(229,99,c),
(238,96,o),
(240,87,o),
(247,83,c),
(299,26,l),
(307,23,o),
(310,14,o),
(319,11,c),
(322,9,o),
(327,7,o),
(329,4,c),
(334,3,o),
(331,-7,o),
(338,-6,cs),
(352,-3,o),
(355,-11,o),
(367,-11,c),
(377,-5,o),
(383,-1,o),
(383,15,c),
(380,19,l)
);
}
);
width = 416;
},
{
associatedMasterId = "C5490108-C233-4ADF-8B6D-CFE8E3B23812";
layerId = "D1580C2B-5BB6-46B1-91BF-F93DAAA5DE86";
width = 9480;
}
);
unicode = 312;
},
{
glyphname = l;
kernLeft = h;
kernRight = l;
lastChange = "2023-09-12 03:35:02 +0000";
layers = (
{
anchors = (
{
name = bottom;
pos = (79,0);
},
{
name = center;
pos = (79,375);
},
{
name = top;
pos = (79,750);
},
{
name = topright;
pos = (139,750);
}
);
layerId = "C5490108-C233-4ADF-8B6D-CFE8E3B23812";
shapes = (
{
closed = 1;
nodes = (
(98,739,o),
(100,759,o),
(98,770,cs),
(97,775,o),
(94,778,o),
(91,782,c),
(79,786,o),
(65,782,o),
(57,778,c),
(56,772,o),
(54,766,o),
(54,760,cs),
(53,752,o),
(54,744,o),
(54,741,cs),
(53,718,o),
(50,695,o),
(52,677,cs),
(53,669,o),
(55,660,o),
(55,651,cs),
(55,632,o),
(54,613,o),
(54,593,cs),
(54,562,o),
(53,529,o),
(52,500,cs),
(50,472,o),
(50,436,o),
(52,402,cs),
(53,381,o),
(52,360,o),
(52,338,c),
(51,335,o),
(51,332,o),
(52,330,c),
(53,315,o),
(53,288,o),
(52,270,cs),
(51,261,o),
(48,252,o),
(46,243,c),
(46,236,o),
(48,228,o),
(48,221,cs),
(50,173,o),
(49,116,o),
(50,59,c),
(47,51,o),
(48,38,o),
(45,30,c),
(45,19,o),
(43,5,o),
(50,0,cs),
(68,-13,o),
(99,-1,o),
(97,26,cs),
(97,28,o),
(95,28,o),
(95,30,cs),
(86,90,o),
(95,147,o),
(91,196,cs),
(90,205,o),
(90,213,o),
(91,223,cs),
(91,232,o),
(90,242,o),
(93,251,c),
(93,275,o),
(96,299,o),
(96,322,cs),
(96,329,o),
(94,336,o),
(94,342,cs),
(94,350,o),
(95,356,o),
(97,363,c),
(96,369,o),
(93,374,o),
(93,380,c),
(95,387,o),
(96,395,o),
(96,404,cs),
(92,445,o),
(98,489,o),
(95,533,c),
(97,537,o),
(97,541,o),
(98,544,c),
(101,572,o),
(96,606,o),
(99,633,c),
(94,650,o),
(97,668,o),
(98,688,cs),
(98,721,ls)
);
}
);
width = 144;
},
{
associatedMasterId = "C5490108-C233-4ADF-8B6D-CFE8E3B23812";
layerId = "D1580C2B-5BB6-46B1-91BF-F93DAAA5DE86";
width = 3740;
}
);
unicode = 108;
},
{
glyphname = lslash;
kernLeft = lslash;
kernRight = lslash;
lastChange = "2023-09-12 03:35:02 +0000";
layers = (
{
layerId = "C5490108-C233-4ADF-8B6D-CFE8E3B23812";
shapes = (
{
closed = 1;
nodes = (
(110,406,o),
(103,405,o),
(95,403,c),
(79,393,o),
(61,391,o),
(45,380,c),
(33,362,o),
(41,339,o),
(55,322,c),
(65,320,o),
(79,326,o),
(91,324,c),
(97,329,o),
(105,334,o),
(114,338,c),
(110,323,l),
(112,221,ls),
(114,173,o),
(113,116,o),
(114,59,c),
(111,51,o),
(112,38,o),
(109,30,c),
(109,19,o),
(107,5,o),
(114,0,cs),
(132,-13,o),
(163,-1,o),
(161,26,cs),
(161,28,o),
(159,28,o),
(159,30,cs),
(150,90,o),
(159,147,o),
(155,196,cs),
(154,205,o),
(154,213,o),
(155,223,cs),
(155,252,o),
(154,322,o),
(157,331,c),
(157,354,l),
(165,355,o),
(171,356,o),
(178,361,c),
(193,368,o),
(207,369,o),
(221,374,c),
(241,384,o),
(260,395,o),
(279,403,c),
(278,406,o),
(281,408,o),
(281,410,c),
(285,423,o),
(282,437,o),
(278,442,cs),
(272,450,o),
(265,458,o),
(254,459,c),
(234,454,o),
(219,441,o),
(197,440,c),
(194,432,o),
(185,433,o),
(176,433,c),
(170,427,o),
(164,423,o),
(158,421,c),
(158,422,ls),
(158,430,o),
(159,436,o),
(161,443,c),
(160,449,o),
(157,454,o),
(157,460,c),
(159,467,o),
(160,485,o),
(160,464,c),
(156,505,o),
(162,499,o),
(159,543,c),
(161,547,o),
(161,551,o),
(162,554,c),
(165,582,o),
(160,616,o),
(163,643,c),
(158,660,o),
(161,668,o),
(162,688,cs),
(162,721,ls),
(162,739,o),
(164,759,o),
(162,770,cs),
(161,775,o),
(158,778,o),
(155,782,c),
(143,786,o),
(129,782,o),
(121,778,c),
(120,772,o),
(118,766,o),
(118,760,cs),
(117,752,o),
(118,744,o),
(118,741,cs),
(117,718,o),
(114,695,o),
(116,677,cs),
(117,669,o),
(119,660,o),
(119,651,cs),
(119,642,o),
(118,623,o),
(118,603,cs),
(118,572,o),
(117,539,o),
(116,510,c),
(114,502,o),
(114,526,o),
(116,482,cs),
(117,461,o),
(116,440,o),
(116,418,c),
(115,415,o),
(115,412,o),
(116,410,c),
(116,408,l)
);
}
);
width = 312;
},
{
associatedMasterId = "C5490108-C233-4ADF-8B6D-CFE8E3B23812";
layerId = "D1580C2B-5BB6-46B1-91BF-F93DAAA5DE86";
width = 6620;
}
);
unicode = 322;
},
